<svg width="379" height="108" viewBox="0 0 379 108" fill="none" xmlns="http://www.w3.org/2000/svg">
<rect width="20" height="40" rx="4" fill="#DB4444"/>
<path d="M36.56 20.4C36.56 19.3013 36.8053 18.32 37.296 17.456C37.7973 16.5813 38.4747 15.904 39.328 15.424C40.192 14.9333 41.1573 14.688 42.224 14.688C43.472 14.688 44.5653 15.008 45.504 15.648C46.4427 16.288 47.0987 17.1733 47.472 18.304H44.896C44.64 17.7707 44.2773 17.3707 43.808 17.104C43.3493 16.8373 42.816 16.704 42.208 16.704C41.5573 16.704 40.976 16.8587 40.464 17.168C39.9627 17.4667 39.568 17.8933 39.28 18.448C39.0027 19.0027 38.864 19.6533 38.864 20.4C38.864 21.136 39.0027 21.7867 39.28 22.352C39.568 22.9067 39.9627 23.3387 40.464 23.648C40.976 23.9467 41.5573 24.096 42.208 24.096C42.816 24.096 43.3493 23.9627 43.808 23.696C44.2773 23.4187 44.64 23.0133 44.896 22.48H47.472C47.0987 23.6213 46.4427 24.512 45.504 25.152C44.576 25.7813 43.4827 26.096 42.224 26.096C41.1573 26.096 40.192 25.856 39.328 25.376C38.4747 24.8853 37.7973 24.208 37.296 23.344C36.8053 22.48 36.56 21.4987 36.56 20.4ZM48.8092 21.536C48.8092 20.64 48.9852 19.8453 49.3372 19.152C49.6999 18.4587 50.1853 17.9253 50.7933 17.552C51.4119 17.1787 52.0999 16.992 52.8573 16.992C53.5186 16.992 54.0946 17.1253 54.5853 17.392C55.0866 17.6587 55.4866 17.9947 55.7853 18.4V17.136H58.0413V26H55.7853V24.704C55.4973 25.12 55.0973 25.4667 54.5853 25.744C54.0839 26.0107 53.5026 26.144 52.8413 26.144C52.0946 26.144 51.4119 25.952 50.7933 25.568C50.1853 25.184 49.6999 24.6453 49.3372 23.952C48.9852 23.248 48.8092 22.4427 48.8092 21.536ZM55.7853 21.568C55.7853 21.024 55.6786 20.56 55.4653 20.176C55.2519 19.7813 54.9639 19.4827 54.6013 19.28C54.2386 19.0667 53.8493 18.96 53.4333 18.96C53.0173 18.96 52.6333 19.0613 52.2812 19.264C51.9293 19.4667 51.6413 19.7653 51.4173 20.16C51.2039 20.544 51.0973 21.0027 51.0973 21.536C51.0973 22.0693 51.2039 22.5387 51.4173 22.944C51.6413 23.3387 51.9293 23.6427 52.2812 23.856C52.6439 24.0693 53.0279 24.176 53.4333 24.176C53.8493 24.176 54.2386 24.0747 54.6013 23.872C54.9639 23.6587 55.2519 23.36 55.4653 22.976C55.6786 22.5813 55.7853 22.112 55.7853 21.568ZM62.837 18.976V23.264C62.837 23.5627 62.9063 23.7813 63.045 23.92C63.1943 24.048 63.4397 24.112 63.781 24.112H64.821V26H63.413C61.525 26 60.581 25.0827 60.581 23.248V18.976H59.525V17.136H60.581V14.944H62.837V17.136H64.821V18.976H62.837ZM74.6721 21.376C74.6721 21.696 74.6508 21.984 74.6081 22.24H68.1281C68.1815 22.88 68.4055 23.3813 68.8001 23.744C69.1948 24.1067 69.6801 24.288 70.2561 24.288C71.0881 24.288 71.6801 23.9307 72.0321 23.216H74.4481C74.1921 24.0693 73.7015 24.7733 72.9761 25.328C72.2508 25.872 71.3601 26.144 70.3041 26.144C69.4508 26.144 68.6828 25.9573 68.0001 25.584C67.3281 25.2 66.8001 24.6613 66.4161 23.968C66.0428 23.2747 65.8561 22.4747 65.8561 21.568C65.8561 20.6507 66.0428 19.8453 66.4161 19.152C66.7895 18.4587 67.3121 17.9253 67.9841 17.552C68.6561 17.1787 69.4295 16.992 70.3041 16.992C71.1468 16.992 71.8988 17.1733 72.5601 17.536C73.2321 17.8987 73.7495 18.416 74.1121 19.088C74.4855 19.7493 74.6721 20.512 74.6721 21.376ZM72.3521 20.736C72.3415 20.16 72.1335 19.7013 71.7281 19.36C71.3228 19.008 70.8268 18.832 70.2401 18.832C69.6855 18.832 69.2161 19.0027 68.8321 19.344C68.4588 19.6747 68.2295 20.1387 68.1441 20.736H72.3521ZM79.7791 16.992C80.4405 16.992 81.0218 17.1253 81.5231 17.392C82.0245 17.648 82.4191 17.984 82.7071 18.4V17.136H84.9631V26.064C84.9631 26.8853 84.7978 27.616 84.4671 28.256C84.1365 28.9067 83.6405 29.4187 82.9791 29.792C82.3178 30.176 81.5178 30.368 80.5791 30.368C79.3205 30.368 78.2858 30.0747 77.4751 29.488C76.6751 28.9013 76.2218 28.1013 76.1151 27.088H78.3391C78.4565 27.4933 78.7071 27.8133 79.0911 28.048C79.4858 28.2933 79.9605 28.416 80.5151 28.416C81.1658 28.416 81.6938 28.2187 82.0991 27.824C82.5045 27.44 82.7071 26.8533 82.7071 26.064V24.688C82.4191 25.104 82.0191 25.4507 81.5071 25.728C81.0058 26.0053 80.4298 26.144 79.7791 26.144C79.0325 26.144 78.3498 25.952 77.7311 25.568C77.1125 25.184 76.6218 24.6453 76.2591 23.952C75.9071 23.248 75.7311 22.4427 75.7311 21.536C75.7311 20.64 75.9071 19.8453 76.2591 19.152C76.6218 18.4587 77.1071 17.9253 77.7151 17.552C78.3338 17.1787 79.0218 16.992 79.7791 16.992ZM82.7071 21.568C82.7071 21.024 82.6005 20.56 82.3871 20.176C82.1738 19.7813 81.8858 19.4827 81.5231 19.28C81.1605 19.0667 80.7711 18.96 80.3551 18.96C79.9391 18.96 79.5551 19.0613 79.2031 19.264C78.8511 19.4667 78.5631 19.7653 78.3391 20.16C78.1258 20.544 78.0191 21.0027 78.0191 21.536C78.0191 22.0693 78.1258 22.5387 78.3391 22.944C78.5631 23.3387 78.8511 23.6427 79.2031 23.856C79.5658 24.0693 79.9498 24.176 80.3551 24.176C80.7711 24.176 81.1605 24.0747 81.5231 23.872C81.8858 23.6587 82.1738 23.36 82.3871 22.976C82.6005 22.5813 82.7071 22.112 82.7071 21.568ZM91.0869 26.144C90.2335 26.144 89.4655 25.9573 88.7829 25.584C88.1002 25.2 87.5615 24.6613 87.1669 23.968C86.7829 23.2747 86.5909 22.4747 86.5909 21.568C86.5909 20.6613 86.7882 19.8613 87.1829 19.168C87.5882 18.4747 88.1375 17.9413 88.8309 17.568C89.5242 17.184 90.2975 16.992 91.1509 16.992C92.0042 16.992 92.7775 17.184 93.4709 17.568C94.1642 17.9413 94.7082 18.4747 95.1029 19.168C95.5082 19.8613 95.7109 20.6613 95.7109 21.568C95.7109 22.4747 95.5029 23.2747 95.0869 23.968C94.6815 24.6613 94.1269 25.2 93.4229 25.584C92.7295 25.9573 91.9509 26.144 91.0869 26.144ZM91.0869 24.192C91.4922 24.192 91.8709 24.096 92.2229 23.904C92.5855 23.7013 92.8735 23.4027 93.0869 23.008C93.3002 22.6133 93.4069 22.1333 93.4069 21.568C93.4069 20.7253 93.1829 20.08 92.7349 19.632C92.2975 19.1733 91.7589 18.944 91.1189 18.944C90.4789 18.944 89.9402 19.1733 89.5029 19.632C89.0762 20.08 88.8629 20.7253 88.8629 21.568C88.8629 22.4107 89.0709 23.0613 89.4869 23.52C89.9135 23.968 90.4469 24.192 91.0869 24.192ZM99.594 18.512C99.882 18.0427 100.255 17.6747 100.714 17.408C101.183 17.1413 101.717 17.008 102.314 17.008V19.36H101.722C101.018 19.36 100.485 19.5253 100.122 19.856C99.77 20.1867 99.594 20.7627 99.594 21.584V26H97.354V17.136H99.594V18.512ZM104.959 16.08C104.564 16.08 104.233 15.9573 103.967 15.712C103.711 15.456 103.583 15.1413 103.583 14.768C103.583 14.3947 103.711 14.0853 103.967 13.84C104.233 13.584 104.564 13.456 104.959 13.456C105.353 13.456 105.679 13.584 105.935 13.84C106.201 14.0853 106.335 14.3947 106.335 14.768C106.335 15.1413 106.201 15.456 105.935 15.712C105.679 15.9573 105.353 16.08 104.959 16.08ZM106.063 17.136V26H103.823V17.136H106.063ZM116.516 21.376C116.516 21.696 116.495 21.984 116.452 22.24H109.972C110.025 22.88 110.249 23.3813 110.644 23.744C111.039 24.1067 111.524 24.288 112.1 24.288C112.932 24.288 113.524 23.9307 113.876 23.216H116.292C116.036 24.0693 115.545 24.7733 114.82 25.328C114.095 25.872 113.204 26.144 112.148 26.144C111.295 26.144 110.527 25.9573 109.844 25.584C109.172 25.2 108.644 24.6613 108.26 23.968C107.887 23.2747 107.7 22.4747 107.7 21.568C107.7 20.6507 107.887 19.8453 108.26 19.152C108.633 18.4587 109.156 17.9253 109.828 17.552C110.5 17.1787 111.273 16.992 112.148 16.992C112.991 16.992 113.743 17.1733 114.404 17.536C115.076 17.8987 115.593 18.416 115.956 19.088C116.329 19.7493 116.516 20.512 116.516 21.376ZM114.196 20.736C114.185 20.16 113.977 19.7013 113.572 19.36C113.167 19.008 112.671 18.832 112.084 18.832C111.529 18.832 111.06 19.0027 110.676 19.344C110.303 19.6747 110.073 20.1387 109.988 20.736H114.196ZM121.543 26.144C120.818 26.144 120.167 26.016 119.591 25.76C119.015 25.4933 118.556 25.136 118.215 24.688C117.884 24.24 117.703 23.744 117.671 23.2H119.927C119.97 23.5413 120.135 23.824 120.423 24.048C120.722 24.272 121.09 24.384 121.527 24.384C121.954 24.384 122.284 24.2987 122.519 24.128C122.764 23.9573 122.887 23.7387 122.887 23.472C122.887 23.184 122.738 22.9707 122.439 22.832C122.151 22.6827 121.687 22.5227 121.047 22.352C120.386 22.192 119.842 22.0267 119.415 21.856C118.999 21.6853 118.636 21.424 118.327 21.072C118.028 20.72 117.879 20.2453 117.879 19.648C117.879 19.1573 118.018 18.7093 118.295 18.304C118.583 17.8987 118.988 17.5787 119.511 17.344C120.044 17.1093 120.668 16.992 121.383 16.992C122.439 16.992 123.282 17.2587 123.911 17.792C124.54 18.3147 124.887 19.024 124.951 19.92H122.807C122.775 19.568 122.626 19.2907 122.359 19.088C122.103 18.8747 121.756 18.768 121.319 18.768C120.914 18.768 120.599 18.8427 120.375 18.992C120.162 19.1413 120.055 19.3493 120.055 19.616C120.055 19.9147 120.204 20.144 120.503 20.304C120.802 20.4533 121.266 20.608 121.895 20.768C122.535 20.928 123.063 21.0933 123.479 21.264C123.895 21.4347 124.252 21.7013 124.551 22.064C124.86 22.416 125.02 22.8853 125.031 23.472C125.031 23.984 124.887 24.4427 124.599 24.848C124.322 25.2533 123.916 25.5733 123.383 25.808C122.86 26.032 122.247 26.144 121.543 26.144Z" fill="#DB4444"/>
<path d="M2.58239 97V70.8182H12.6051C14.4972 70.8182 16.0696 71.1165 17.3224 71.7131C18.5838 72.3011 19.5256 73.1065 20.1477 74.1293C20.7784 75.152 21.0938 76.3111 21.0938 77.6065C21.0938 78.6719 20.8892 79.5838 20.4801 80.3423C20.071 81.0923 19.5213 81.7017 18.831 82.1705C18.1406 82.6392 17.3693 82.9759 16.517 83.1804V83.4361C17.446 83.4872 18.3366 83.7727 19.1889 84.2926C20.0497 84.804 20.7528 85.5284 21.2983 86.4659C21.8438 87.4034 22.1165 88.5369 22.1165 89.8665C22.1165 91.2216 21.7884 92.4403 21.1321 93.5227C20.4759 94.5966 19.4872 95.4446 18.1662 96.0668C16.8452 96.6889 15.1832 97 13.1804 97H2.58239ZM7.32528 93.0369H12.4261C14.1477 93.0369 15.3878 92.7088 16.1463 92.0526C16.9134 91.3878 17.2969 90.5355 17.2969 89.4957C17.2969 88.7202 17.1051 88.0213 16.7216 87.3991C16.3381 86.7685 15.7926 86.2741 15.0852 85.9162C14.3778 85.5497 13.5341 85.3665 12.554 85.3665H7.32528V93.0369ZM7.32528 81.9531H12.017C12.8352 81.9531 13.5724 81.804 14.2287 81.5057C14.8849 81.1989 15.4006 80.7685 15.7756 80.2145C16.1591 79.652 16.3509 78.9872 16.3509 78.2202C16.3509 77.206 15.9929 76.3707 15.277 75.7145C14.5696 75.0582 13.517 74.7301 12.1193 74.7301H7.32528V81.9531ZM27.478 97V77.3636H31.9652V80.6364H32.1698C32.5277 79.5028 33.1414 78.6293 34.0107 78.0156C34.8885 77.3935 35.8899 77.0824 37.0149 77.0824C37.2706 77.0824 37.5561 77.0952 37.8715 77.1207C38.1953 77.1378 38.4638 77.1676 38.6769 77.2102V81.4673C38.4808 81.3991 38.1698 81.3395 37.7436 81.2884C37.326 81.2287 36.9212 81.1989 36.5291 81.1989C35.6854 81.1989 34.9269 81.3821 34.2536 81.7486C33.5888 82.1065 33.0646 82.6051 32.6811 83.2443C32.2976 83.8835 32.1058 84.6207 32.1058 85.456V97H27.478ZM50.9482 97.3835C49.0306 97.3835 47.3686 96.9616 45.9624 96.1179C44.5561 95.2741 43.4652 94.0937 42.6897 92.5767C41.9226 91.0597 41.5391 89.2869 41.5391 87.2585C41.5391 85.2301 41.9226 83.4531 42.6897 81.9276C43.4652 80.402 44.5561 79.2173 45.9624 78.3736C47.3686 77.5298 49.0306 77.108 50.9482 77.108C52.8658 77.108 54.5277 77.5298 55.934 78.3736C57.3402 79.2173 58.4269 80.402 59.1939 81.9276C59.9695 83.4531 60.3573 85.2301 60.3573 87.2585C60.3573 89.2869 59.9695 91.0597 59.1939 92.5767C58.4269 94.0937 57.3402 95.2741 55.934 96.1179C54.5277 96.9616 52.8658 97.3835 50.9482 97.3835ZM50.9738 93.6761C52.0135 93.6761 52.8828 93.3906 53.5817 92.8196C54.2806 92.2401 54.8005 91.4645 55.1414 90.4929C55.4908 89.5213 55.6655 88.4389 55.6655 87.2457C55.6655 86.044 55.4908 84.9574 55.1414 83.9858C54.8005 83.0057 54.2806 82.2259 53.5817 81.6463C52.8828 81.0668 52.0135 80.777 50.9738 80.777C49.9084 80.777 49.022 81.0668 48.3147 81.6463C47.6158 82.2259 47.0916 83.0057 46.7422 83.9858C46.4013 84.9574 46.2309 86.044 46.2309 87.2457C46.2309 88.4389 46.4013 89.5213 46.7422 90.4929C47.0916 91.4645 47.6158 92.2401 48.3147 92.8196C49.022 93.3906 49.9084 93.6761 50.9738 93.6761ZM69.2152 97L63.6669 77.3636H68.3843L71.836 91.1705H72.015L75.5434 77.3636H80.2096L83.738 91.0938H83.9297L87.3303 77.3636H92.0604L86.4993 97H81.6797L77.9979 83.7301H77.7294L74.0476 97H69.2152ZM112.251 82.554L108.033 83.0142C107.913 82.5881 107.705 82.1875 107.406 81.8125C107.117 81.4375 106.724 81.1349 106.23 80.9048C105.736 80.6747 105.131 80.5597 104.415 80.5597C103.452 80.5597 102.642 80.7685 101.986 81.1861C101.338 81.6037 101.019 82.1449 101.027 82.8097C101.019 83.3807 101.227 83.8452 101.653 84.2031C102.088 84.5611 102.804 84.8551 103.801 85.0852L107.151 85.8011C109.009 86.2017 110.389 86.8366 111.293 87.706C112.205 88.5753 112.665 89.7131 112.673 91.1193C112.665 92.3551 112.303 93.446 111.587 94.392C110.879 95.3295 109.895 96.0625 108.634 96.5909C107.372 97.1193 105.923 97.3835 104.287 97.3835C101.884 97.3835 99.9489 96.8807 98.483 95.875C97.0171 94.8608 96.1435 93.4503 95.8623 91.6435L100.375 91.2088C100.58 92.0952 101.014 92.7642 101.679 93.2159C102.344 93.6676 103.209 93.8935 104.274 93.8935C105.374 93.8935 106.256 93.6676 106.921 93.2159C107.594 92.7642 107.93 92.206 107.93 91.5412C107.93 90.9787 107.713 90.5142 107.278 90.1477C106.852 89.7812 106.188 89.5 105.284 89.304L101.935 88.6009C100.051 88.2088 98.6577 87.5483 97.7543 86.6193C96.8509 85.6818 96.4035 84.4972 96.412 83.0653C96.4035 81.8551 96.7316 80.8068 97.3964 79.9205C98.0697 79.0256 99.0029 78.3352 100.196 77.8494C101.398 77.3551 102.783 77.108 104.351 77.108C106.652 77.108 108.463 77.598 109.784 78.5781C111.114 79.5582 111.936 80.8835 112.251 82.554ZM126.623 97.3835C124.654 97.3835 122.954 96.9744 121.522 96.1562C120.098 95.3295 119.003 94.1619 118.236 92.6534C117.469 91.1364 117.086 89.3509 117.086 87.2969C117.086 85.277 117.469 83.5043 118.236 81.9787C119.012 80.4446 120.094 79.2514 121.483 78.3991C122.873 77.5384 124.505 77.108 126.38 77.108C127.59 77.108 128.732 77.304 129.806 77.696C130.888 78.0795 131.843 78.6761 132.669 79.4858C133.505 80.2955 134.161 81.3267 134.638 82.5795C135.115 83.8239 135.354 85.3068 135.354 87.0284V88.4474H119.259V85.3281H130.918C130.91 84.4418 130.718 83.6534 130.343 82.9631C129.968 82.2642 129.444 81.7145 128.77 81.3139C128.106 80.9134 127.33 80.7131 126.444 80.7131C125.498 80.7131 124.667 80.9432 123.951 81.4034C123.235 81.8551 122.677 82.4517 122.276 83.1932C121.884 83.9261 121.684 84.7315 121.675 85.6094V88.3324C121.675 89.4744 121.884 90.4545 122.302 91.2727C122.719 92.0824 123.303 92.7045 124.053 93.1392C124.803 93.5653 125.681 93.7784 126.687 93.7784C127.36 93.7784 127.969 93.6847 128.515 93.4972C129.06 93.3011 129.533 93.0156 129.934 92.6406C130.334 92.2656 130.637 91.8011 130.841 91.2472L135.162 91.733C134.89 92.875 134.37 93.8722 133.603 94.7244C132.844 95.5682 131.873 96.2244 130.688 96.6932C129.503 97.1534 128.148 97.3835 126.623 97.3835ZM151.283 97V70.8182H161.306C163.198 70.8182 164.771 71.1165 166.024 71.7131C167.285 72.3011 168.227 73.1065 168.849 74.1293C169.48 75.152 169.795 76.3111 169.795 77.6065C169.795 78.6719 169.59 79.5838 169.181 80.3423C168.772 81.0923 168.222 81.7017 167.532 82.1705C166.842 82.6392 166.07 82.9759 165.218 83.1804V83.4361C166.147 83.4872 167.038 83.7727 167.89 84.2926C168.751 84.804 169.454 85.5284 169.999 86.4659C170.545 87.4034 170.818 88.5369 170.818 89.8665C170.818 91.2216 170.489 92.4403 169.833 93.5227C169.177 94.5966 168.188 95.4446 166.867 96.0668C165.546 96.6889 163.884 97 161.881 97H151.283ZM156.026 93.0369H161.127C162.849 93.0369 164.089 92.7088 164.847 92.0526C165.614 91.3878 165.998 90.5355 165.998 89.4957C165.998 88.7202 165.806 88.0213 165.423 87.3991C165.039 86.7685 164.494 86.2741 163.786 85.9162C163.079 85.5497 162.235 85.3665 161.255 85.3665H156.026V93.0369ZM156.026 81.9531H160.718C161.536 81.9531 162.274 81.804 162.93 81.5057C163.586 81.1989 164.102 80.7685 164.477 80.2145C164.86 79.652 165.052 78.9872 165.052 78.2202C165.052 77.206 164.694 76.3707 163.978 75.7145C163.271 75.0582 162.218 74.7301 160.82 74.7301H156.026V81.9531ZM179.056 104.364C178.425 104.364 177.841 104.313 177.304 104.21C176.776 104.116 176.354 104.006 176.038 103.878L177.112 100.273C177.786 100.469 178.386 100.563 178.915 100.554C179.443 100.545 179.908 100.379 180.308 100.055C180.717 99.7401 181.063 99.2116 181.344 98.4702L181.74 97.4091L174.619 77.3636H179.529L184.054 92.1932H184.259L188.797 77.3636H193.719L185.857 99.3778C185.49 100.418 185.004 101.308 184.399 102.05C183.794 102.8 183.053 103.371 182.175 103.763C181.306 104.163 180.266 104.364 179.056 104.364ZM231.346 79.652H226.565C226.428 78.8679 226.177 78.1733 225.811 77.5682C225.444 76.9545 224.988 76.4347 224.443 76.0085C223.897 75.5824 223.275 75.2628 222.576 75.0497C221.886 74.8281 221.14 74.7173 220.339 74.7173C218.916 74.7173 217.654 75.0753 216.555 75.7912C215.455 76.4986 214.595 77.5384 213.972 78.9105C213.35 80.2741 213.039 81.9403 213.039 83.9091C213.039 85.9119 213.35 87.5994 213.972 88.9716C214.603 90.3352 215.464 91.3665 216.555 92.0653C217.654 92.7557 218.911 93.1009 220.326 93.1009C221.11 93.1009 221.843 92.9986 222.525 92.794C223.215 92.581 223.833 92.2699 224.379 91.8608C224.933 91.4517 225.397 90.9489 225.772 90.3523C226.156 89.7557 226.42 89.0739 226.565 88.3068L231.346 88.3324C231.167 89.5767 230.779 90.7443 230.183 91.8352C229.595 92.9261 228.823 93.8892 227.869 94.7244C226.914 95.5511 225.798 96.1989 224.519 96.6676C223.241 97.1278 221.822 97.358 220.262 97.358C217.961 97.358 215.907 96.8253 214.1 95.7599C212.293 94.6946 210.87 93.1562 209.83 91.1449C208.791 89.1335 208.271 86.7216 208.271 83.9091C208.271 81.0881 208.795 78.6761 209.843 76.6733C210.891 74.6619 212.319 73.1236 214.126 72.0582C215.933 70.9929 217.978 70.4602 220.262 70.4602C221.72 70.4602 223.075 70.6648 224.328 71.0739C225.58 71.483 226.697 72.0838 227.677 72.8764C228.657 73.6605 229.462 74.6236 230.093 75.7656C230.732 76.8991 231.15 78.1946 231.346 79.652ZM242.575 97.3963C241.331 97.3963 240.21 97.1747 239.213 96.7315C238.225 96.2798 237.44 95.6151 236.861 94.7372C236.29 93.8594 236.004 92.777 236.004 91.4901C236.004 90.3821 236.209 89.4659 236.618 88.7415C237.027 88.017 237.585 87.4375 238.293 87.0028C239 86.5682 239.797 86.2401 240.683 86.0185C241.578 85.7884 242.503 85.6222 243.458 85.5199C244.608 85.4006 245.541 85.294 246.257 85.2003C246.973 85.098 247.493 84.9446 247.817 84.7401C248.149 84.527 248.315 84.1989 248.315 83.7557V83.679C248.315 82.7159 248.03 81.9702 247.459 81.4418C246.888 80.9134 246.065 80.6491 244.992 80.6491C243.858 80.6491 242.959 80.8963 242.294 81.3906C241.638 81.8849 241.195 82.4687 240.965 83.142L236.644 82.5284C236.985 81.3352 237.547 80.3381 238.331 79.5369C239.115 78.7273 240.074 78.1222 241.208 77.7216C242.341 77.3125 243.594 77.108 244.966 77.108C245.912 77.108 246.854 77.2188 247.791 77.4403C248.729 77.6619 249.585 78.0284 250.361 78.5398C251.137 79.0426 251.759 79.7287 252.227 80.598C252.705 81.4673 252.943 82.554 252.943 83.858V97H248.494V94.3026H248.341C248.06 94.848 247.664 95.3594 247.152 95.8366C246.649 96.3054 246.014 96.6847 245.247 96.9744C244.489 97.2557 243.598 97.3963 242.575 97.3963ZM243.777 93.9957C244.706 93.9957 245.512 93.8125 246.193 93.446C246.875 93.071 247.399 92.5767 247.766 91.9631C248.141 91.3494 248.328 90.6804 248.328 89.956V87.642C248.183 87.7614 247.936 87.8722 247.587 87.9744C247.246 88.0767 246.862 88.1662 246.436 88.2429C246.01 88.3196 245.588 88.3878 245.171 88.4474C244.753 88.5071 244.391 88.5582 244.084 88.6009C243.394 88.6946 242.776 88.848 242.23 89.0611C241.685 89.2741 241.254 89.5724 240.939 89.956C240.624 90.331 240.466 90.8168 240.466 91.4134C240.466 92.2656 240.777 92.9091 241.399 93.3438C242.021 93.7784 242.814 93.9957 243.777 93.9957ZM268.842 77.3636V80.9432H257.554V77.3636H268.842ZM260.341 72.6591H264.969V91.0938C264.969 91.7159 265.062 92.1932 265.25 92.5256C265.446 92.8494 265.702 93.071 266.017 93.1903C266.332 93.3097 266.682 93.3693 267.065 93.3693C267.355 93.3693 267.619 93.348 267.858 93.3054C268.105 93.2628 268.292 93.2244 268.42 93.1903L269.2 96.8082C268.953 96.8935 268.599 96.9872 268.139 97.0895C267.687 97.1918 267.133 97.2514 266.477 97.2685C265.318 97.3026 264.274 97.1278 263.345 96.7443C262.416 96.3523 261.679 95.7472 261.133 94.929C260.596 94.1108 260.332 93.0881 260.341 91.8608V72.6591ZM282.635 97.3835C280.666 97.3835 278.966 96.9744 277.534 96.1562C276.111 95.3295 275.015 94.1619 274.248 92.6534C273.481 91.1364 273.098 89.3509 273.098 87.2969C273.098 85.277 273.481 83.5043 274.248 81.9787C275.024 80.4446 276.106 79.2514 277.496 78.3991C278.885 77.5384 280.517 77.108 282.392 77.108C283.602 77.108 284.744 77.304 285.818 77.696C286.9 78.0795 287.855 78.6761 288.682 79.4858C289.517 80.2955 290.173 81.3267 290.65 82.5795C291.128 83.8239 291.366 85.3068 291.366 87.0284V88.4474H275.271V85.3281H286.93C286.922 84.4418 286.73 83.6534 286.355 82.9631C285.98 82.2642 285.456 81.7145 284.783 81.3139C284.118 80.9134 283.342 80.7131 282.456 80.7131C281.51 80.7131 280.679 80.9432 279.963 81.4034C279.247 81.8551 278.689 82.4517 278.288 83.1932C277.896 83.9261 277.696 84.7315 277.687 85.6094V88.3324C277.687 89.4744 277.896 90.4545 278.314 91.2727C278.731 92.0824 279.315 92.7045 280.065 93.1392C280.815 93.5653 281.693 93.7784 282.699 93.7784C283.372 93.7784 283.981 93.6847 284.527 93.4972C285.072 93.3011 285.545 93.0156 285.946 92.6406C286.346 92.2656 286.649 91.8011 286.854 91.2472L291.175 91.733C290.902 92.875 290.382 93.8722 289.615 94.7244C288.856 95.5682 287.885 96.2244 286.7 96.6932C285.515 97.1534 284.16 97.3835 282.635 97.3835ZM305.261 104.773C303.599 104.773 302.172 104.547 300.979 104.095C299.785 103.652 298.827 103.055 298.102 102.305C297.378 101.555 296.875 100.724 296.594 99.8125L300.761 98.8026C300.949 99.1861 301.221 99.5653 301.579 99.9403C301.937 100.324 302.419 100.639 303.024 100.886C303.638 101.142 304.409 101.27 305.338 101.27C306.65 101.27 307.737 100.95 308.598 100.311C309.459 99.6804 309.889 98.6406 309.889 97.1918V93.4716H309.659C309.42 93.9489 309.071 94.4389 308.611 94.9418C308.159 95.4446 307.558 95.8665 306.808 96.2074C306.067 96.5483 305.133 96.7188 304.008 96.7188C302.5 96.7188 301.132 96.3651 299.905 95.6577C298.686 94.9418 297.714 93.8764 296.99 92.4616C296.274 91.0384 295.916 89.2571 295.916 87.1179C295.916 84.9616 296.274 83.142 296.99 81.6591C297.714 80.1676 298.69 79.0384 299.917 78.2713C301.145 77.4957 302.513 77.108 304.021 77.108C305.172 77.108 306.118 77.304 306.859 77.696C307.609 78.0795 308.206 78.544 308.649 79.0895C309.092 79.6264 309.429 80.1335 309.659 80.6108H309.915V77.3636H314.479V97.3196C314.479 98.9986 314.078 100.388 313.277 101.487C312.476 102.587 311.381 103.409 309.991 103.955C308.602 104.5 307.025 104.773 305.261 104.773ZM305.3 93.0881C306.28 93.0881 307.115 92.8494 307.805 92.3722C308.496 91.8949 309.02 91.2088 309.378 90.3139C309.736 89.419 309.915 88.3452 309.915 87.0923C309.915 85.8565 309.736 84.7741 309.378 83.8452C309.028 82.9162 308.508 82.196 307.818 81.6847C307.136 81.1648 306.297 80.9048 305.3 80.9048C304.268 80.9048 303.408 81.1733 302.717 81.7102C302.027 82.2472 301.507 82.9844 301.158 83.9219C300.808 84.8509 300.633 85.9077 300.633 87.0923C300.633 88.294 300.808 89.3466 301.158 90.25C301.515 91.1449 302.04 91.8437 302.73 92.3466C303.429 92.8409 304.285 93.0881 305.3 93.0881ZM329.227 97.3835C327.309 97.3835 325.647 96.9616 324.241 96.1179C322.835 95.2741 321.744 94.0937 320.968 92.5767C320.201 91.0597 319.818 89.2869 319.818 87.2585C319.818 85.2301 320.201 83.4531 320.968 81.9276C321.744 80.402 322.835 79.2173 324.241 78.3736C325.647 77.5298 327.309 77.108 329.227 77.108C331.144 77.108 332.806 77.5298 334.213 78.3736C335.619 79.2173 336.705 80.402 337.473 81.9276C338.248 83.4531 338.636 85.2301 338.636 87.2585C338.636 89.2869 338.248 91.0597 337.473 92.5767C336.705 94.0937 335.619 95.2741 334.213 96.1179C332.806 96.9616 331.144 97.3835 329.227 97.3835ZM329.252 93.6761C330.292 93.6761 331.161 93.3906 331.86 92.8196C332.559 92.2401 333.079 91.4645 333.42 90.4929C333.769 89.5213 333.944 88.4389 333.944 87.2457C333.944 86.044 333.769 84.9574 333.42 83.9858C333.079 83.0057 332.559 82.2259 331.86 81.6463C331.161 81.0668 330.292 80.777 329.252 80.777C328.187 80.777 327.301 81.0668 326.593 81.6463C325.894 82.2259 325.37 83.0057 325.021 83.9858C324.68 84.9574 324.509 86.044 324.509 87.2457C324.509 88.4389 324.68 89.5213 325.021 90.4929C325.37 91.4645 325.894 92.2401 326.593 92.8196C327.301 93.3906 328.187 93.6761 329.252 93.6761ZM344.004 97V77.3636H348.491V80.6364H348.696C349.054 79.5028 349.667 78.6293 350.536 78.0156C351.414 77.3935 352.416 77.0824 353.541 77.0824C353.796 77.0824 354.082 77.0952 354.397 77.1207C354.721 77.1378 354.99 77.1676 355.203 77.2102V81.4673C355.007 81.3991 354.696 81.3395 354.269 81.2884C353.852 81.2287 353.447 81.1989 353.055 81.1989C352.211 81.1989 351.453 81.3821 350.779 81.7486C350.115 82.1065 349.59 82.6051 349.207 83.2443C348.823 83.8835 348.632 84.6207 348.632 85.456V97H344.004ZM363.191 104.364C362.561 104.364 361.977 104.313 361.44 104.21C360.911 104.116 360.49 104.006 360.174 103.878L361.248 100.273C361.921 100.469 362.522 100.563 363.051 100.554C363.579 100.545 364.044 100.379 364.444 100.055C364.853 99.7401 365.198 99.2116 365.48 98.4702L365.876 97.4091L358.755 77.3636H363.664L368.19 92.1932H368.394L372.933 77.3636H377.855L369.992 99.3778C369.626 100.418 369.14 101.308 368.535 102.05C367.93 102.8 367.188 103.371 366.311 103.763C365.441 104.163 364.402 104.364 363.191 104.364Z" fill="black"/>
</svg>
