<svg width="263" height="161" viewBox="0 0 263 161" fill="none" xmlns="http://www.w3.org/2000/svg">
<path opacity="0.3" d="M171.5 40C171.5 62.0914 153.591 80 131.5 80C109.409 80 91.5 62.0914 91.5 40C91.5 17.9086 109.409 0 131.5 0C153.591 0 171.5 17.9086 171.5 40ZM102.407 40C102.407 56.0675 115.432 69.0929 131.5 69.0929C147.568 69.0929 160.593 56.0675 160.593 40C160.593 23.9325 147.568 10.9071 131.5 10.9071C115.432 10.9071 102.407 23.9325 102.407 40Z" fill="#2F2E30"/>
<circle cx="131.5" cy="40" r="29" fill="black"/>
<g clip-path="url(#clip0_542_2349)">
<path d="M124.833 45C124.833 43.159 123.341 41.6666 121.5 41.6666C119.659 41.6666 118.167 43.159 118.167 45V48.3333C118.167 50.1742 119.659 51.6666 121.5 51.6666C123.341 51.6666 124.833 50.1742 124.833 48.3333V45Z" stroke="white" stroke-width="2" stroke-linecap="round" stroke-linejoin="round"/>
<path d="M144.833 45C144.833 43.159 143.341 41.6666 141.5 41.6666C139.659 41.6666 138.167 43.159 138.167 45V48.3333C138.167 50.1742 139.659 51.6666 141.5 51.6666C143.341 51.6666 144.833 50.1742 144.833 48.3333V45Z" stroke="white" stroke-width="2" stroke-linecap="round" stroke-linejoin="round"/>
<path d="M118.167 45V40C118.167 36.4637 119.571 33.0724 122.072 30.5719C124.572 28.0714 127.964 26.6666 131.5 26.6666C135.036 26.6666 138.427 28.0714 140.928 30.5719C143.428 33.0724 144.833 36.4637 144.833 40V45" stroke="white" stroke-width="2" stroke-linecap="round" stroke-linejoin="round"/>
<path d="M141.5 51.6666C141.5 52.9927 140.446 54.2645 138.571 55.2022C136.696 56.1398 134.152 56.6666 131.5 56.6666" stroke="white" stroke-width="2" stroke-linecap="round" stroke-linejoin="round"/>
</g>
<path d="M9.94 121.84C11.22 120.773 12.24 119.887 13 119.18C13.76 118.46 14.3933 117.713 14.9 116.94C15.4067 116.167 15.66 115.407 15.66 114.66C15.66 113.98 15.5 113.447 15.18 113.06C14.86 112.673 14.3667 112.48 13.7 112.48C13.0333 112.48 12.52 112.707 12.16 113.16C11.8 113.6 11.6133 114.207 11.6 114.98H8.88C8.93333 113.38 9.40667 112.167 10.3 111.34C11.2067 110.513 12.3533 110.1 13.74 110.1C15.26 110.1 16.4267 110.507 17.24 111.32C18.0533 112.12 18.46 113.18 18.46 114.5C18.46 115.54 18.18 116.533 17.62 117.48C17.06 118.427 16.42 119.253 15.7 119.96C14.98 120.653 14.04 121.493 12.88 122.48H18.78V124.8H8.9V122.72L9.94 121.84ZM20.4244 122.16V119.96L26.9644 110.6H30.2244V119.72H31.9844V122.16H30.2244V125H27.4244V122.16H20.4244ZM27.6044 113.6L23.5044 119.72H27.6044V113.6ZM41.587 106.06L36.187 128.62H33.447L38.847 106.06H41.587ZM52.7736 112.54L47.4536 125H44.6136L49.9736 112.86H43.1336V110.46H52.7736V112.54ZM58.8563 118C58.8563 116.627 59.1629 115.4 59.7763 114.32C60.4029 113.227 61.2496 112.38 62.3163 111.78C63.3963 111.167 64.6029 110.86 65.9363 110.86C67.4963 110.86 68.8629 111.26 70.0363 112.06C71.2096 112.86 72.0296 113.967 72.4963 115.38H69.2763C68.9563 114.713 68.5029 114.213 67.9163 113.88C67.3429 113.547 66.6763 113.38 65.9163 113.38C65.1029 113.38 64.3763 113.573 63.7363 113.96C63.1096 114.333 62.6163 114.867 62.2563 115.56C61.9096 116.253 61.7363 117.067 61.7363 118C61.7363 118.92 61.9096 119.733 62.2563 120.44C62.6163 121.133 63.1096 121.673 63.7363 122.06C64.3763 122.433 65.1029 122.62 65.9163 122.62C66.6763 122.62 67.3429 122.453 67.9163 122.12C68.5029 121.773 68.9563 121.267 69.2763 120.6H72.4963C72.0296 122.027 71.2096 123.14 70.0363 123.94C68.8763 124.727 67.5096 125.12 65.9363 125.12C64.6029 125.12 63.3963 124.82 62.3163 124.22C61.2496 123.607 60.4029 122.76 59.7763 121.68C59.1629 120.6 58.8563 119.373 58.8563 118ZM77.6478 111.04V119.68C77.6478 120.627 77.8945 121.353 78.3878 121.86C78.8811 122.353 79.5745 122.6 80.4678 122.6C81.3745 122.6 82.0745 122.353 82.5678 121.86C83.0611 121.353 83.3078 120.627 83.3078 119.68V111.04H86.1278V119.66C86.1278 120.847 85.8678 121.853 85.3478 122.68C84.8411 123.493 84.1545 124.107 83.2878 124.52C82.4345 124.933 81.4811 125.14 80.4278 125.14C79.3878 125.14 78.4411 124.933 77.5878 124.52C76.7478 124.107 76.0811 123.493 75.5878 122.68C75.0945 121.853 74.8478 120.847 74.8478 119.66V111.04H77.6478ZM93.6531 125.14C92.6798 125.14 91.7998 124.973 91.0131 124.64C90.2398 124.307 89.6265 123.827 89.1731 123.2C88.7198 122.573 88.4865 121.833 88.4731 120.98H91.4731C91.5131 121.553 91.7131 122.007 92.0731 122.34C92.4465 122.673 92.9531 122.84 93.5931 122.84C94.2465 122.84 94.7598 122.687 95.1331 122.38C95.5065 122.06 95.6931 121.647 95.6931 121.14C95.6931 120.727 95.5665 120.387 95.3131 120.12C95.0598 119.853 94.7398 119.647 94.3531 119.5C93.9798 119.34 93.4598 119.167 92.7931 118.98C91.8865 118.713 91.1465 118.453 90.5731 118.2C90.0131 117.933 89.5265 117.54 89.1131 117.02C88.7131 116.487 88.5131 115.78 88.5131 114.9C88.5131 114.073 88.7198 113.353 89.1331 112.74C89.5465 112.127 90.1265 111.66 90.8731 111.34C91.6198 111.007 92.4731 110.84 93.4331 110.84C94.8731 110.84 96.0398 111.193 96.9331 111.9C97.8398 112.593 98.3398 113.567 98.4331 114.82H95.3531C95.3265 114.34 95.1198 113.947 94.7331 113.64C94.3598 113.32 93.8598 113.16 93.2331 113.16C92.6865 113.16 92.2465 113.3 91.9131 113.58C91.5931 113.86 91.4331 114.267 91.4331 114.8C91.4331 115.173 91.5531 115.487 91.7931 115.74C92.0465 115.98 92.3531 116.18 92.7131 116.34C93.0865 116.487 93.6065 116.66 94.2731 116.86C95.1798 117.127 95.9198 117.393 96.4931 117.66C97.0665 117.927 97.5598 118.327 97.9731 118.86C98.3865 119.393 98.5931 120.093 98.5931 120.96C98.5931 121.707 98.3998 122.4 98.0131 123.04C97.6265 123.68 97.0598 124.193 96.3131 124.58C95.5665 124.953 94.6798 125.14 93.6531 125.14ZM110.521 111.04V113.3H106.801V125H104.001V113.3H100.281V111.04H110.521ZM119.044 125.14C117.737 125.14 116.537 124.833 115.444 124.22C114.35 123.607 113.484 122.76 112.844 121.68C112.204 120.587 111.884 119.353 111.884 117.98C111.884 116.62 112.204 115.4 112.844 114.32C113.484 113.227 114.35 112.373 115.444 111.76C116.537 111.147 117.737 110.84 119.044 110.84C120.364 110.84 121.564 111.147 122.644 111.76C123.737 112.373 124.597 113.227 125.224 114.32C125.864 115.4 126.184 116.62 126.184 117.98C126.184 119.353 125.864 120.587 125.224 121.68C124.597 122.76 123.737 123.607 122.644 124.22C121.55 124.833 120.35 125.14 119.044 125.14ZM119.044 122.64C119.884 122.64 120.624 122.453 121.264 122.08C121.904 121.693 122.404 121.147 122.764 120.44C123.124 119.733 123.304 118.913 123.304 117.98C123.304 117.047 123.124 116.233 122.764 115.54C122.404 114.833 121.904 114.293 121.264 113.92C120.624 113.547 119.884 113.36 119.044 113.36C118.204 113.36 117.457 113.547 116.804 113.92C116.164 114.293 115.664 114.833 115.304 115.54C114.944 116.233 114.764 117.047 114.764 117.98C114.764 118.913 114.944 119.733 115.304 120.44C115.664 121.147 116.164 121.693 116.804 122.08C117.457 122.453 118.204 122.64 119.044 122.64ZM143.487 111.04V125H140.687V115.92L136.947 125H134.827L131.067 115.92V125H128.267V111.04H131.447L135.887 121.42L140.327 111.04H143.487ZM149.055 113.3V116.8H153.755V119.02H149.055V122.72H154.355V125H146.255V111.02H154.355V113.3H149.055ZM164.1 125L161.02 119.56H159.7V125H156.9V111.04H162.14C163.22 111.04 164.14 111.233 164.9 111.62C165.66 111.993 166.226 112.507 166.6 113.16C166.986 113.8 167.18 114.52 167.18 115.32C167.18 116.24 166.913 117.073 166.38 117.82C165.846 118.553 165.053 119.06 164 119.34L167.34 125H164.1ZM159.7 117.46H162.04C162.8 117.46 163.366 117.28 163.74 116.92C164.113 116.547 164.3 116.033 164.3 115.38C164.3 114.74 164.113 114.247 163.74 113.9C163.366 113.54 162.8 113.36 162.04 113.36H159.7V117.46ZM179.298 125.14C178.324 125.14 177.444 124.973 176.658 124.64C175.884 124.307 175.271 123.827 174.818 123.2C174.364 122.573 174.131 121.833 174.118 120.98H177.118C177.158 121.553 177.358 122.007 177.718 122.34C178.091 122.673 178.598 122.84 179.238 122.84C179.891 122.84 180.404 122.687 180.778 122.38C181.151 122.06 181.338 121.647 181.338 121.14C181.338 120.727 181.211 120.387 180.958 120.12C180.704 119.853 180.384 119.647 179.998 119.5C179.624 119.34 179.104 119.167 178.438 118.98C177.531 118.713 176.791 118.453 176.218 118.2C175.658 117.933 175.171 117.54 174.758 117.02C174.358 116.487 174.158 115.78 174.158 114.9C174.158 114.073 174.364 113.353 174.778 112.74C175.191 112.127 175.771 111.66 176.518 111.34C177.264 111.007 178.118 110.84 179.078 110.84C180.518 110.84 181.684 111.193 182.578 111.9C183.484 112.593 183.984 113.567 184.078 114.82H180.998C180.971 114.34 180.764 113.947 180.378 113.64C180.004 113.32 179.504 113.16 178.878 113.16C178.331 113.16 177.891 113.3 177.558 113.58C177.238 113.86 177.078 114.267 177.078 114.8C177.078 115.173 177.198 115.487 177.438 115.74C177.691 115.98 177.998 116.18 178.358 116.34C178.731 116.487 179.251 116.66 179.918 116.86C180.824 117.127 181.564 117.393 182.138 117.66C182.711 117.927 183.204 118.327 183.618 118.86C184.031 119.393 184.238 120.093 184.238 120.96C184.238 121.707 184.044 122.4 183.658 123.04C183.271 123.68 182.704 124.193 181.958 124.58C181.211 124.953 180.324 125.14 179.298 125.14ZM189.465 113.3V116.8H194.165V119.02H189.465V122.72H194.765V125H186.665V111.02H194.765V113.3H189.465ZM204.51 125L201.43 119.56H200.11V125H197.31V111.04H202.55C203.63 111.04 204.55 111.233 205.31 111.62C206.07 111.993 206.636 112.507 207.01 113.16C207.396 113.8 207.59 114.52 207.59 115.32C207.59 116.24 207.323 117.073 206.79 117.82C206.256 118.553 205.463 119.06 204.41 119.34L207.75 125H204.51ZM200.11 117.46H202.45C203.21 117.46 203.776 117.28 204.15 116.92C204.523 116.547 204.71 116.033 204.71 115.38C204.71 114.74 204.523 114.247 204.15 113.9C203.776 113.54 203.21 113.36 202.45 113.36H200.11V117.46ZM222.662 111.04L217.542 125H214.142L209.022 111.04H212.022L215.862 122.14L219.682 111.04H222.662ZM227.141 111.04V125H224.341V111.04H227.141ZM229.227 118C229.227 116.627 229.534 115.4 230.147 114.32C230.774 113.227 231.621 112.38 232.687 111.78C233.767 111.167 234.974 110.86 236.307 110.86C237.867 110.86 239.234 111.26 240.407 112.06C241.581 112.86 242.401 113.967 242.867 115.38H239.647C239.327 114.713 238.874 114.213 238.287 113.88C237.714 113.547 237.047 113.38 236.287 113.38C235.474 113.38 234.747 113.573 234.107 113.96C233.481 114.333 232.987 114.867 232.627 115.56C232.281 116.253 232.107 117.067 232.107 118C232.107 118.92 232.281 119.733 232.627 120.44C232.987 121.133 233.481 121.673 234.107 122.06C234.747 122.433 235.474 122.62 236.287 122.62C237.047 122.62 237.714 122.453 238.287 122.12C238.874 121.773 239.327 121.267 239.647 120.6H242.867C242.401 122.027 241.581 123.14 240.407 123.94C239.247 124.727 237.881 125.12 236.307 125.12C234.974 125.12 233.767 124.82 232.687 124.22C231.621 123.607 230.774 122.76 230.147 121.68C229.534 120.6 229.227 119.373 229.227 118ZM248.059 113.3V116.8H252.759V119.02H248.059V122.72H253.359V125H245.259V111.02H253.359V113.3H248.059Z" fill="black"/>
<path d="M28.594 145.242V146.278H24.352V149.568H27.796V150.604H24.352V155H23.078V145.242H28.594ZM31.4067 148.574C31.6307 148.135 31.948 147.795 32.3587 147.552C32.7787 147.309 33.2874 147.188 33.8847 147.188V148.504H33.5487C32.1207 148.504 31.4067 149.279 31.4067 150.828V155H30.1327V147.328H31.4067V148.574ZM36.0133 146.082C35.7707 146.082 35.5653 145.998 35.3973 145.83C35.2293 145.662 35.1453 145.457 35.1453 145.214C35.1453 144.971 35.2293 144.766 35.3973 144.598C35.5653 144.43 35.7707 144.346 36.0133 144.346C36.2467 144.346 36.4427 144.43 36.6013 144.598C36.7693 144.766 36.8533 144.971 36.8533 145.214C36.8533 145.457 36.7693 145.662 36.6013 145.83C36.4427 145.998 36.2467 146.082 36.0133 146.082ZM36.6293 147.328V155H35.3553V147.328H36.6293ZM45.8007 150.87C45.8007 151.113 45.7867 151.369 45.7587 151.64H39.6267C39.6733 152.396 39.93 152.989 40.3967 153.418C40.8727 153.838 41.4467 154.048 42.1187 154.048C42.6693 154.048 43.1267 153.922 43.4907 153.67C43.864 153.409 44.1253 153.063 44.2747 152.634H45.6467C45.4413 153.371 45.0307 153.973 44.4147 154.44C43.7987 154.897 43.0333 155.126 42.1187 155.126C41.3907 155.126 40.7373 154.963 40.1587 154.636C39.5893 154.309 39.1413 153.847 38.8147 153.25C38.488 152.643 38.3247 151.943 38.3247 151.15C38.3247 150.357 38.4833 149.661 38.8007 149.064C39.118 148.467 39.5613 148.009 40.1307 147.692C40.7093 147.365 41.372 147.202 42.1187 147.202C42.8467 147.202 43.4907 147.361 44.0507 147.678C44.6107 147.995 45.04 148.434 45.3387 148.994C45.6467 149.545 45.8007 150.17 45.8007 150.87ZM44.4847 150.604C44.4847 150.119 44.3773 149.703 44.1627 149.358C43.948 149.003 43.654 148.737 43.2807 148.56C42.9167 148.373 42.5107 148.28 42.0627 148.28C41.4187 148.28 40.868 148.485 40.4107 148.896C39.9627 149.307 39.706 149.876 39.6407 150.604H44.4847ZM51.2203 147.188C52.1536 147.188 52.9096 147.473 53.4883 148.042C54.067 148.602 54.3563 149.414 54.3563 150.478V155H53.0963V150.66C53.0963 149.895 52.905 149.311 52.5223 148.91C52.1396 148.499 51.617 148.294 50.9543 148.294C50.2823 148.294 49.7456 148.504 49.3443 148.924C48.9523 149.344 48.7563 149.955 48.7563 150.758V155H47.4823V147.328H48.7563V148.42C49.0083 148.028 49.349 147.725 49.7783 147.51C50.217 147.295 50.6976 147.188 51.2203 147.188ZM55.9614 151.136C55.9614 150.352 56.12 149.666 56.4374 149.078C56.7547 148.481 57.1887 148.019 57.7394 147.692C58.2994 147.365 58.9247 147.202 59.6154 147.202C60.2127 147.202 60.768 147.342 61.2814 147.622C61.7947 147.893 62.1867 148.252 62.4574 148.7V144.64H63.7454V155H62.4574V153.558C62.2054 154.015 61.832 154.393 61.3374 154.692C60.8427 154.981 60.264 155.126 59.6014 155.126C58.92 155.126 58.2994 154.958 57.7394 154.622C57.1887 154.286 56.7547 153.815 56.4374 153.208C56.12 152.601 55.9614 151.911 55.9614 151.136ZM62.4574 151.15C62.4574 150.571 62.3407 150.067 62.1074 149.638C61.874 149.209 61.5567 148.882 61.1554 148.658C60.7634 148.425 60.3294 148.308 59.8534 148.308C59.3774 148.308 58.9434 148.42 58.5514 148.644C58.1594 148.868 57.8467 149.195 57.6134 149.624C57.38 150.053 57.2634 150.557 57.2634 151.136C57.2634 151.724 57.38 152.237 57.6134 152.676C57.8467 153.105 58.1594 153.437 58.5514 153.67C58.9434 153.894 59.3774 154.006 59.8534 154.006C60.3294 154.006 60.7634 153.894 61.1554 153.67C61.5567 153.437 61.874 153.105 62.1074 152.676C62.3407 152.237 62.4574 151.729 62.4574 151.15ZM67.1723 144.64V155H65.8983V144.64H67.1723ZM75.9516 147.328L71.3316 158.612H70.0156L71.5276 154.916L68.4336 147.328H69.8476L72.2556 153.544L74.6356 147.328H75.9516ZM80.6007 153.978C81.7861 153.026 82.7147 152.247 83.3867 151.64C84.0587 151.024 84.6234 150.385 85.0807 149.722C85.5474 149.05 85.7807 148.392 85.7807 147.748C85.7807 147.141 85.6314 146.665 85.3327 146.32C85.0434 145.965 84.5721 145.788 83.9187 145.788C83.2841 145.788 82.7894 145.989 82.4347 146.39C82.0894 146.782 81.9027 147.309 81.8747 147.972H80.6427C80.6801 146.927 80.9974 146.119 81.5947 145.55C82.1921 144.981 82.9621 144.696 83.9047 144.696C84.8661 144.696 85.6267 144.962 86.1867 145.494C86.7561 146.026 87.0407 146.759 87.0407 147.692C87.0407 148.467 86.8074 149.223 86.3407 149.96C85.8834 150.688 85.3607 151.332 84.7727 151.892C84.1847 152.443 83.4334 153.087 82.5187 153.824H87.3347V154.888H80.6007V153.978ZM88.4995 152.746V151.78L93.4135 144.976H94.9395V151.64H96.3395V152.746H94.9395V155H93.6795V152.746H88.4995ZM93.7355 146.306L89.9695 151.64H93.7355V146.306ZM102.582 141.812L98.7461 157.38H97.4861L101.308 141.812H102.582ZM110.5 145.872L106.608 155H105.32L109.268 145.998H103.864V144.906H110.5V145.872ZM115.379 151.15C115.379 150.357 115.538 149.666 115.855 149.078C116.173 148.481 116.611 148.019 117.171 147.692C117.741 147.365 118.389 147.202 119.117 147.202C120.06 147.202 120.835 147.431 121.441 147.888C122.057 148.345 122.463 148.98 122.659 149.792H121.287C121.157 149.325 120.9 148.957 120.517 148.686C120.144 148.415 119.677 148.28 119.117 148.28C118.389 148.28 117.801 148.532 117.353 149.036C116.905 149.531 116.681 150.235 116.681 151.15C116.681 152.074 116.905 152.788 117.353 153.292C117.801 153.796 118.389 154.048 119.117 154.048C119.677 154.048 120.144 153.917 120.517 153.656C120.891 153.395 121.147 153.021 121.287 152.536H122.659C122.454 153.32 122.043 153.95 121.427 154.426C120.811 154.893 120.041 155.126 119.117 155.126C118.389 155.126 117.741 154.963 117.171 154.636C116.611 154.309 116.173 153.847 115.855 153.25C115.538 152.653 115.379 151.953 115.379 151.15ZM131.163 147.328V155H129.889V153.866C129.647 154.258 129.306 154.566 128.867 154.79C128.438 155.005 127.962 155.112 127.439 155.112C126.842 155.112 126.305 154.991 125.829 154.748C125.353 154.496 124.975 154.123 124.695 153.628C124.425 153.133 124.289 152.531 124.289 151.822V147.328H125.549V151.654C125.549 152.41 125.741 152.993 126.123 153.404C126.506 153.805 127.029 154.006 127.691 154.006C128.373 154.006 128.909 153.796 129.301 153.376C129.693 152.956 129.889 152.345 129.889 151.542V147.328H131.163ZM136.03 155.126C135.442 155.126 134.915 155.028 134.448 154.832C133.982 154.627 133.613 154.347 133.342 153.992C133.072 153.628 132.922 153.213 132.894 152.746H134.21C134.248 153.129 134.425 153.441 134.742 153.684C135.069 153.927 135.494 154.048 136.016 154.048C136.502 154.048 136.884 153.941 137.164 153.726C137.444 153.511 137.584 153.241 137.584 152.914C137.584 152.578 137.435 152.331 137.136 152.172C136.838 152.004 136.376 151.841 135.75 151.682C135.181 151.533 134.714 151.383 134.35 151.234C133.996 151.075 133.688 150.847 133.426 150.548C133.174 150.24 133.048 149.839 133.048 149.344C133.048 148.952 133.165 148.593 133.398 148.266C133.632 147.939 133.963 147.683 134.392 147.496C134.822 147.3 135.312 147.202 135.862 147.202C136.712 147.202 137.398 147.417 137.92 147.846C138.443 148.275 138.723 148.863 138.76 149.61H137.486C137.458 149.209 137.295 148.887 136.996 148.644C136.707 148.401 136.315 148.28 135.82 148.28C135.363 148.28 134.999 148.378 134.728 148.574C134.458 148.77 134.322 149.027 134.322 149.344C134.322 149.596 134.402 149.806 134.56 149.974C134.728 150.133 134.934 150.263 135.176 150.366C135.428 150.459 135.774 150.567 136.212 150.688C136.763 150.837 137.211 150.987 137.556 151.136C137.902 151.276 138.196 151.491 138.438 151.78C138.69 152.069 138.821 152.447 138.83 152.914C138.83 153.334 138.714 153.712 138.48 154.048C138.247 154.384 137.916 154.65 137.486 154.846C137.066 155.033 136.581 155.126 136.03 155.126ZM142.183 148.378V152.9C142.183 153.273 142.262 153.539 142.421 153.698C142.579 153.847 142.855 153.922 143.247 153.922H144.185V155H143.037C142.327 155 141.795 154.837 141.441 154.51C141.086 154.183 140.909 153.647 140.909 152.9V148.378H139.915V147.328H140.909V145.396H142.183V147.328H144.185V148.378H142.183ZM149.074 155.126C148.356 155.126 147.702 154.963 147.114 154.636C146.536 154.309 146.078 153.847 145.742 153.25C145.416 152.643 145.252 151.943 145.252 151.15C145.252 150.366 145.42 149.675 145.756 149.078C146.102 148.471 146.568 148.009 147.156 147.692C147.744 147.365 148.402 147.202 149.13 147.202C149.858 147.202 150.516 147.365 151.104 147.692C151.692 148.009 152.154 148.467 152.49 149.064C152.836 149.661 153.008 150.357 153.008 151.15C153.008 151.943 152.831 152.643 152.476 153.25C152.131 153.847 151.66 154.309 151.062 154.636C150.465 154.963 149.802 155.126 149.074 155.126ZM149.074 154.006C149.532 154.006 149.961 153.899 150.362 153.684C150.764 153.469 151.086 153.147 151.328 152.718C151.58 152.289 151.706 151.766 151.706 151.15C151.706 150.534 151.585 150.011 151.342 149.582C151.1 149.153 150.782 148.835 150.39 148.63C149.998 148.415 149.574 148.308 149.116 148.308C148.65 148.308 148.22 148.415 147.828 148.63C147.446 148.835 147.138 149.153 146.904 149.582C146.671 150.011 146.554 150.534 146.554 151.15C146.554 151.775 146.666 152.303 146.89 152.732C147.124 153.161 147.432 153.483 147.814 153.698C148.197 153.903 148.617 154.006 149.074 154.006ZM163.909 147.188C164.507 147.188 165.039 147.314 165.505 147.566C165.972 147.809 166.341 148.177 166.611 148.672C166.882 149.167 167.017 149.769 167.017 150.478V155H165.757V150.66C165.757 149.895 165.566 149.311 165.183 148.91C164.81 148.499 164.301 148.294 163.657 148.294C162.995 148.294 162.467 148.509 162.075 148.938C161.683 149.358 161.487 149.969 161.487 150.772V155H160.227V150.66C160.227 149.895 160.036 149.311 159.653 148.91C159.28 148.499 158.771 148.294 158.127 148.294C157.465 148.294 156.937 148.509 156.545 148.938C156.153 149.358 155.957 149.969 155.957 150.772V155H154.683V147.328H155.957V148.434C156.209 148.033 156.545 147.725 156.965 147.51C157.395 147.295 157.866 147.188 158.379 147.188C159.023 147.188 159.593 147.333 160.087 147.622C160.582 147.911 160.951 148.336 161.193 148.896C161.408 148.355 161.763 147.935 162.257 147.636C162.752 147.337 163.303 147.188 163.909 147.188ZM176.107 150.87C176.107 151.113 176.093 151.369 176.065 151.64H169.933C169.98 152.396 170.237 152.989 170.703 153.418C171.179 153.838 171.753 154.048 172.425 154.048C172.976 154.048 173.433 153.922 173.797 153.67C174.171 153.409 174.432 153.063 174.581 152.634H175.953C175.748 153.371 175.337 153.973 174.721 154.44C174.105 154.897 173.34 155.126 172.425 155.126C171.697 155.126 171.044 154.963 170.465 154.636C169.896 154.309 169.448 153.847 169.121 153.25C168.795 152.643 168.631 151.943 168.631 151.15C168.631 150.357 168.79 149.661 169.107 149.064C169.425 148.467 169.868 148.009 170.437 147.692C171.016 147.365 171.679 147.202 172.425 147.202C173.153 147.202 173.797 147.361 174.357 147.678C174.917 147.995 175.347 148.434 175.645 148.994C175.953 149.545 176.107 150.17 176.107 150.87ZM174.791 150.604C174.791 150.119 174.684 149.703 174.469 149.358C174.255 149.003 173.961 148.737 173.587 148.56C173.223 148.373 172.817 148.28 172.369 148.28C171.725 148.28 171.175 148.485 170.717 148.896C170.269 149.307 170.013 149.876 169.947 150.604H174.791ZM179.063 148.574C179.287 148.135 179.604 147.795 180.015 147.552C180.435 147.309 180.944 147.188 181.541 147.188V148.504H181.205C179.777 148.504 179.063 149.279 179.063 150.828V155H177.789V147.328H179.063V148.574ZM189.46 155.126C188.872 155.126 188.345 155.028 187.878 154.832C187.411 154.627 187.043 154.347 186.772 153.992C186.501 153.628 186.352 153.213 186.324 152.746H187.64C187.677 153.129 187.855 153.441 188.172 153.684C188.499 153.927 188.923 154.048 189.446 154.048C189.931 154.048 190.314 153.941 190.594 153.726C190.874 153.511 191.014 153.241 191.014 152.914C191.014 152.578 190.865 152.331 190.566 152.172C190.267 152.004 189.805 151.841 189.18 151.682C188.611 151.533 188.144 151.383 187.78 151.234C187.425 151.075 187.117 150.847 186.856 150.548C186.604 150.24 186.478 149.839 186.478 149.344C186.478 148.952 186.595 148.593 186.828 148.266C187.061 147.939 187.393 147.683 187.822 147.496C188.251 147.3 188.741 147.202 189.292 147.202C190.141 147.202 190.827 147.417 191.35 147.846C191.873 148.275 192.153 148.863 192.19 149.61H190.916C190.888 149.209 190.725 148.887 190.426 148.644C190.137 148.401 189.745 148.28 189.25 148.28C188.793 148.28 188.429 148.378 188.158 148.574C187.887 148.77 187.752 149.027 187.752 149.344C187.752 149.596 187.831 149.806 187.99 149.974C188.158 150.133 188.363 150.263 188.606 150.366C188.858 150.459 189.203 150.567 189.642 150.688C190.193 150.837 190.641 150.987 190.986 151.136C191.331 151.276 191.625 151.491 191.868 151.78C192.12 152.069 192.251 152.447 192.26 152.914C192.26 153.334 192.143 153.712 191.91 154.048C191.677 154.384 191.345 154.65 190.916 154.846C190.496 155.033 190.011 155.126 189.46 155.126ZM200.862 147.328V155H199.588V153.866C199.346 154.258 199.005 154.566 198.566 154.79C198.137 155.005 197.661 155.112 197.138 155.112C196.541 155.112 196.004 154.991 195.528 154.748C195.052 154.496 194.674 154.123 194.394 153.628C194.124 153.133 193.988 152.531 193.988 151.822V147.328H195.248V151.654C195.248 152.41 195.44 152.993 195.822 153.404C196.205 153.805 196.728 154.006 197.39 154.006C198.072 154.006 198.608 153.796 199 153.376C199.392 152.956 199.588 152.345 199.588 151.542V147.328H200.862ZM204.288 148.742C204.54 148.303 204.913 147.939 205.408 147.65C205.912 147.351 206.495 147.202 207.158 147.202C207.839 147.202 208.455 147.365 209.006 147.692C209.566 148.019 210.004 148.481 210.322 149.078C210.639 149.666 210.798 150.352 210.798 151.136C210.798 151.911 210.639 152.601 210.322 153.208C210.004 153.815 209.566 154.286 209.006 154.622C208.455 154.958 207.839 155.126 207.158 155.126C206.504 155.126 205.926 154.981 205.422 154.692C204.927 154.393 204.549 154.025 204.288 153.586V158.64H203.014V147.328H204.288V148.742ZM209.496 151.136C209.496 150.557 209.379 150.053 209.146 149.624C208.912 149.195 208.595 148.868 208.194 148.644C207.802 148.42 207.368 148.308 206.892 148.308C206.425 148.308 205.991 148.425 205.59 148.658C205.198 148.882 204.88 149.213 204.638 149.652C204.404 150.081 204.288 150.581 204.288 151.15C204.288 151.729 204.404 152.237 204.638 152.676C204.88 153.105 205.198 153.437 205.59 153.67C205.991 153.894 206.425 154.006 206.892 154.006C207.368 154.006 207.802 153.894 208.194 153.67C208.595 153.437 208.912 153.105 209.146 152.676C209.379 152.237 209.496 151.724 209.496 151.136ZM213.748 148.742C214 148.303 214.374 147.939 214.868 147.65C215.372 147.351 215.956 147.202 216.618 147.202C217.3 147.202 217.916 147.365 218.466 147.692C219.026 148.019 219.465 148.481 219.782 149.078C220.1 149.666 220.258 150.352 220.258 151.136C220.258 151.911 220.1 152.601 219.782 153.208C219.465 153.815 219.026 154.286 218.466 154.622C217.916 154.958 217.3 155.126 216.618 155.126C215.965 155.126 215.386 154.981 214.882 154.692C214.388 154.393 214.01 154.025 213.748 153.586V158.64H212.474V147.328H213.748V148.742ZM218.956 151.136C218.956 150.557 218.84 150.053 218.606 149.624C218.373 149.195 218.056 148.868 217.654 148.644C217.262 148.42 216.828 148.308 216.352 148.308C215.886 148.308 215.452 148.425 215.05 148.658C214.658 148.882 214.341 149.213 214.098 149.652C213.865 150.081 213.748 150.581 213.748 151.15C213.748 151.729 213.865 152.237 214.098 152.676C214.341 153.105 214.658 153.437 215.05 153.67C215.452 153.894 215.886 154.006 216.352 154.006C216.828 154.006 217.262 153.894 217.654 153.67C218.056 153.437 218.373 153.105 218.606 152.676C218.84 152.237 218.956 151.724 218.956 151.136ZM225.281 155.126C224.563 155.126 223.909 154.963 223.321 154.636C222.743 154.309 222.285 153.847 221.949 153.25C221.623 152.643 221.459 151.943 221.459 151.15C221.459 150.366 221.627 149.675 221.963 149.078C222.309 148.471 222.775 148.009 223.363 147.692C223.951 147.365 224.609 147.202 225.337 147.202C226.065 147.202 226.723 147.365 227.311 147.692C227.899 148.009 228.361 148.467 228.697 149.064C229.043 149.661 229.215 150.357 229.215 151.15C229.215 151.943 229.038 152.643 228.683 153.25C228.338 153.847 227.867 154.309 227.269 154.636C226.672 154.963 226.009 155.126 225.281 155.126ZM225.281 154.006C225.739 154.006 226.168 153.899 226.569 153.684C226.971 153.469 227.293 153.147 227.535 152.718C227.787 152.289 227.913 151.766 227.913 151.15C227.913 150.534 227.792 150.011 227.549 149.582C227.307 149.153 226.989 148.835 226.597 148.63C226.205 148.415 225.781 148.308 225.323 148.308C224.857 148.308 224.427 148.415 224.035 148.63C223.653 148.835 223.345 149.153 223.111 149.582C222.878 150.011 222.761 150.534 222.761 151.15C222.761 151.775 222.873 152.303 223.097 152.732C223.331 153.161 223.639 153.483 224.021 153.698C224.404 153.903 224.824 154.006 225.281 154.006ZM232.165 148.574C232.389 148.135 232.706 147.795 233.117 147.552C233.537 147.309 234.045 147.188 234.643 147.188V148.504H234.307C232.879 148.504 232.165 149.279 232.165 150.828V155H230.891V147.328H232.165V148.574ZM237.667 148.378V152.9C237.667 153.273 237.746 153.539 237.905 153.698C238.064 153.847 238.339 153.922 238.731 153.922H239.669V155H238.521C237.812 155 237.28 154.837 236.925 154.51C236.57 154.183 236.393 153.647 236.393 152.9V148.378H235.399V147.328H236.393V145.396H237.667V147.328H239.669V148.378H237.667Z" fill="black"/>
<defs>
<clipPath id="clip0_542_2349">
<rect width="40" height="40" fill="white" transform="translate(111.5 20)"/>
</clipPath>
</defs>
</svg>
