<svg width="216" height="108" viewBox="0 0 216 108" fill="none" xmlns="http://www.w3.org/2000/svg">
<rect width="20" height="40" rx="4" fill="#DB4444"/>
<path d="M44 14.832V16.64H39.344V19.504H42.912V21.28H39.344V26H37.104V14.832H44ZM53.8284 21.376C53.8284 21.696 53.807 21.984 53.7644 22.24H47.2844C47.3377 22.88 47.5617 23.3813 47.9564 23.744C48.351 24.1067 48.8364 24.288 49.4124 24.288C50.2444 24.288 50.8364 23.9307 51.1884 23.216H53.6044C53.3484 24.0693 52.8577 24.7733 52.1324 25.328C51.407 25.872 50.5164 26.144 49.4604 26.144C48.607 26.144 47.839 25.9573 47.1564 25.584C46.4844 25.2 45.9564 24.6613 45.5724 23.968C45.199 23.2747 45.0124 22.4747 45.0124 21.568C45.0124 20.6507 45.199 19.8453 45.5724 19.152C45.9457 18.4587 46.4684 17.9253 47.1404 17.552C47.8124 17.1787 48.5857 16.992 49.4604 16.992C50.303 16.992 51.055 17.1733 51.7164 17.536C52.3884 17.8987 52.9057 18.416 53.2684 19.088C53.6417 19.7493 53.8284 20.512 53.8284 21.376ZM51.5084 20.736C51.4977 20.16 51.2897 19.7013 50.8844 19.36C50.479 19.008 49.983 18.832 49.3964 18.832C48.8417 18.832 48.3724 19.0027 47.9884 19.344C47.615 19.6747 47.3857 20.1387 47.3004 20.736H51.5084ZM54.8874 21.536C54.8874 20.64 55.0634 19.8453 55.4154 19.152C55.778 18.4587 56.2634 17.9253 56.8714 17.552C57.49 17.1787 58.178 16.992 58.9354 16.992C59.5967 16.992 60.1727 17.1253 60.6634 17.392C61.1647 17.6587 61.5647 17.9947 61.8634 18.4V17.136H64.1194V26H61.8634V24.704C61.5754 25.12 61.1754 25.4667 60.6634 25.744C60.162 26.0107 59.5807 26.144 58.9194 26.144C58.1727 26.144 57.49 25.952 56.8714 25.568C56.2634 25.184 55.778 24.6453 55.4154 23.952C55.0634 23.248 54.8874 22.4427 54.8874 21.536ZM61.8634 21.568C61.8634 21.024 61.7567 20.56 61.5434 20.176C61.33 19.7813 61.042 19.4827 60.6794 19.28C60.3167 19.0667 59.9274 18.96 59.5114 18.96C59.0954 18.96 58.7114 19.0613 58.3594 19.264C58.0074 19.4667 57.7194 19.7653 57.4954 20.16C57.282 20.544 57.1754 21.0027 57.1754 21.536C57.1754 22.0693 57.282 22.5387 57.4954 22.944C57.7194 23.3387 58.0074 23.6427 58.3594 23.856C58.722 24.0693 59.106 24.176 59.5114 24.176C59.9274 24.176 60.3167 24.0747 60.6794 23.872C61.042 23.6587 61.33 23.36 61.5434 22.976C61.7567 22.5813 61.8634 22.112 61.8634 21.568ZM68.9151 18.976V23.264C68.9151 23.5627 68.9845 23.7813 69.1231 23.92C69.2725 24.048 69.5178 24.112 69.8591 24.112H70.8991V26H69.4911C67.6031 26 66.6591 25.0827 66.6591 23.248V18.976H65.6031V17.136H66.6591V14.944H68.9151V17.136H70.8991V18.976H68.9151ZM80.8783 17.136V26H78.6223V24.88C78.3343 25.264 77.9556 25.568 77.4863 25.792C77.0276 26.0053 76.5263 26.112 75.9823 26.112C75.2889 26.112 74.6756 25.968 74.1423 25.68C73.6089 25.3813 73.1876 24.9493 72.8783 24.384C72.5796 23.808 72.4303 23.1253 72.4303 22.336V17.136H74.6703V22.016C74.6703 22.72 74.8463 23.264 75.1983 23.648C75.5503 24.0213 76.0303 24.208 76.6383 24.208C77.2569 24.208 77.7423 24.0213 78.0943 23.648C78.4463 23.264 78.6223 22.72 78.6223 22.016V17.136H80.8783ZM85.3284 18.512C85.6164 18.0427 85.9897 17.6747 86.4484 17.408C86.9177 17.1413 87.451 17.008 88.0484 17.008V19.36H87.4564C86.7524 19.36 86.219 19.5253 85.8564 19.856C85.5044 20.1867 85.3284 20.7627 85.3284 21.584V26H83.0884V17.136H85.3284V18.512ZM97.7971 21.376C97.7971 21.696 97.7758 21.984 97.7331 22.24H91.2531C91.3065 22.88 91.5305 23.3813 91.9251 23.744C92.3198 24.1067 92.8051 24.288 93.3811 24.288C94.2131 24.288 94.8051 23.9307 95.1571 23.216H97.5731C97.3171 24.0693 96.8265 24.7733 96.1011 25.328C95.3758 25.872 94.4851 26.144 93.4291 26.144C92.5758 26.144 91.8078 25.9573 91.1251 25.584C90.4531 25.2 89.9251 24.6613 89.5411 23.968C89.1678 23.2747 88.9811 22.4747 88.9811 21.568C88.9811 20.6507 89.1678 19.8453 89.5411 19.152C89.9145 18.4587 90.4371 17.9253 91.1091 17.552C91.7811 17.1787 92.5545 16.992 93.4291 16.992C94.2718 16.992 95.0238 17.1733 95.6851 17.536C96.3571 17.8987 96.8745 18.416 97.2371 19.088C97.6105 19.7493 97.7971 20.512 97.7971 21.376ZM95.4771 20.736C95.4665 20.16 95.2585 19.7013 94.8531 19.36C94.4478 19.008 93.9518 18.832 93.3651 18.832C92.8105 18.832 92.3411 19.0027 91.9571 19.344C91.5838 19.6747 91.3545 20.1387 91.2691 20.736H95.4771ZM98.8561 21.536C98.8561 20.64 99.0321 19.8453 99.3841 19.152C99.7468 18.4587 100.237 17.9253 100.856 17.552C101.475 17.1787 102.163 16.992 102.92 16.992C103.496 16.992 104.045 17.12 104.568 17.376C105.091 17.6213 105.507 17.952 105.816 18.368V14.16H108.088V26H105.816V24.688C105.539 25.1253 105.149 25.4773 104.648 25.744C104.147 26.0107 103.565 26.144 102.904 26.144C102.157 26.144 101.475 25.952 100.856 25.568C100.237 25.184 99.7468 24.6453 99.3841 23.952C99.0321 23.248 98.8561 22.4427 98.8561 21.536ZM105.832 21.568C105.832 21.024 105.725 20.56 105.512 20.176C105.299 19.7813 105.011 19.4827 104.648 19.28C104.285 19.0667 103.896 18.96 103.48 18.96C103.064 18.96 102.68 19.0613 102.328 19.264C101.976 19.4667 101.688 19.7653 101.464 20.16C101.251 20.544 101.144 21.0027 101.144 21.536C101.144 22.0693 101.251 22.5387 101.464 22.944C101.688 23.3387 101.976 23.6427 102.328 23.856C102.691 24.0693 103.075 24.176 103.48 24.176C103.896 24.176 104.285 24.0747 104.648 23.872C105.011 23.6587 105.299 23.36 105.512 22.976C105.725 22.5813 105.832 22.112 105.832 21.568Z" fill="#DB4444"/>
<path d="M24.098 70.8182V97H19.8793L7.54261 79.1662H7.32528V97H2.58239V70.8182H6.8267L19.1506 88.6648H19.3807V70.8182H24.098ZM39.1946 97.3835C37.2259 97.3835 35.5256 96.9744 34.0938 96.1562C32.6705 95.3295 31.5753 94.1619 30.8083 92.6534C30.0412 91.1364 29.6577 89.3509 29.6577 87.2969C29.6577 85.277 30.0412 83.5043 30.8083 81.9787C31.5838 80.4446 32.6662 79.2514 34.0554 78.3991C35.4446 77.5384 37.0767 77.108 38.9517 77.108C40.1619 77.108 41.304 77.304 42.3779 77.696C43.4602 78.0795 44.4148 78.6761 45.2415 79.4858C46.0767 80.2955 46.733 81.3267 47.2102 82.5795C47.6875 83.8239 47.9262 85.3068 47.9262 87.0284V88.4474H31.831V85.3281H43.4901C43.4815 84.4418 43.2898 83.6534 42.9148 82.9631C42.5398 82.2642 42.0156 81.7145 41.3423 81.3139C40.6776 80.9134 39.902 80.7131 39.0156 80.7131C38.0696 80.7131 37.2387 80.9432 36.5227 81.4034C35.8068 81.8551 35.2486 82.4517 34.848 83.1932C34.456 83.9261 34.2557 84.7315 34.2472 85.6094V88.3324C34.2472 89.4744 34.456 90.4545 34.8736 91.2727C35.2912 92.0824 35.875 92.7045 36.625 93.1392C37.375 93.5653 38.2529 93.7784 39.2585 93.7784C39.9318 93.7784 40.5412 93.6847 41.0867 93.4972C41.6321 93.3011 42.1051 93.0156 42.5057 92.6406C42.9063 92.2656 43.2088 91.8011 43.4134 91.2472L47.7344 91.733C47.4617 92.875 46.9418 93.8722 46.1747 94.7244C45.4162 95.5682 44.4446 96.2244 43.26 96.6932C42.0753 97.1534 40.7202 97.3835 39.1946 97.3835ZM57.2284 97L51.6801 77.3636H56.3974L59.8491 91.1705H60.0281L63.5565 77.3636H68.2227L71.7511 91.0938H71.9429L75.3434 77.3636H80.0735L74.5125 97H69.6929L66.011 83.7301H65.7426L62.0608 97H57.2284ZM98.6812 97H93.6187L102.836 70.8182H108.691L117.921 97H112.859L105.866 76.1875H105.661L98.6812 97ZM98.8474 86.7344H112.654V90.544H98.8474V86.7344ZM122.605 97V77.3636H127.092V80.6364H127.297C127.655 79.5028 128.269 78.6293 129.138 78.0156C130.016 77.3935 131.017 77.0824 132.142 77.0824C132.398 77.0824 132.683 77.0952 132.999 77.1207C133.323 77.1378 133.591 77.1676 133.804 77.2102V81.4673C133.608 81.3991 133.297 81.3395 132.871 81.2884C132.453 81.2287 132.048 81.1989 131.656 81.1989C130.813 81.1989 130.054 81.3821 129.381 81.7486C128.716 82.1065 128.192 82.6051 127.808 83.2443C127.425 83.8835 127.233 84.6207 127.233 85.456V97H122.605ZM138.319 97V77.3636H142.806V80.6364H143.01C143.368 79.5028 143.982 78.6293 144.851 78.0156C145.729 77.3935 146.731 77.0824 147.856 77.0824C148.111 77.0824 148.397 77.0952 148.712 77.1207C149.036 77.1378 149.304 77.1676 149.517 77.2102V81.4673C149.321 81.3991 149.01 81.3395 148.584 81.2884C148.167 81.2287 147.762 81.1989 147.37 81.1989C146.526 81.1989 145.767 81.3821 145.094 81.7486C144.429 82.1065 143.905 82.6051 143.522 83.2443C143.138 83.8835 142.946 84.6207 142.946 85.456V97H138.319ZM154.032 97V77.3636H158.66V97H154.032ZM156.359 74.5767C155.626 74.5767 154.995 74.3338 154.467 73.848C153.938 73.3537 153.674 72.7614 153.674 72.071C153.674 71.3722 153.938 70.7798 154.467 70.294C154.995 69.7997 155.626 69.5526 156.359 69.5526C157.1 69.5526 157.731 69.7997 158.251 70.294C158.779 70.7798 159.043 71.3722 159.043 72.071C159.043 72.7614 158.779 73.3537 158.251 73.848C157.731 74.3338 157.1 74.5767 156.359 74.5767ZM182.399 77.3636L175.406 97H170.292L163.299 77.3636H168.234L172.747 91.9503H172.951L177.477 77.3636H182.399ZM192.129 97.3963C190.885 97.3963 189.764 97.1747 188.767 96.7315C187.778 96.2798 186.994 95.6151 186.415 94.7372C185.844 93.8594 185.558 92.777 185.558 91.4901C185.558 90.3821 185.763 89.4659 186.172 88.7415C186.581 88.017 187.139 87.4375 187.846 87.0028C188.554 86.5682 189.351 86.2401 190.237 86.0185C191.132 85.7884 192.057 85.6222 193.011 85.5199C194.162 85.4006 195.095 85.294 195.811 85.2003C196.527 85.098 197.047 84.9446 197.371 84.7401C197.703 84.527 197.869 84.1989 197.869 83.7557V83.679C197.869 82.7159 197.584 81.9702 197.013 81.4418C196.442 80.9134 195.619 80.6491 194.545 80.6491C193.412 80.6491 192.513 80.8963 191.848 81.3906C191.192 81.8849 190.748 82.4687 190.518 83.142L186.197 82.5284C186.538 81.3352 187.101 80.3381 187.885 79.5369C188.669 78.7273 189.628 78.1222 190.761 77.7216C191.895 77.3125 193.148 77.108 194.52 77.108C195.466 77.108 196.407 77.2188 197.345 77.4403C198.282 77.6619 199.139 78.0284 199.915 78.5398C200.69 79.0426 201.312 79.7287 201.781 80.598C202.258 81.4673 202.497 82.554 202.497 83.858V97H198.048V94.3026H197.895C197.613 94.848 197.217 95.3594 196.706 95.8366C196.203 96.3054 195.568 96.6847 194.801 96.9744C194.042 97.2557 193.152 97.3963 192.129 97.3963ZM193.331 93.9957C194.26 93.9957 195.065 93.8125 195.747 93.446C196.429 93.071 196.953 92.5767 197.319 91.9631C197.694 91.3494 197.882 90.6804 197.882 89.956V87.642C197.737 87.7614 197.49 87.8722 197.14 87.9744C196.799 88.0767 196.416 88.1662 195.99 88.2429C195.564 88.3196 195.142 88.3878 194.724 88.4474C194.307 88.5071 193.944 88.5582 193.638 88.6009C192.947 88.6946 192.329 88.848 191.784 89.0611C191.238 89.2741 190.808 89.5724 190.493 89.956C190.177 90.331 190.02 90.8168 190.02 91.4134C190.02 92.2656 190.331 92.9091 190.953 93.3438C191.575 93.7784 192.368 93.9957 193.331 93.9957ZM213.218 70.8182V97H208.59V70.8182H213.218Z" fill="black"/>
</svg>
