<svg width="257" height="161" viewBox="0 0 257 161" fill="none" xmlns="http://www.w3.org/2000/svg">
<path opacity="0.3" d="M168.5 40C168.5 62.0914 150.591 80 128.5 80C106.409 80 88.5 62.0914 88.5 40C88.5 17.9086 106.409 0 128.5 0C150.591 0 168.5 17.9086 168.5 40ZM99.4071 40C99.4071 56.0675 112.432 69.0929 128.5 69.0929C144.568 69.0929 157.593 56.0675 157.593 40C157.593 23.9325 144.568 10.9071 128.5 10.9071C112.432 10.9071 99.4071 23.9325 99.4071 40Z" fill="#2F2E30"/>
<circle cx="128.5" cy="40" r="29" fill="black"/>
<path d="M116.599 50.5994L116.599 50.5992C115.726 49.9485 114.925 48.9207 114.343 47.7591C113.76 46.5974 113.417 45.3452 113.417 44.2667V31.8667C113.417 29.5075 115.171 26.9619 117.391 26.1353L117.392 26.1349L125.708 23.0184C125.708 23.0184 125.708 23.0183 125.708 23.0183C126.462 22.7367 127.461 22.5875 128.483 22.5875C129.505 22.5875 130.504 22.7367 131.258 23.0183C131.258 23.0183 131.258 23.0184 131.258 23.0184L139.574 26.1349L139.575 26.1353C141.795 26.9619 143.55 29.5075 143.55 31.8667V44.25C143.55 45.3372 143.206 46.5893 142.624 47.7484C142.041 48.9074 141.241 49.9314 140.368 50.5825L140.367 50.5827L133.201 55.9327L133.201 55.9326L133.195 55.9374C131.912 56.9265 130.224 57.4334 128.5 57.4334C126.777 57.4334 125.085 56.9271 123.765 55.9487C123.765 55.9486 123.764 55.9484 123.764 55.9483L116.599 50.5994ZM126.242 24.4316L126.241 24.4318L117.924 27.5485L117.924 27.5488C117.096 27.8603 116.355 28.5226 115.824 29.2907C115.293 30.0591 114.933 30.9899 114.933 31.8834V44.2667C114.933 45.1612 115.244 46.1893 115.701 47.1011C116.158 48.0127 116.793 48.8723 117.501 49.4007L117.501 49.4007L124.667 54.7504C125.729 55.5446 127.128 55.925 128.502 55.925C129.876 55.925 131.278 55.5446 132.348 54.7517L132.349 54.7507L139.516 49.4007L139.517 49.4C140.231 48.864 140.867 48.0051 141.322 47.0945C141.777 46.1838 142.083 45.1601 142.083 44.2667V31.8667C142.083 30.9805 141.723 30.0539 141.192 29.2866C140.662 28.519 139.922 27.8541 139.097 27.5339L139.097 27.5339L139.092 27.5318L130.775 24.4152L130.775 24.4151L130.766 24.4119C130.128 24.1866 129.3 24.0833 128.501 24.0854C127.702 24.0876 126.875 24.1953 126.242 24.4316Z" fill="#FAFAFA" stroke="#FAFAFA"/>
<path d="M125.913 41.0536L126.267 41.4071L126.62 41.0536L132.903 34.7703C133.192 34.4822 133.675 34.4822 133.963 34.7703C134.251 35.0583 134.251 35.5417 133.963 35.8298L126.796 42.9965C126.645 43.1478 126.458 43.2167 126.267 43.2167C126.075 43.2167 125.888 43.1478 125.737 42.9965L123.053 40.3131C122.765 40.0251 122.765 39.5417 123.053 39.2536C123.342 38.9655 123.825 38.9655 124.113 39.2536L125.913 41.0536Z" fill="#FAFAFA" stroke="#FAFAFA"/>
<path d="M17.1 111.04V125H14.3V115.92L10.56 125H8.44L4.68 115.92V125H1.88V111.04H5.06L9.5 121.42L13.94 111.04H17.1ZM26.3483 125.14C25.0416 125.14 23.8416 124.833 22.7483 124.22C21.6549 123.607 20.7883 122.76 20.1483 121.68C19.5083 120.587 19.1883 119.353 19.1883 117.98C19.1883 116.62 19.5083 115.4 20.1483 114.32C20.7883 113.227 21.6549 112.373 22.7483 111.76C23.8416 111.147 25.0416 110.84 26.3483 110.84C27.6683 110.84 28.8683 111.147 29.9483 111.76C31.0416 112.373 31.9016 113.227 32.5283 114.32C33.1683 115.4 33.4883 116.62 33.4883 117.98C33.4883 119.353 33.1683 120.587 32.5283 121.68C31.9016 122.76 31.0416 123.607 29.9483 124.22C28.8549 124.833 27.6549 125.14 26.3483 125.14ZM26.3483 122.64C27.1883 122.64 27.9283 122.453 28.5683 122.08C29.2083 121.693 29.7083 121.147 30.0683 120.44C30.4283 119.733 30.6083 118.913 30.6083 117.98C30.6083 117.047 30.4283 116.233 30.0683 115.54C29.7083 114.833 29.2083 114.293 28.5683 113.92C27.9283 113.547 27.1883 113.36 26.3483 113.36C25.5083 113.36 24.7616 113.547 24.1083 113.92C23.4683 114.293 22.9683 114.833 22.6083 115.54C22.2483 116.233 22.0683 117.047 22.0683 117.98C22.0683 118.913 22.2483 119.733 22.6083 120.44C22.9683 121.147 23.4683 121.693 24.1083 122.08C24.7616 122.453 25.5083 122.64 26.3483 122.64ZM47.5114 125H44.7114L38.3714 115.42V125H35.5714V111.02H38.3714L44.7114 120.62V111.02H47.5114V125ZM53.0784 113.3V116.8H57.7784V119.02H53.0784V122.72H58.3784V125H50.2784V111.02H58.3784V113.3H53.0784ZM72.023 111.04L67.303 120.14V125H64.503V120.14L59.763 111.04H62.923L65.923 117.42L68.903 111.04H72.023ZM86.3234 117.84C87.1101 117.987 87.7568 118.38 88.2634 119.02C88.7701 119.66 89.0234 120.393 89.0234 121.22C89.0234 121.967 88.8368 122.627 88.4634 123.2C88.1034 123.76 87.5768 124.2 86.8834 124.52C86.1901 124.84 85.3701 125 84.4234 125H78.4034V111.04H84.1634C85.1101 111.04 85.9234 111.193 86.6034 111.5C87.2968 111.807 87.8168 112.233 88.1634 112.78C88.5234 113.327 88.7034 113.947 88.7034 114.64C88.7034 115.453 88.4834 116.133 88.0434 116.68C87.6168 117.227 87.0434 117.613 86.3234 117.84ZM81.2034 116.8H83.7634C84.4301 116.8 84.9434 116.653 85.3034 116.36C85.6634 116.053 85.8434 115.62 85.8434 115.06C85.8434 114.5 85.6634 114.067 85.3034 113.76C84.9434 113.453 84.4301 113.3 83.7634 113.3H81.2034V116.8ZM84.0234 122.72C84.7034 122.72 85.2301 122.56 85.6034 122.24C85.9901 121.92 86.1834 121.467 86.1834 120.88C86.1834 120.28 85.9834 119.813 85.5834 119.48C85.1834 119.133 84.6434 118.96 83.9634 118.96H81.2034V122.72H84.0234ZM99.815 122.34H94.255L93.335 125H90.395L95.415 111.02H98.675L103.695 125H100.735L99.815 122.34ZM99.055 120.1L97.035 114.26L95.015 120.1H99.055ZM104.891 118C104.891 116.627 105.198 115.4 105.811 114.32C106.438 113.227 107.285 112.38 108.351 111.78C109.431 111.167 110.638 110.86 111.971 110.86C113.531 110.86 114.898 111.26 116.071 112.06C117.245 112.86 118.065 113.967 118.531 115.38H115.311C114.991 114.713 114.538 114.213 113.951 113.88C113.378 113.547 112.711 113.38 111.951 113.38C111.138 113.38 110.411 113.573 109.771 113.96C109.145 114.333 108.651 114.867 108.291 115.56C107.945 116.253 107.771 117.067 107.771 118C107.771 118.92 107.945 119.733 108.291 120.44C108.651 121.133 109.145 121.673 109.771 122.06C110.411 122.433 111.138 122.62 111.951 122.62C112.711 122.62 113.378 122.453 113.951 122.12C114.538 121.773 114.991 121.267 115.311 120.6H118.531C118.065 122.027 117.245 123.14 116.071 123.94C114.911 124.727 113.545 125.12 111.971 125.12C110.638 125.12 109.431 124.82 108.351 124.22C107.285 123.607 106.438 122.76 105.811 121.68C105.198 120.6 104.891 119.373 104.891 118ZM128.803 125L123.723 118.78V125H120.923V111.04H123.723V117.3L128.803 111.04H132.183L126.423 117.96L132.343 125H128.803ZM148.67 115.24C148.35 114.653 147.91 114.207 147.35 113.9C146.79 113.593 146.137 113.44 145.39 113.44C144.564 113.44 143.83 113.627 143.19 114C142.55 114.373 142.05 114.907 141.69 115.6C141.33 116.293 141.15 117.093 141.15 118C141.15 118.933 141.33 119.747 141.69 120.44C142.064 121.133 142.577 121.667 143.23 122.04C143.884 122.413 144.644 122.6 145.51 122.6C146.577 122.6 147.45 122.32 148.13 121.76C148.81 121.187 149.257 120.393 149.47 119.38H144.67V117.24H152.23V119.68C152.044 120.653 151.644 121.553 151.03 122.38C150.417 123.207 149.624 123.873 148.65 124.38C147.69 124.873 146.61 125.12 145.41 125.12C144.064 125.12 142.844 124.82 141.75 124.22C140.67 123.607 139.817 122.76 139.19 121.68C138.577 120.6 138.27 119.373 138.27 118C138.27 116.627 138.577 115.4 139.19 114.32C139.817 113.227 140.67 112.38 141.75 111.78C142.844 111.167 144.057 110.86 145.39 110.86C146.964 110.86 148.33 111.247 149.49 112.02C150.65 112.78 151.45 113.853 151.89 115.24H148.67ZM157.062 111.04V119.68C157.062 120.627 157.309 121.353 157.802 121.86C158.295 122.353 158.989 122.6 159.882 122.6C160.789 122.6 161.489 122.353 161.982 121.86C162.475 121.353 162.722 120.627 162.722 119.68V111.04H165.542V119.66C165.542 120.847 165.282 121.853 164.762 122.68C164.255 123.493 163.569 124.107 162.702 124.52C161.849 124.933 160.895 125.14 159.842 125.14C158.802 125.14 157.855 124.933 157.002 124.52C156.162 124.107 155.495 123.493 155.002 122.68C154.509 121.853 154.262 120.847 154.262 119.66V111.04H157.062ZM176.807 122.34H171.247L170.327 125H167.387L172.407 111.02H175.667L180.687 125H177.727L176.807 122.34ZM176.047 120.1L174.027 114.26L172.007 120.1H176.047ZM189.764 125L186.684 119.56H185.364V125H182.564V111.04H187.804C188.884 111.04 189.804 111.233 190.564 111.62C191.324 111.993 191.89 112.507 192.264 113.16C192.65 113.8 192.844 114.52 192.844 115.32C192.844 116.24 192.577 117.073 192.044 117.82C191.51 118.553 190.717 119.06 189.664 119.34L193.004 125H189.764ZM185.364 117.46H187.704C188.464 117.46 189.03 117.28 189.404 116.92C189.777 116.547 189.964 116.033 189.964 115.38C189.964 114.74 189.777 114.247 189.404 113.9C189.03 113.54 188.464 113.36 187.704 113.36H185.364V117.46ZM203.936 122.34H198.376L197.456 125H194.516L199.536 111.02H202.796L207.816 125H204.856L203.936 122.34ZM203.176 120.1L201.156 114.26L199.136 120.1H203.176ZM221.633 125H218.833L212.493 115.42V125H209.693V111.02H212.493L218.833 120.62V111.02H221.633V125ZM233.9 111.04V113.3H230.18V125H227.38V113.3H223.66V111.04H233.9ZM238.743 113.3V116.8H243.443V119.02H238.743V122.72H244.043V125H235.943V111.02H244.043V113.3H238.743ZM249.387 113.3V116.8H254.087V119.02H249.387V122.72H254.687V125H246.587V111.02H254.687V113.3H249.387Z" fill="black"/>
<path d="M31.842 145.242L29.014 155H27.586L25.318 147.146L22.966 155L21.552 155.014L18.822 145.242H20.18L22.308 153.516L24.66 145.242H26.088L28.328 153.488L30.47 145.242H31.842ZM40.2362 150.87C40.2362 151.113 40.2222 151.369 40.1942 151.64H34.0622C34.1089 152.396 34.3655 152.989 34.8322 153.418C35.3082 153.838 35.8822 154.048 36.5542 154.048C37.1049 154.048 37.5622 153.922 37.9262 153.67C38.2995 153.409 38.5609 153.063 38.7102 152.634H40.0822C39.8769 153.371 39.4662 153.973 38.8502 154.44C38.2342 154.897 37.4689 155.126 36.5542 155.126C35.8262 155.126 35.1729 154.963 34.5942 154.636C34.0249 154.309 33.5769 153.847 33.2502 153.25C32.9235 152.643 32.7602 151.943 32.7602 151.15C32.7602 150.357 32.9189 149.661 33.2362 149.064C33.5535 148.467 33.9969 148.009 34.5662 147.692C35.1449 147.365 35.8075 147.202 36.5542 147.202C37.2822 147.202 37.9262 147.361 38.4862 147.678C39.0462 147.995 39.4755 148.434 39.7742 148.994C40.0822 149.545 40.2362 150.17 40.2362 150.87ZM38.9202 150.604C38.9202 150.119 38.8129 149.703 38.5982 149.358C38.3835 149.003 38.0895 148.737 37.7162 148.56C37.3522 148.373 36.9462 148.28 36.4982 148.28C35.8542 148.28 35.3035 148.485 34.8462 148.896C34.3982 149.307 34.1415 149.876 34.0762 150.604H38.9202ZM46.9243 148.574C47.1483 148.135 47.4656 147.795 47.8763 147.552C48.2963 147.309 48.8049 147.188 49.4023 147.188V148.504H49.0663C47.6383 148.504 46.9243 149.279 46.9243 150.828V155H45.6503V147.328H46.9243V148.574ZM57.8729 150.87C57.8729 151.113 57.8589 151.369 57.8309 151.64H51.6989C51.7456 152.396 52.0023 152.989 52.4689 153.418C52.9449 153.838 53.5189 154.048 54.1909 154.048C54.7416 154.048 55.1989 153.922 55.5629 153.67C55.9363 153.409 56.1976 153.063 56.3469 152.634H57.7189C57.5136 153.371 57.1029 153.973 56.4869 154.44C55.8709 154.897 55.1056 155.126 54.1909 155.126C53.4629 155.126 52.8096 154.963 52.2309 154.636C51.6616 154.309 51.2136 153.847 50.8869 153.25C50.5603 152.643 50.3969 151.943 50.3969 151.15C50.3969 150.357 50.5556 149.661 50.8729 149.064C51.1903 148.467 51.6336 148.009 52.2029 147.692C52.7816 147.365 53.4443 147.202 54.1909 147.202C54.9189 147.202 55.5629 147.361 56.1229 147.678C56.6829 147.995 57.1123 148.434 57.4109 148.994C57.7189 149.545 57.8729 150.17 57.8729 150.87ZM56.5569 150.604C56.5569 150.119 56.4496 149.703 56.2349 149.358C56.0203 149.003 55.7263 148.737 55.3529 148.56C54.9889 148.373 54.5829 148.28 54.1349 148.28C53.4909 148.28 52.9403 148.485 52.4829 148.896C52.0349 149.307 51.7783 149.876 51.7129 150.604H56.5569ZM66.3586 147.328V155H65.0846V153.866C64.8419 154.258 64.5012 154.566 64.0626 154.79C63.6332 155.005 63.1572 155.112 62.6346 155.112C62.0372 155.112 61.5006 154.991 61.0246 154.748C60.5486 154.496 60.1706 154.123 59.8906 153.628C59.6199 153.133 59.4846 152.531 59.4846 151.822V147.328H60.7446V151.654C60.7446 152.41 60.9359 152.993 61.3186 153.404C61.7012 153.805 62.2239 154.006 62.8866 154.006C63.5679 154.006 64.1046 153.796 64.4966 153.376C64.8886 152.956 65.0846 152.345 65.0846 151.542V147.328H66.3586ZM69.7836 148.574C70.0076 148.135 70.325 147.795 70.7356 147.552C71.1556 147.309 71.6643 147.188 72.2616 147.188V148.504H71.9256C70.4976 148.504 69.7836 149.279 69.7836 150.828V155H68.5096V147.328H69.7836V148.574ZM77.4703 147.188C78.4036 147.188 79.1596 147.473 79.7383 148.042C80.317 148.602 80.6063 149.414 80.6063 150.478V155H79.3463V150.66C79.3463 149.895 79.155 149.311 78.7723 148.91C78.3896 148.499 77.867 148.294 77.2043 148.294C76.5323 148.294 75.9956 148.504 75.5943 148.924C75.2023 149.344 75.0063 149.955 75.0063 150.758V155H73.7323V147.328H75.0063V148.42C75.2583 148.028 75.599 147.725 76.0283 147.51C76.467 147.295 76.9476 147.188 77.4703 147.188ZM95.6458 147.188C96.2431 147.188 96.7751 147.314 97.2418 147.566C97.7085 147.809 98.0771 148.177 98.3478 148.672C98.6185 149.167 98.7538 149.769 98.7538 150.478V155H97.4938V150.66C97.4938 149.895 97.3025 149.311 96.9198 148.91C96.5465 148.499 96.0378 148.294 95.3938 148.294C94.7311 148.294 94.2038 148.509 93.8118 148.938C93.4198 149.358 93.2238 149.969 93.2238 150.772V155H91.9638V150.66C91.9638 149.895 91.7725 149.311 91.3898 148.91C91.0165 148.499 90.5078 148.294 89.8638 148.294C89.2011 148.294 88.6738 148.509 88.2818 148.938C87.8898 149.358 87.6938 149.969 87.6938 150.772V155H86.4198V147.328H87.6938V148.434C87.9458 148.033 88.2818 147.725 88.7018 147.51C89.1311 147.295 89.6025 147.188 90.1158 147.188C90.7598 147.188 91.3291 147.333 91.8238 147.622C92.3185 147.911 92.6871 148.336 92.9298 148.896C93.1445 148.355 93.4991 147.935 93.9938 147.636C94.4885 147.337 95.0391 147.188 95.6458 147.188ZM104.19 155.126C103.471 155.126 102.818 154.963 102.23 154.636C101.651 154.309 101.194 153.847 100.858 153.25C100.531 152.643 100.368 151.943 100.368 151.15C100.368 150.366 100.536 149.675 100.872 149.078C101.217 148.471 101.684 148.009 102.272 147.692C102.86 147.365 103.518 147.202 104.246 147.202C104.974 147.202 105.632 147.365 106.22 147.692C106.808 148.009 107.27 148.467 107.606 149.064C107.951 149.661 108.124 150.357 108.124 151.15C108.124 151.943 107.946 152.643 107.592 153.25C107.246 153.847 106.775 154.309 106.178 154.636C105.58 154.963 104.918 155.126 104.19 155.126ZM104.19 154.006C104.647 154.006 105.076 153.899 105.478 153.684C105.879 153.469 106.201 153.147 106.444 152.718C106.696 152.289 106.822 151.766 106.822 151.15C106.822 150.534 106.7 150.011 106.458 149.582C106.215 149.153 105.898 148.835 105.506 148.63C105.114 148.415 104.689 148.308 104.232 148.308C103.765 148.308 103.336 148.415 102.944 148.63C102.561 148.835 102.253 149.153 102.02 149.582C101.786 150.011 101.67 150.534 101.67 151.15C101.67 151.775 101.782 152.303 102.006 152.732C102.239 153.161 102.547 153.483 102.93 153.698C103.312 153.903 103.732 154.006 104.19 154.006ZM113.537 147.188C114.47 147.188 115.226 147.473 115.805 148.042C116.383 148.602 116.673 149.414 116.673 150.478V155H115.413V150.66C115.413 149.895 115.221 149.311 114.839 148.91C114.456 148.499 113.933 148.294 113.271 148.294C112.599 148.294 112.062 148.504 111.661 148.924C111.269 149.344 111.073 149.955 111.073 150.758V155H109.799V147.328H111.073V148.42C111.325 148.028 111.665 147.725 112.095 147.51C112.533 147.295 113.014 147.188 113.537 147.188ZM125.754 150.87C125.754 151.113 125.74 151.369 125.712 151.64H119.58C119.626 152.396 119.883 152.989 120.35 153.418C120.826 153.838 121.4 154.048 122.072 154.048C122.622 154.048 123.08 153.922 123.444 153.67C123.817 153.409 124.078 153.063 124.228 152.634H125.6C125.394 153.371 124.984 153.973 124.368 154.44C123.752 154.897 122.986 155.126 122.072 155.126C121.344 155.126 120.69 154.963 120.112 154.636C119.542 154.309 119.094 153.847 118.768 153.25C118.441 152.643 118.278 151.943 118.278 151.15C118.278 150.357 118.436 149.661 118.754 149.064C119.071 148.467 119.514 148.009 120.084 147.692C120.662 147.365 121.325 147.202 122.072 147.202C122.8 147.202 123.444 147.361 124.004 147.678C124.564 147.995 124.993 148.434 125.292 148.994C125.6 149.545 125.754 150.17 125.754 150.87ZM124.438 150.604C124.438 150.119 124.33 149.703 124.116 149.358C123.901 149.003 123.607 148.737 123.234 148.56C122.87 148.373 122.464 148.28 122.016 148.28C121.372 148.28 120.821 148.485 120.364 148.896C119.916 149.307 119.659 149.876 119.594 150.604H124.438ZM134.043 147.328L129.423 158.612H128.107L129.619 154.916L126.525 147.328H127.939L130.347 153.544L132.727 147.328H134.043ZM149.277 147.328L146.883 155H145.567L143.719 148.91L141.871 155H140.555L138.147 147.328H139.449L141.213 153.768L143.117 147.328H144.419L146.281 153.782L148.017 147.328H149.277ZM151.199 146.082C150.956 146.082 150.751 145.998 150.583 145.83C150.415 145.662 150.331 145.457 150.331 145.214C150.331 144.971 150.415 144.766 150.583 144.598C150.751 144.43 150.956 144.346 151.199 144.346C151.432 144.346 151.628 144.43 151.787 144.598C151.955 144.766 152.039 144.971 152.039 145.214C152.039 145.457 151.955 145.662 151.787 145.83C151.628 145.998 151.432 146.082 151.199 146.082ZM151.815 147.328V155H150.541V147.328H151.815ZM155.54 148.378V152.9C155.54 153.273 155.62 153.539 155.778 153.698C155.937 153.847 156.212 153.922 156.604 153.922H157.542V155H156.394C155.685 155 155.153 154.837 154.798 154.51C154.444 154.183 154.266 153.647 154.266 152.9V148.378H153.272V147.328H154.266V145.396H155.54V147.328H157.542V148.378H155.54ZM162.894 147.188C163.472 147.188 163.995 147.314 164.462 147.566C164.928 147.809 165.292 148.177 165.554 148.672C165.824 149.167 165.96 149.769 165.96 150.478V155H164.7V150.66C164.7 149.895 164.508 149.311 164.126 148.91C163.743 148.499 163.22 148.294 162.558 148.294C161.886 148.294 161.349 148.504 160.948 148.924C160.556 149.344 160.36 149.955 160.36 150.758V155H159.086V144.64H160.36V148.42C160.612 148.028 160.957 147.725 161.396 147.51C161.844 147.295 162.343 147.188 162.894 147.188ZM168.699 146.082C168.456 146.082 168.251 145.998 168.083 145.83C167.915 145.662 167.831 145.457 167.831 145.214C167.831 144.971 167.915 144.766 168.083 144.598C168.251 144.43 168.456 144.346 168.699 144.346C168.932 144.346 169.128 144.43 169.287 144.598C169.455 144.766 169.539 144.971 169.539 145.214C169.539 145.457 169.455 145.662 169.287 145.83C169.128 145.998 168.932 146.082 168.699 146.082ZM169.315 147.328V155H168.041V147.328H169.315ZM175.224 147.188C176.158 147.188 176.914 147.473 177.492 148.042C178.071 148.602 178.36 149.414 178.36 150.478V155H177.1V150.66C177.1 149.895 176.909 149.311 176.526 148.91C176.144 148.499 175.621 148.294 174.958 148.294C174.286 148.294 173.75 148.504 173.348 148.924C172.956 149.344 172.76 149.955 172.76 150.758V155H171.486V147.328H172.76V148.42C173.012 148.028 173.353 147.725 173.782 147.51C174.221 147.295 174.702 147.188 175.224 147.188ZM183.936 147.426C184.001 146.567 184.332 145.895 184.93 145.41C185.527 144.925 186.302 144.682 187.254 144.682C187.888 144.682 188.434 144.799 188.892 145.032C189.358 145.256 189.708 145.564 189.942 145.956C190.184 146.348 190.306 146.791 190.306 147.286C190.306 147.865 190.138 148.364 189.802 148.784C189.475 149.204 189.046 149.475 188.514 149.596V149.666C189.12 149.815 189.601 150.109 189.956 150.548C190.31 150.987 190.488 151.561 190.488 152.27C190.488 152.802 190.366 153.283 190.124 153.712C189.881 154.132 189.517 154.463 189.032 154.706C188.546 154.949 187.963 155.07 187.282 155.07C186.292 155.07 185.48 154.813 184.846 154.3C184.211 153.777 183.856 153.04 183.782 152.088H185.014C185.079 152.648 185.308 153.105 185.7 153.46C186.092 153.815 186.614 153.992 187.268 153.992C187.921 153.992 188.416 153.824 188.752 153.488C189.097 153.143 189.27 152.699 189.27 152.158C189.27 151.458 189.036 150.954 188.57 150.646C188.103 150.338 187.398 150.184 186.456 150.184H186.134V149.12H186.47C187.328 149.111 187.977 148.971 188.416 148.7C188.854 148.42 189.074 147.991 189.074 147.412C189.074 146.917 188.91 146.521 188.584 146.222C188.266 145.923 187.809 145.774 187.212 145.774C186.633 145.774 186.166 145.923 185.812 146.222C185.457 146.521 185.247 146.922 185.182 147.426H183.936ZM192.208 149.834C192.208 148.229 192.469 146.978 192.992 146.082C193.515 145.177 194.429 144.724 195.736 144.724C197.033 144.724 197.943 145.177 198.466 146.082C198.989 146.978 199.25 148.229 199.25 149.834C199.25 151.467 198.989 152.737 198.466 153.642C197.943 154.547 197.033 155 195.736 155C194.429 155 193.515 154.547 192.992 153.642C192.469 152.737 192.208 151.467 192.208 149.834ZM197.99 149.834C197.99 149.022 197.934 148.336 197.822 147.776C197.719 147.207 197.5 146.749 197.164 146.404C196.837 146.059 196.361 145.886 195.736 145.886C195.101 145.886 194.616 146.059 194.28 146.404C193.953 146.749 193.734 147.207 193.622 147.776C193.519 148.336 193.468 149.022 193.468 149.834C193.468 150.674 193.519 151.379 193.622 151.948C193.734 152.517 193.953 152.975 194.28 153.32C194.616 153.665 195.101 153.838 195.736 153.838C196.361 153.838 196.837 153.665 197.164 153.32C197.5 152.975 197.719 152.517 197.822 151.948C197.934 151.379 197.99 150.674 197.99 149.834ZM204.465 151.136C204.465 150.352 204.624 149.666 204.941 149.078C205.259 148.481 205.693 148.019 206.243 147.692C206.803 147.365 207.429 147.202 208.119 147.202C208.717 147.202 209.272 147.342 209.785 147.622C210.299 147.893 210.691 148.252 210.961 148.7V144.64H212.249V155H210.961V153.558C210.709 154.015 210.336 154.393 209.841 154.692C209.347 154.981 208.768 155.126 208.105 155.126C207.424 155.126 206.803 154.958 206.243 154.622C205.693 154.286 205.259 153.815 204.941 153.208C204.624 152.601 204.465 151.911 204.465 151.136ZM210.961 151.15C210.961 150.571 210.845 150.067 210.611 149.638C210.378 149.209 210.061 148.882 209.659 148.658C209.267 148.425 208.833 148.308 208.357 148.308C207.881 148.308 207.447 148.42 207.055 148.644C206.663 148.868 206.351 149.195 206.117 149.624C205.884 150.053 205.767 150.557 205.767 151.136C205.767 151.724 205.884 152.237 206.117 152.676C206.351 153.105 206.663 153.437 207.055 153.67C207.447 153.894 207.881 154.006 208.357 154.006C208.833 154.006 209.267 153.894 209.659 153.67C210.061 153.437 210.378 153.105 210.611 152.676C210.845 152.237 210.961 151.729 210.961 151.15ZM213.926 151.136C213.926 150.352 214.085 149.666 214.402 149.078C214.72 148.481 215.154 148.019 215.704 147.692C216.264 147.365 216.885 147.202 217.566 147.202C218.238 147.202 218.822 147.347 219.316 147.636C219.811 147.925 220.18 148.289 220.422 148.728V147.328H221.71V155H220.422V153.572C220.17 154.02 219.792 154.393 219.288 154.692C218.794 154.981 218.215 155.126 217.552 155.126C216.871 155.126 216.255 154.958 215.704 154.622C215.154 154.286 214.72 153.815 214.402 153.208C214.085 152.601 213.926 151.911 213.926 151.136ZM220.422 151.15C220.422 150.571 220.306 150.067 220.072 149.638C219.839 149.209 219.522 148.882 219.12 148.658C218.728 148.425 218.294 148.308 217.818 148.308C217.342 148.308 216.908 148.42 216.516 148.644C216.124 148.868 215.812 149.195 215.578 149.624C215.345 150.053 215.228 150.557 215.228 151.136C215.228 151.724 215.345 152.237 215.578 152.676C215.812 153.105 216.124 153.437 216.516 153.67C216.908 153.894 217.342 154.006 217.818 154.006C218.294 154.006 218.728 153.894 219.12 153.67C219.522 153.437 219.839 153.105 220.072 152.676C220.306 152.237 220.422 151.729 220.422 151.15ZM230.471 147.328L225.851 158.612H224.535L226.047 154.916L222.953 147.328H224.367L226.775 153.544L229.155 147.328H230.471ZM234.468 155.126C233.88 155.126 233.352 155.028 232.886 154.832C232.419 154.627 232.05 154.347 231.78 153.992C231.509 153.628 231.36 153.213 231.332 152.746H232.648C232.685 153.129 232.862 153.441 233.18 153.684C233.506 153.927 233.931 154.048 234.454 154.048C234.939 154.048 235.322 153.941 235.602 153.726C235.882 153.511 236.022 153.241 236.022 152.914C236.022 152.578 235.872 152.331 235.574 152.172C235.275 152.004 234.813 151.841 234.188 151.682C233.618 151.533 233.152 151.383 232.788 151.234C232.433 151.075 232.125 150.847 231.864 150.548C231.612 150.24 231.486 149.839 231.486 149.344C231.486 148.952 231.602 148.593 231.836 148.266C232.069 147.939 232.4 147.683 232.83 147.496C233.259 147.3 233.749 147.202 234.3 147.202C235.149 147.202 235.835 147.417 236.358 147.846C236.88 148.275 237.16 148.863 237.198 149.61H235.924C235.896 149.209 235.732 148.887 235.434 148.644C235.144 148.401 234.752 148.28 234.258 148.28C233.8 148.28 233.436 148.378 233.166 148.574C232.895 148.77 232.76 149.027 232.76 149.344C232.76 149.596 232.839 149.806 232.998 149.974C233.166 150.133 233.371 150.263 233.614 150.366C233.866 150.459 234.211 150.567 234.65 150.688C235.2 150.837 235.648 150.987 235.994 151.136C236.339 151.276 236.633 151.491 236.876 151.78C237.128 152.069 237.258 152.447 237.268 152.914C237.268 153.334 237.151 153.712 236.918 154.048C236.684 154.384 236.353 154.65 235.924 154.846C235.504 155.033 235.018 155.126 234.468 155.126Z" fill="black"/>
</svg>
