<svg width="601" height="103" viewBox="0 0 601 103" fill="none" xmlns="http://www.w3.org/2000/svg">
<rect width="20" height="40" rx="4" fill="#DB4444"/>
<path d="M44.704 14.832V16.64H41.728V26H39.488V16.64H36.512V14.832H44.704ZM50.2744 26.144C49.421 26.144 48.653 25.9573 47.9704 25.584C47.2877 25.2 46.749 24.6613 46.3544 23.968C45.9704 23.2747 45.7784 22.4747 45.7784 21.568C45.7784 20.6613 45.9757 19.8613 46.3704 19.168C46.7757 18.4747 47.325 17.9413 48.0184 17.568C48.7117 17.184 49.485 16.992 50.3384 16.992C51.1917 16.992 51.965 17.184 52.6584 17.568C53.3517 17.9413 53.8957 18.4747 54.2904 19.168C54.6957 19.8613 54.8984 20.6613 54.8984 21.568C54.8984 22.4747 54.6904 23.2747 54.2744 23.968C53.869 24.6613 53.3144 25.2 52.6104 25.584C51.917 25.9573 51.1384 26.144 50.2744 26.144ZM50.2744 24.192C50.6797 24.192 51.0584 24.096 51.4104 23.904C51.773 23.7013 52.061 23.4027 52.2744 23.008C52.4877 22.6133 52.5944 22.1333 52.5944 21.568C52.5944 20.7253 52.3704 20.08 51.9224 19.632C51.485 19.1733 50.9464 18.944 50.3064 18.944C49.6664 18.944 49.1277 19.1733 48.6904 19.632C48.2637 20.08 48.0504 20.7253 48.0504 21.568C48.0504 22.4107 48.2584 23.0613 48.6744 23.52C49.101 23.968 49.6344 24.192 50.2744 24.192ZM55.9655 21.536C55.9655 20.64 56.1415 19.8453 56.4935 19.152C56.8562 18.4587 57.3468 17.9253 57.9655 17.552C58.5842 17.1787 59.2722 16.992 60.0295 16.992C60.6055 16.992 61.1548 17.12 61.6775 17.376C62.2002 17.6213 62.6162 17.952 62.9255 18.368V14.16H65.1975V26H62.9255V24.688C62.6482 25.1253 62.2588 25.4773 61.7575 25.744C61.2562 26.0107 60.6748 26.144 60.0135 26.144C59.2668 26.144 58.5842 25.952 57.9655 25.568C57.3468 25.184 56.8562 24.6453 56.4935 23.952C56.1415 23.248 55.9655 22.4427 55.9655 21.536ZM62.9415 21.568C62.9415 21.024 62.8348 20.56 62.6215 20.176C62.4082 19.7813 62.1202 19.4827 61.7575 19.28C61.3948 19.0667 61.0055 18.96 60.5895 18.96C60.1735 18.96 59.7895 19.0613 59.4375 19.264C59.0855 19.4667 58.7975 19.7653 58.5735 20.16C58.3602 20.544 58.2535 21.0027 58.2535 21.536C58.2535 22.0693 58.3602 22.5387 58.5735 22.944C58.7975 23.3387 59.0855 23.6427 59.4375 23.856C59.8002 24.0693 60.1842 24.176 60.5895 24.176C61.0055 24.176 61.3948 24.0747 61.7575 23.872C62.1202 23.6587 62.4082 23.36 62.6215 22.976C62.8348 22.5813 62.9415 22.112 62.9415 21.568ZM66.8092 21.536C66.8092 20.64 66.9852 19.8453 67.3372 19.152C67.6999 18.4587 68.1853 17.9253 68.7933 17.552C69.4119 17.1787 70.0999 16.992 70.8573 16.992C71.5186 16.992 72.0946 17.1253 72.5853 17.392C73.0866 17.6587 73.4866 17.9947 73.7853 18.4V17.136H76.0413V26H73.7853V24.704C73.4973 25.12 73.0973 25.4667 72.5853 25.744C72.0839 26.0107 71.5026 26.144 70.8413 26.144C70.0946 26.144 69.4119 25.952 68.7933 25.568C68.1853 25.184 67.6999 24.6453 67.3372 23.952C66.9852 23.248 66.8092 22.4427 66.8092 21.536ZM73.7853 21.568C73.7853 21.024 73.6786 20.56 73.4653 20.176C73.2519 19.7813 72.9639 19.4827 72.6013 19.28C72.2386 19.0667 71.8493 18.96 71.4333 18.96C71.0173 18.96 70.6333 19.0613 70.2812 19.264C69.9293 19.4667 69.6413 19.7653 69.4173 20.16C69.2039 20.544 69.0973 21.0027 69.0973 21.536C69.0973 22.0693 69.2039 22.5387 69.4173 22.944C69.6413 23.3387 69.9293 23.6427 70.2812 23.856C70.6439 24.0693 71.0279 24.176 71.4333 24.176C71.8493 24.176 72.2386 24.0747 72.6013 23.872C72.9639 23.6587 73.2519 23.36 73.4653 22.976C73.6786 22.5813 73.7853 22.112 73.7853 21.568ZM86.709 17.136L81.221 30.192H78.837L80.757 25.776L77.205 17.136H79.717L82.005 23.328L84.325 17.136H86.709ZM88.3645 14.832H90.7165L88.9885 18.864H87.4525L88.3645 14.832ZM95.7148 26.144C94.9894 26.144 94.3388 26.016 93.7628 25.76C93.1868 25.4933 92.7281 25.136 92.3868 24.688C92.0561 24.24 91.8748 23.744 91.8428 23.2H94.0988C94.1414 23.5413 94.3068 23.824 94.5948 24.048C94.8934 24.272 95.2614 24.384 95.6988 24.384C96.1254 24.384 96.4561 24.2987 96.6908 24.128C96.9361 23.9573 97.0588 23.7387 97.0588 23.472C97.0588 23.184 96.9094 22.9707 96.6108 22.832C96.3228 22.6827 95.8588 22.5227 95.2188 22.352C94.5574 22.192 94.0134 22.0267 93.5868 21.856C93.1708 21.6853 92.8081 21.424 92.4988 21.072C92.2001 20.72 92.0508 20.2453 92.0508 19.648C92.0508 19.1573 92.1894 18.7093 92.4668 18.304C92.7548 17.8987 93.1601 17.5787 93.6828 17.344C94.2161 17.1093 94.8401 16.992 95.5548 16.992C96.6108 16.992 97.4534 17.2587 98.0828 17.792C98.7121 18.3147 99.0588 19.024 99.1228 19.92H96.9788C96.9468 19.568 96.7974 19.2907 96.5308 19.088C96.2748 18.8747 95.9281 18.768 95.4908 18.768C95.0854 18.768 94.7708 18.8427 94.5468 18.992C94.3334 19.1413 94.2268 19.3493 94.2268 19.616C94.2268 19.9147 94.3761 20.144 94.6748 20.304C94.9734 20.4533 95.4374 20.608 96.0668 20.768C96.7068 20.928 97.2348 21.0933 97.6508 21.264C98.0668 21.4347 98.4241 21.7013 98.7228 22.064C99.0321 22.416 99.1921 22.8853 99.2028 23.472C99.2028 23.984 99.0588 24.4427 98.7708 24.848C98.4934 25.2533 98.0881 25.5733 97.5548 25.808C97.0321 26.032 96.4188 26.144 95.7148 26.144Z" fill="#DB4444"/>
<path d="M2.58239 101V74.8182H19.3551V78.794H7.32528V85.902H18.2045V89.8778H7.32528V101H2.58239ZM29.5394 74.8182V101H24.9116V74.8182H29.5394ZM41.3889 101.396C40.1446 101.396 39.0238 101.175 38.0267 100.732C37.038 100.28 36.2539 99.6151 35.6744 98.7372C35.1034 97.8594 34.8179 96.777 34.8179 95.4901C34.8179 94.3821 35.0224 93.4659 35.4315 92.7415C35.8406 92.017 36.3988 91.4375 37.1062 91.0028C37.8136 90.5682 38.6105 90.2401 39.4968 90.0185C40.3917 89.7884 41.3164 89.6222 42.271 89.5199C43.4215 89.4006 44.3548 89.294 45.0707 89.2003C45.7866 89.098 46.3065 88.9446 46.6304 88.7401C46.9627 88.527 47.1289 88.1989 47.1289 87.7557V87.679C47.1289 86.7159 46.8434 85.9702 46.2724 85.4418C45.7014 84.9134 44.8789 84.6491 43.8051 84.6491C42.6715 84.6491 41.7724 84.8963 41.1076 85.3906C40.4514 85.8849 40.0082 86.4687 39.7781 87.142L35.4571 86.5284C35.798 85.3352 36.3605 84.3381 37.1446 83.5369C37.9287 82.7273 38.8875 82.1222 40.021 81.7216C41.1545 81.3125 42.4073 81.108 43.7795 81.108C44.7255 81.108 45.6673 81.2188 46.6048 81.4403C47.5423 81.6619 48.3988 82.0284 49.1744 82.5398C49.95 83.0426 50.5721 83.7287 51.0409 84.598C51.5181 85.4673 51.7568 86.554 51.7568 87.858V101H47.3079V98.3026H47.1545C46.8733 98.848 46.4769 99.3594 45.9656 99.8366C45.4627 100.305 44.8278 100.685 44.0608 100.974C43.3022 101.256 42.4116 101.396 41.3889 101.396ZM42.5906 97.9957C43.5196 97.9957 44.325 97.8125 45.0068 97.446C45.6886 97.071 46.2127 96.5767 46.5792 95.9631C46.9542 95.3494 47.1417 94.6804 47.1417 93.956V91.642C46.9968 91.7614 46.7497 91.8722 46.4002 91.9744C46.0593 92.0767 45.6758 92.1662 45.2497 92.2429C44.8235 92.3196 44.4017 92.3878 43.984 92.4474C43.5664 92.5071 43.2042 92.5582 42.8974 92.6009C42.2071 92.6946 41.5892 92.848 41.0437 93.0611C40.4983 93.2741 40.0679 93.5724 39.7525 93.956C39.4372 94.331 39.2795 94.8168 39.2795 95.4134C39.2795 96.2656 39.5906 96.9091 40.2127 97.3438C40.8349 97.7784 41.6275 97.9957 42.5906 97.9957ZM73.3701 86.554L69.1513 87.0142C69.032 86.5881 68.8232 86.1875 68.5249 85.8125C68.2351 85.4375 67.8431 85.1349 67.3488 84.9048C66.8544 84.6747 66.2493 84.5597 65.5334 84.5597C64.5704 84.5597 63.7607 84.7685 63.1044 85.1861C62.4567 85.6037 62.1371 86.1449 62.1456 86.8097C62.1371 87.3807 62.3459 87.8452 62.7721 88.2031C63.2067 88.5611 63.9226 88.8551 64.9198 89.0852L68.2692 89.8011C70.1272 90.2017 71.5079 90.8366 72.4113 91.706C73.3232 92.5753 73.7834 93.7131 73.7919 95.1193C73.7834 96.3551 73.4212 97.446 72.7053 98.392C71.9979 99.3295 71.0135 100.062 69.7522 100.591C68.4908 101.119 67.0419 101.384 65.4056 101.384C63.0022 101.384 61.0675 100.881 59.6016 99.875C58.1357 98.8608 57.2621 97.4503 56.9809 95.6435L61.4937 95.2088C61.6982 96.0952 62.1329 96.7642 62.7976 97.2159C63.4624 97.6676 64.3275 97.8935 65.3928 97.8935C66.4922 97.8935 67.3743 97.6676 68.0391 97.2159C68.7124 96.7642 69.049 96.206 69.049 95.5412C69.049 94.9787 68.8317 94.5142 68.3971 94.1477C67.9709 93.7812 67.3062 93.5 66.4027 93.304L63.0533 92.6009C61.1698 92.2088 59.7763 91.5483 58.8729 90.6193C57.9695 89.6818 57.5221 88.4972 57.5306 87.0653C57.5221 85.8551 57.8502 84.8068 58.515 83.9205C59.1883 83.0256 60.1215 82.3352 61.3147 81.8494C62.5164 81.3551 63.9013 81.108 65.4695 81.108C67.7706 81.108 69.5817 81.598 70.9027 82.5781C72.2323 83.5582 73.0547 84.8835 73.3701 86.554ZM83.6758 89.4943V101H79.048V74.8182H83.5736V84.7003H83.8037C84.2639 83.5923 84.9756 82.7187 85.9386 82.0795C86.9102 81.4318 88.146 81.108 89.646 81.108C91.0096 81.108 92.1986 81.3935 93.2128 81.9645C94.227 82.5355 95.0111 83.3707 95.565 84.4702C96.1275 85.5696 96.4088 86.9119 96.4088 88.4972V101H91.781V89.2131C91.781 87.892 91.44 86.8651 90.7582 86.1321C90.0849 85.3906 89.1389 85.0199 87.9202 85.0199C87.102 85.0199 86.369 85.1989 85.7213 85.5568C85.0821 85.9062 84.5792 86.4134 84.2128 87.0781C83.8548 87.7429 83.6758 88.5483 83.6758 89.4943ZM127.369 82.0156C127.25 80.8991 126.747 80.0298 125.861 79.4077C124.983 78.7855 123.841 78.4744 122.434 78.4744C121.446 78.4744 120.598 78.6236 119.89 78.9219C119.183 79.2202 118.642 79.625 118.267 80.1364C117.892 80.6477 117.7 81.2315 117.691 81.8878C117.691 82.4332 117.815 82.9062 118.062 83.3068C118.318 83.7074 118.663 84.0483 119.098 84.3295C119.532 84.6023 120.014 84.8324 120.542 85.0199C121.071 85.2074 121.603 85.3651 122.14 85.4929L124.595 86.1065C125.584 86.3366 126.534 86.6477 127.446 87.0398C128.366 87.4318 129.189 87.9261 129.913 88.5227C130.646 89.1193 131.226 89.8395 131.652 90.6832C132.078 91.527 132.291 92.5156 132.291 93.6491C132.291 95.1832 131.899 96.5341 131.115 97.7017C130.331 98.8608 129.197 99.7685 127.714 100.425C126.24 101.072 124.454 101.396 122.358 101.396C120.321 101.396 118.552 101.081 117.052 100.45C115.561 99.8196 114.393 98.8991 113.549 97.6889C112.714 96.4787 112.263 95.0043 112.194 93.2656H116.861C116.929 94.1776 117.21 94.9361 117.704 95.5412C118.199 96.1463 118.842 96.598 119.635 96.8963C120.436 97.1946 121.331 97.3438 122.319 97.3438C123.351 97.3438 124.254 97.1903 125.03 96.8835C125.814 96.5682 126.427 96.1335 126.87 95.5795C127.314 95.017 127.54 94.3608 127.548 93.6108C127.54 92.929 127.339 92.3665 126.947 91.9233C126.555 91.4716 126.005 91.0966 125.298 90.7983C124.599 90.4915 123.781 90.2187 122.843 89.9801L119.865 89.2131C117.709 88.6591 116.004 87.8196 114.751 86.6946C113.507 85.5611 112.885 84.0568 112.885 82.1818C112.885 80.6392 113.302 79.2884 114.138 78.1293C114.981 76.9702 116.128 76.071 117.576 75.4318C119.025 74.7841 120.666 74.4602 122.498 74.4602C124.356 74.4602 125.984 74.7841 127.382 75.4318C128.788 76.071 129.892 76.9616 130.693 78.1037C131.494 79.2372 131.907 80.5412 131.933 82.0156H127.369ZM143.405 101.396C142.161 101.396 141.04 101.175 140.043 100.732C139.054 100.28 138.27 99.6151 137.691 98.7372C137.12 97.8594 136.834 96.777 136.834 95.4901C136.834 94.3821 137.039 93.4659 137.448 92.7415C137.857 92.017 138.415 91.4375 139.123 91.0028C139.83 90.5682 140.627 90.2401 141.513 90.0185C142.408 89.7884 143.333 89.6222 144.287 89.5199C145.438 89.4006 146.371 89.294 147.087 89.2003C147.803 89.098 148.323 88.9446 148.647 88.7401C148.979 88.527 149.145 88.1989 149.145 87.7557V87.679C149.145 86.7159 148.86 85.9702 148.289 85.4418C147.718 84.9134 146.895 84.6491 145.821 84.6491C144.688 84.6491 143.789 84.8963 143.124 85.3906C142.468 85.8849 142.025 86.4687 141.794 87.142L137.473 86.5284C137.814 85.3352 138.377 84.3381 139.161 83.5369C139.945 82.7273 140.904 82.1222 142.037 81.7216C143.171 81.3125 144.424 81.108 145.796 81.108C146.742 81.108 147.684 81.2188 148.621 81.4403C149.559 81.6619 150.415 82.0284 151.191 82.5398C151.966 83.0426 152.589 83.7287 153.057 84.598C153.535 85.4673 153.773 86.554 153.773 87.858V101H149.324V98.3026H149.171C148.89 98.848 148.493 99.3594 147.982 99.8366C147.479 100.305 146.844 100.685 146.077 100.974C145.319 101.256 144.428 101.396 143.405 101.396ZM144.607 97.9957C145.536 97.9957 146.341 97.8125 147.023 97.446C147.705 97.071 148.229 96.5767 148.596 95.9631C148.971 95.3494 149.158 94.6804 149.158 93.956V91.642C149.013 91.7614 148.766 91.8722 148.417 91.9744C148.076 92.0767 147.692 92.1662 147.266 92.2429C146.84 92.3196 146.418 92.3878 146 92.4474C145.583 92.5071 145.221 92.5582 144.914 92.6009C144.223 92.6946 143.606 92.848 143.06 93.0611C142.515 93.2741 142.084 93.5724 141.769 93.956C141.454 94.331 141.296 94.8168 141.296 95.4134C141.296 96.2656 141.607 96.9091 142.229 97.3438C142.851 97.7784 143.644 97.9957 144.607 97.9957ZM164.494 74.8182V101H159.867V74.8182H164.494ZM179.386 101.384C177.418 101.384 175.717 100.974 174.286 100.156C172.862 99.3295 171.767 98.1619 171 96.6534C170.233 95.1364 169.85 93.3509 169.85 91.2969C169.85 89.277 170.233 87.5043 171 85.9787C171.776 84.4446 172.858 83.2514 174.247 82.3991C175.636 81.5384 177.269 81.108 179.144 81.108C180.354 81.108 181.496 81.304 182.57 81.696C183.652 82.0795 184.607 82.6761 185.433 83.4858C186.269 84.2955 186.925 85.3267 187.402 86.5795C187.879 87.8239 188.118 89.3068 188.118 91.0284V92.4474H172.023V89.3281H183.682C183.673 88.4418 183.482 87.6534 183.107 86.9631C182.732 86.2642 182.208 85.7145 181.534 85.3139C180.869 84.9134 180.094 84.7131 179.208 84.7131C178.261 84.7131 177.431 84.9432 176.715 85.4034C175.999 85.8551 175.44 86.4517 175.04 87.1932C174.648 87.9261 174.448 88.7315 174.439 89.6094V92.3324C174.439 93.4744 174.648 94.4545 175.065 95.2727C175.483 96.0824 176.067 96.7045 176.817 97.1392C177.567 97.5653 178.445 97.7784 179.45 97.7784C180.124 97.7784 180.733 97.6847 181.279 97.4972C181.824 97.3011 182.297 97.0156 182.698 96.6406C183.098 96.2656 183.401 95.8011 183.605 95.2472L187.926 95.733C187.654 96.875 187.134 97.8722 186.367 98.7244C185.608 99.5682 184.636 100.224 183.452 100.693C182.267 101.153 180.912 101.384 179.386 101.384ZM208.993 86.554L204.774 87.0142C204.655 86.5881 204.446 86.1875 204.148 85.8125C203.858 85.4375 203.466 85.1349 202.972 84.9048C202.477 84.6747 201.872 84.5597 201.156 84.5597C200.193 84.5597 199.384 84.7685 198.727 85.1861C198.08 85.6037 197.76 86.1449 197.769 86.8097C197.76 87.3807 197.969 87.8452 198.395 88.2031C198.83 88.5611 199.546 88.8551 200.543 89.0852L203.892 89.8011C205.75 90.2017 207.131 90.8366 208.034 91.706C208.946 92.5753 209.406 93.7131 209.415 95.1193C209.406 96.3551 209.044 97.446 208.328 98.392C207.621 99.3295 206.636 100.062 205.375 100.591C204.114 101.119 202.665 101.384 201.029 101.384C198.625 101.384 196.69 100.881 195.225 99.875C193.759 98.8608 192.885 97.4503 192.604 95.6435L197.117 95.2088C197.321 96.0952 197.756 96.7642 198.421 97.2159C199.085 97.6676 199.95 97.8935 201.016 97.8935C202.115 97.8935 202.997 97.6676 203.662 97.2159C204.335 96.7642 204.672 96.206 204.672 95.5412C204.672 94.9787 204.455 94.5142 204.02 94.1477C203.594 93.7812 202.929 93.5 202.026 93.304L198.676 92.6009C196.793 92.2088 195.399 91.5483 194.496 90.6193C193.592 89.6818 193.145 88.4972 193.154 87.0653C193.145 85.8551 193.473 84.8068 194.138 83.9205C194.811 83.0256 195.744 82.3352 196.938 81.8494C198.139 81.3551 199.524 81.108 201.092 81.108C203.394 81.108 205.205 81.598 206.526 82.5781C207.855 83.5582 208.678 84.8835 208.993 86.554Z" fill="black"/>
<path d="M301.624 57.66C302.512 57.66 303.288 57.832 303.952 58.176C304.624 58.512 305.14 59 305.5 59.64C305.868 60.272 306.052 61.012 306.052 61.86C306.052 62.708 305.868 63.444 305.5 64.068C305.14 64.692 304.624 65.172 303.952 65.508C303.288 65.836 302.512 66 301.624 66H298.9V57.66H301.624ZM301.624 64.884C302.6 64.884 303.348 64.62 303.868 64.092C304.388 63.564 304.648 62.82 304.648 61.86C304.648 60.892 304.388 60.136 303.868 59.592C303.348 59.048 302.6 58.776 301.624 58.776H300.268V64.884H301.624ZM306.952 62.664C306.952 62 307.088 61.412 307.36 60.9C307.64 60.388 308.016 59.992 308.488 59.712C308.968 59.424 309.496 59.28 310.072 59.28C310.592 59.28 311.044 59.384 311.428 59.592C311.82 59.792 312.132 60.044 312.364 60.348V59.388H313.744V66H312.364V65.016C312.132 65.328 311.816 65.588 311.416 65.796C311.016 66.004 310.56 66.108 310.048 66.108C309.48 66.108 308.96 65.964 308.488 65.676C308.016 65.38 307.64 64.972 307.36 64.452C307.088 63.924 306.952 63.328 306.952 62.664ZM312.364 62.688C312.364 62.232 312.268 61.836 312.076 61.5C311.892 61.164 311.648 60.908 311.344 60.732C311.04 60.556 310.712 60.468 310.36 60.468C310.008 60.468 309.68 60.556 309.376 60.732C309.072 60.9 308.824 61.152 308.632 61.488C308.448 61.816 308.356 62.208 308.356 62.664C308.356 63.12 308.448 63.52 308.632 63.864C308.824 64.208 309.072 64.472 309.376 64.656C309.688 64.832 310.016 64.92 310.36 64.92C310.712 64.92 311.04 64.832 311.344 64.656C311.648 64.48 311.892 64.224 312.076 63.888C312.268 63.544 312.364 63.144 312.364 62.688ZM321.493 59.388L317.437 69.108H316.021L317.365 65.892L314.761 59.388H316.285L318.145 64.428L320.077 59.388H321.493ZM324.925 66.108C324.405 66.108 323.937 66.016 323.521 65.832C323.113 65.64 322.789 65.384 322.549 65.064C322.309 64.736 322.181 64.372 322.165 63.972H323.581C323.605 64.252 323.737 64.488 323.977 64.68C324.225 64.864 324.533 64.956 324.901 64.956C325.285 64.956 325.581 64.884 325.789 64.74C326.005 64.588 326.113 64.396 326.113 64.164C326.113 63.916 325.993 63.732 325.753 63.612C325.521 63.492 325.149 63.36 324.637 63.216C324.141 63.08 323.737 62.948 323.425 62.82C323.113 62.692 322.841 62.496 322.609 62.232C322.385 61.968 322.273 61.62 322.273 61.188C322.273 60.836 322.377 60.516 322.585 60.228C322.793 59.932 323.089 59.7 323.473 59.532C323.865 59.364 324.313 59.28 324.817 59.28C325.569 59.28 326.173 59.472 326.629 59.856C327.093 60.232 327.341 60.748 327.373 61.404H326.005C325.981 61.108 325.861 60.872 325.645 60.696C325.429 60.52 325.137 60.432 324.769 60.432C324.409 60.432 324.133 60.5 323.941 60.636C323.749 60.772 323.653 60.952 323.653 61.176C323.653 61.352 323.717 61.5 323.845 61.62C323.973 61.74 324.129 61.836 324.313 61.908C324.497 61.972 324.769 62.056 325.129 62.16C325.609 62.288 326.001 62.42 326.305 62.556C326.617 62.684 326.885 62.876 327.109 63.132C327.333 63.388 327.449 63.728 327.457 64.152C327.457 64.528 327.353 64.864 327.145 65.16C326.937 65.456 326.641 65.688 326.257 65.856C325.881 66.024 325.437 66.108 324.925 66.108Z" fill="black"/>
<path d="M309.011 102.511C307.057 102.504 305.375 102.023 303.966 101.068C302.564 100.114 301.485 98.7311 300.727 96.9205C299.977 95.1098 299.606 92.9318 299.614 90.3864C299.614 87.8485 299.989 85.6856 300.739 83.8977C301.496 82.1098 302.576 80.75 303.977 79.8182C305.386 78.8788 307.064 78.4091 309.011 78.4091C310.958 78.4091 312.633 78.8788 314.034 79.8182C315.443 80.7576 316.527 82.1212 317.284 83.9091C318.042 85.6894 318.417 87.8485 318.409 90.3864C318.409 92.9394 318.03 95.1212 317.273 96.9318C316.523 98.7424 315.447 100.125 314.045 101.08C312.644 102.034 310.966 102.511 309.011 102.511ZM309.011 98.4318C310.345 98.4318 311.409 97.7614 312.205 96.4205C313 95.0795 313.394 93.0682 313.386 90.3864C313.386 88.6212 313.205 87.1515 312.841 85.9773C312.485 84.803 311.977 83.9205 311.318 83.3295C310.667 82.7386 309.898 82.4432 309.011 82.4432C307.686 82.4432 306.625 83.1061 305.83 84.4318C305.034 85.7576 304.633 87.7424 304.625 90.3864C304.625 92.1742 304.803 93.6667 305.159 94.8636C305.523 96.053 306.034 96.947 306.693 97.5455C307.352 98.1364 308.125 98.4318 309.011 98.4318ZM331.8 102.318C330.103 102.318 328.592 102.027 327.266 101.443C325.948 100.852 324.906 100.042 324.141 99.0114C323.383 97.9735 322.993 96.7765 322.97 95.4205H327.925C327.955 95.9886 328.141 96.4886 328.482 96.9205C328.83 97.3447 329.292 97.6742 329.868 97.9091C330.444 98.1439 331.092 98.2614 331.811 98.2614C332.561 98.2614 333.224 98.1288 333.8 97.8636C334.376 97.5985 334.826 97.2311 335.152 96.7614C335.478 96.2917 335.641 95.75 335.641 95.1364C335.641 94.5152 335.467 93.9659 335.118 93.4886C334.777 93.0038 334.285 92.625 333.641 92.3523C333.004 92.0795 332.247 91.9432 331.368 91.9432H329.198V88.3295H331.368C332.11 88.3295 332.766 88.2008 333.334 87.9432C333.91 87.6856 334.357 87.3295 334.675 86.875C334.993 86.4129 335.152 85.875 335.152 85.2614C335.152 84.678 335.012 84.1667 334.732 83.7273C334.459 83.2803 334.073 82.9318 333.573 82.6818C333.08 82.4318 332.504 82.3068 331.845 82.3068C331.179 82.3068 330.569 82.428 330.016 82.6705C329.463 82.9053 329.02 83.2424 328.686 83.6818C328.353 84.1212 328.175 84.6364 328.152 85.2273H323.436C323.459 83.8864 323.842 82.7045 324.584 81.6818C325.326 80.6591 326.326 79.8598 327.584 79.2841C328.849 78.7008 330.277 78.4091 331.868 78.4091C333.474 78.4091 334.879 78.7008 336.084 79.2841C337.289 79.8674 338.224 80.6553 338.891 81.6477C339.565 82.6326 339.898 83.7386 339.891 84.9659C339.898 86.2689 339.493 87.3561 338.675 88.2273C337.864 89.0985 336.807 89.6515 335.504 89.8864V90.0682C337.217 90.2879 338.52 90.8826 339.414 91.8523C340.315 92.8144 340.762 94.0189 340.754 95.4659C340.762 96.7917 340.379 97.9697 339.607 99C338.842 100.03 337.785 100.841 336.436 101.432C335.088 102.023 333.542 102.318 331.8 102.318Z" fill="black"/>
<path d="M389.56 57.66V66H388.192V62.352H384.268V66H382.9V57.66H384.268V61.236H388.192V57.66H389.56ZM394.229 66.108C393.605 66.108 393.041 65.968 392.537 65.688C392.033 65.4 391.637 65 391.349 64.488C391.061 63.968 390.917 63.368 390.917 62.688C390.917 62.016 391.065 61.42 391.361 60.9C391.657 60.38 392.061 59.98 392.573 59.7C393.085 59.42 393.657 59.28 394.289 59.28C394.921 59.28 395.493 59.42 396.005 59.7C396.517 59.98 396.921 60.38 397.217 60.9C397.513 61.42 397.661 62.016 397.661 62.688C397.661 63.36 397.509 63.956 397.205 64.476C396.901 64.996 396.485 65.4 395.957 65.688C395.437 65.968 394.861 66.108 394.229 66.108ZM394.229 64.92C394.581 64.92 394.909 64.836 395.213 64.668C395.525 64.5 395.777 64.248 395.969 63.912C396.161 63.576 396.257 63.168 396.257 62.688C396.257 62.208 396.165 61.804 395.981 61.476C395.797 61.14 395.553 60.888 395.249 60.72C394.945 60.552 394.617 60.468 394.265 60.468C393.913 60.468 393.585 60.552 393.281 60.72C392.985 60.888 392.749 61.14 392.573 61.476C392.397 61.804 392.309 62.208 392.309 62.688C392.309 63.4 392.489 63.952 392.849 64.344C393.217 64.728 393.677 64.92 394.229 64.92ZM405.001 59.388V66H403.633V65.22C403.417 65.492 403.133 65.708 402.781 65.868C402.437 66.02 402.069 66.096 401.677 66.096C401.157 66.096 400.689 65.988 400.273 65.772C399.865 65.556 399.541 65.236 399.301 64.812C399.069 64.388 398.953 63.876 398.953 63.276V59.388H400.309V63.072C400.309 63.664 400.457 64.12 400.753 64.44C401.049 64.752 401.453 64.908 401.965 64.908C402.477 64.908 402.881 64.752 403.177 64.44C403.481 64.12 403.633 63.664 403.633 63.072V59.388H405.001ZM408.174 60.348C408.374 60.012 408.638 59.752 408.966 59.568C409.302 59.376 409.698 59.28 410.154 59.28V60.696H409.806C409.27 60.696 408.862 60.832 408.582 61.104C408.31 61.376 408.174 61.848 408.174 62.52V66H406.806V59.388H408.174V60.348ZM413.812 66.108C413.292 66.108 412.824 66.016 412.408 65.832C412 65.64 411.676 65.384 411.436 65.064C411.196 64.736 411.068 64.372 411.052 63.972H412.468C412.492 64.252 412.624 64.488 412.864 64.68C413.112 64.864 413.42 64.956 413.788 64.956C414.172 64.956 414.468 64.884 414.676 64.74C414.892 64.588 415 64.396 415 64.164C415 63.916 414.88 63.732 414.64 63.612C414.408 63.492 414.036 63.36 413.524 63.216C413.028 63.08 412.624 62.948 412.312 62.82C412 62.692 411.728 62.496 411.496 62.232C411.272 61.968 411.16 61.62 411.16 61.188C411.16 60.836 411.264 60.516 411.472 60.228C411.68 59.932 411.976 59.7 412.36 59.532C412.752 59.364 413.2 59.28 413.704 59.28C414.456 59.28 415.06 59.472 415.516 59.856C415.98 60.232 416.228 60.748 416.26 61.404H414.892C414.868 61.108 414.748 60.872 414.532 60.696C414.316 60.52 414.024 60.432 413.656 60.432C413.296 60.432 413.02 60.5 412.828 60.636C412.636 60.772 412.54 60.952 412.54 61.176C412.54 61.352 412.604 61.5 412.732 61.62C412.86 61.74 413.016 61.836 413.2 61.908C413.384 61.972 413.656 62.056 414.016 62.16C414.496 62.288 414.888 62.42 415.192 62.556C415.504 62.684 415.772 62.876 415.996 63.132C416.22 63.388 416.336 63.728 416.344 64.152C416.344 64.528 416.24 64.864 416.032 65.16C415.824 65.456 415.528 65.688 415.144 65.856C414.768 66.024 414.324 66.108 413.812 66.108Z" fill="black"/>
<path d="M383.886 102V98.4545L392.17 90.7841C392.875 90.1023 393.466 89.4886 393.943 88.9432C394.428 88.3977 394.795 87.8636 395.045 87.3409C395.295 86.8106 395.42 86.2386 395.42 85.625C395.42 84.9432 395.265 84.3561 394.955 83.8636C394.644 83.3636 394.22 82.9811 393.682 82.7159C393.144 82.4432 392.534 82.3068 391.852 82.3068C391.14 82.3068 390.519 82.4508 389.989 82.7386C389.458 83.0265 389.049 83.4394 388.761 83.9773C388.473 84.5152 388.33 85.1553 388.33 85.8977H383.659C383.659 84.375 384.004 83.053 384.693 81.9318C385.383 80.8106 386.348 79.9432 387.591 79.3295C388.833 78.7159 390.265 78.4091 391.886 78.4091C393.553 78.4091 395.004 78.7045 396.239 79.2955C397.481 79.8788 398.447 80.6894 399.136 81.7273C399.826 82.7652 400.17 83.9545 400.17 85.2955C400.17 86.1742 399.996 87.0417 399.648 87.8977C399.307 88.7538 398.697 89.7045 397.818 90.75C396.939 91.7879 395.701 93.0341 394.102 94.4886L390.705 97.8182V97.9773H400.477V102H383.886ZM413.925 102.318C412.228 102.318 410.717 102.027 409.391 101.443C408.073 100.852 407.031 100.042 406.266 99.0114C405.508 97.9735 405.118 96.7765 405.095 95.4205H410.05C410.08 95.9886 410.266 96.4886 410.607 96.9205C410.955 97.3447 411.417 97.6742 411.993 97.9091C412.569 98.1439 413.217 98.2614 413.936 98.2614C414.686 98.2614 415.349 98.1288 415.925 97.8636C416.501 97.5985 416.951 97.2311 417.277 96.7614C417.603 96.2917 417.766 95.75 417.766 95.1364C417.766 94.5152 417.592 93.9659 417.243 93.4886C416.902 93.0038 416.41 92.625 415.766 92.3523C415.129 92.0795 414.372 91.9432 413.493 91.9432H411.323V88.3295H413.493C414.235 88.3295 414.891 88.2008 415.459 87.9432C416.035 87.6856 416.482 87.3295 416.8 86.875C417.118 86.4129 417.277 85.875 417.277 85.2614C417.277 84.678 417.137 84.1667 416.857 83.7273C416.584 83.2803 416.198 82.9318 415.698 82.6818C415.205 82.4318 414.629 82.3068 413.97 82.3068C413.304 82.3068 412.694 82.428 412.141 82.6705C411.588 82.9053 411.145 83.2424 410.811 83.6818C410.478 84.1212 410.3 84.6364 410.277 85.2273H405.561C405.584 83.8864 405.967 82.7045 406.709 81.6818C407.451 80.6591 408.451 79.8598 409.709 79.2841C410.974 78.7008 412.402 78.4091 413.993 78.4091C415.599 78.4091 417.004 78.7008 418.209 79.2841C419.414 79.8674 420.349 80.6553 421.016 81.6477C421.69 82.6326 422.023 83.7386 422.016 84.9659C422.023 86.2689 421.618 87.3561 420.8 88.2273C419.989 89.0985 418.932 89.6515 417.629 89.8864V90.0682C419.342 90.2879 420.645 90.8826 421.539 91.8523C422.44 92.8144 422.887 94.0189 422.879 95.4659C422.887 96.7917 422.504 97.9697 421.732 99C420.967 100.03 419.91 100.841 418.561 101.432C417.213 102.023 415.667 102.318 413.925 102.318Z" fill="black"/>
<path d="M471.684 57.66V66H470.316V60.288L467.772 66H466.824L464.268 60.288V66H462.9V57.66H464.376L467.304 64.2L470.22 57.66H471.684ZM474.178 58.512C473.93 58.512 473.722 58.428 473.554 58.26C473.386 58.092 473.302 57.884 473.302 57.636C473.302 57.388 473.386 57.18 473.554 57.012C473.722 56.844 473.93 56.76 474.178 56.76C474.418 56.76 474.622 56.844 474.79 57.012C474.958 57.18 475.042 57.388 475.042 57.636C475.042 57.884 474.958 58.092 474.79 58.26C474.622 58.428 474.418 58.512 474.178 58.512ZM474.85 59.388V66H473.482V59.388H474.85ZM479.982 59.28C480.502 59.28 480.966 59.388 481.374 59.604C481.79 59.82 482.114 60.14 482.346 60.564C482.578 60.988 482.694 61.5 482.694 62.1V66H481.338V62.304C481.338 61.712 481.19 61.26 480.894 60.948C480.598 60.628 480.194 60.468 479.682 60.468C479.17 60.468 478.762 60.628 478.458 60.948C478.162 61.26 478.014 61.712 478.014 62.304V66H476.646V59.388H478.014V60.144C478.238 59.872 478.522 59.66 478.866 59.508C479.218 59.356 479.59 59.28 479.982 59.28ZM490.427 59.388V66H489.059V65.22C488.843 65.492 488.559 65.708 488.207 65.868C487.863 66.02 487.495 66.096 487.103 66.096C486.583 66.096 486.115 65.988 485.699 65.772C485.291 65.556 484.967 65.236 484.727 64.812C484.495 64.388 484.379 63.876 484.379 63.276V59.388H485.735V63.072C485.735 63.664 485.883 64.12 486.179 64.44C486.475 64.752 486.879 64.908 487.391 64.908C487.903 64.908 488.307 64.752 488.603 64.44C488.907 64.12 489.059 63.664 489.059 63.072V59.388H490.427ZM493.828 60.504V64.164C493.828 64.412 493.884 64.592 493.996 64.704C494.116 64.808 494.316 64.86 494.596 64.86H495.436V66H494.356C493.74 66 493.268 65.856 492.94 65.568C492.612 65.28 492.448 64.812 492.448 64.164V60.504H491.668V59.388H492.448V57.744H493.828V59.388H495.436V60.504H493.828ZM502.757 62.532C502.757 62.78 502.741 63.004 502.709 63.204H497.657C497.697 63.732 497.893 64.156 498.245 64.476C498.597 64.796 499.029 64.956 499.541 64.956C500.277 64.956 500.797 64.648 501.101 64.032H502.577C502.377 64.64 502.013 65.14 501.485 65.532C500.965 65.916 500.317 66.108 499.541 66.108C498.909 66.108 498.341 65.968 497.837 65.688C497.341 65.4 496.949 65 496.661 64.488C496.381 63.968 496.241 63.368 496.241 62.688C496.241 62.008 496.377 61.412 496.649 60.9C496.929 60.38 497.317 59.98 497.813 59.7C498.317 59.42 498.893 59.28 499.541 59.28C500.165 59.28 500.721 59.416 501.209 59.688C501.697 59.96 502.077 60.344 502.349 60.84C502.621 61.328 502.757 61.892 502.757 62.532ZM501.329 62.1C501.321 61.596 501.141 61.192 500.789 60.888C500.437 60.584 500.001 60.432 499.481 60.432C499.009 60.432 498.605 60.584 498.269 60.888C497.933 61.184 497.733 61.588 497.669 62.1H501.329ZM506.503 66.108C505.983 66.108 505.515 66.016 505.099 65.832C504.691 65.64 504.367 65.384 504.127 65.064C503.887 64.736 503.759 64.372 503.743 63.972H505.159C505.183 64.252 505.315 64.488 505.555 64.68C505.803 64.864 506.111 64.956 506.479 64.956C506.863 64.956 507.159 64.884 507.367 64.74C507.583 64.588 507.691 64.396 507.691 64.164C507.691 63.916 507.571 63.732 507.331 63.612C507.099 63.492 506.727 63.36 506.215 63.216C505.719 63.08 505.315 62.948 505.003 62.82C504.691 62.692 504.419 62.496 504.187 62.232C503.963 61.968 503.851 61.62 503.851 61.188C503.851 60.836 503.955 60.516 504.163 60.228C504.371 59.932 504.667 59.7 505.051 59.532C505.443 59.364 505.891 59.28 506.395 59.28C507.147 59.28 507.751 59.472 508.207 59.856C508.671 60.232 508.919 60.748 508.951 61.404H507.583C507.559 61.108 507.439 60.872 507.223 60.696C507.007 60.52 506.715 60.432 506.347 60.432C505.987 60.432 505.711 60.5 505.519 60.636C505.327 60.772 505.231 60.952 505.231 61.176C505.231 61.352 505.295 61.5 505.423 61.62C505.551 61.74 505.707 61.836 505.891 61.908C506.075 61.972 506.347 62.056 506.707 62.16C507.187 62.288 507.579 62.42 507.883 62.556C508.195 62.684 508.463 62.876 508.687 63.132C508.911 63.388 509.027 63.728 509.035 64.152C509.035 64.528 508.931 64.864 508.723 65.16C508.515 65.456 508.219 65.688 507.835 65.856C507.459 66.024 507.015 66.108 506.503 66.108Z" fill="black"/>
<path d="M474.011 78.7273V102H469.091V83.3977H468.955L463.625 86.7386V82.375L469.386 78.7273H474.011ZM489.243 78.4091C490.44 78.4091 491.592 78.6098 492.698 79.0114C493.811 79.4129 494.804 80.053 495.675 80.9318C496.554 81.8106 497.247 82.9773 497.754 84.4318C498.27 85.8788 498.531 87.6553 498.539 89.7614C498.539 91.7386 498.315 93.5038 497.868 95.0568C497.429 96.6023 496.796 97.9167 495.97 99C495.145 100.083 494.148 100.909 492.982 101.477C491.815 102.038 490.512 102.318 489.073 102.318C487.52 102.318 486.148 102.019 484.959 101.42C483.77 100.814 482.811 99.9924 482.084 98.9545C481.364 97.9091 480.929 96.7348 480.777 95.4318H485.629C485.819 96.2803 486.217 96.9394 486.823 97.4091C487.429 97.8712 488.179 98.1023 489.073 98.1023C490.588 98.1023 491.739 97.4432 492.527 96.125C493.315 94.7992 493.713 92.9848 493.72 90.6818H493.561C493.213 91.3636 492.743 91.9508 492.152 92.4432C491.561 92.928 490.883 93.303 490.118 93.5682C489.36 93.8333 488.554 93.9659 487.698 93.9659C486.326 93.9659 485.103 93.6439 484.027 93C482.951 92.3561 482.103 91.4697 481.482 90.3409C480.86 89.2121 480.55 87.9242 480.55 86.4773C480.542 84.9167 480.902 83.5265 481.629 82.3068C482.357 81.0871 483.372 80.1326 484.675 79.4432C485.985 78.7462 487.508 78.4015 489.243 78.4091ZM489.277 82.2727C488.512 82.2727 487.83 82.4545 487.232 82.8182C486.641 83.1818 486.171 83.6705 485.823 84.2841C485.482 84.8977 485.315 85.5833 485.323 86.3409C485.323 87.1061 485.489 87.7955 485.823 88.4091C486.164 89.0152 486.626 89.5 487.209 89.8636C487.8 90.2197 488.474 90.3977 489.232 90.3977C489.8 90.3977 490.326 90.2917 490.811 90.0795C491.296 89.8674 491.717 89.5758 492.073 89.2045C492.436 88.8258 492.72 88.3902 492.925 87.8977C493.129 87.4053 493.232 86.8826 493.232 86.3295C493.224 85.5947 493.05 84.9205 492.709 84.3068C492.368 83.6932 491.898 83.2008 491.3 82.8295C490.701 82.4583 490.027 82.2727 489.277 82.2727Z" fill="black"/>
<path d="M552.648 66.084C552.088 66.084 551.584 65.988 551.136 65.796C550.688 65.596 550.336 65.316 550.08 64.956C549.824 64.596 549.696 64.176 549.696 63.696H551.16C551.192 64.056 551.332 64.352 551.58 64.584C551.836 64.816 552.192 64.932 552.648 64.932C553.12 64.932 553.488 64.82 553.752 64.596C554.016 64.364 554.148 64.068 554.148 63.708C554.148 63.428 554.064 63.2 553.896 63.024C553.736 62.848 553.532 62.712 553.284 62.616C553.044 62.52 552.708 62.416 552.276 62.304C551.732 62.16 551.288 62.016 550.944 61.872C550.608 61.72 550.32 61.488 550.08 61.176C549.84 60.864 549.72 60.448 549.72 59.928C549.72 59.448 549.84 59.028 550.08 58.668C550.32 58.308 550.656 58.032 551.088 57.84C551.52 57.648 552.02 57.552 552.588 57.552C553.396 57.552 554.056 57.756 554.568 58.164C555.088 58.564 555.376 59.116 555.432 59.82H553.92C553.896 59.516 553.752 59.256 553.488 59.04C553.224 58.824 552.876 58.716 552.444 58.716C552.052 58.716 551.732 58.816 551.484 59.016C551.236 59.216 551.112 59.504 551.112 59.88C551.112 60.136 551.188 60.348 551.34 60.516C551.5 60.676 551.7 60.804 551.94 60.9C552.18 60.996 552.508 61.1 552.924 61.212C553.476 61.364 553.924 61.516 554.268 61.668C554.62 61.82 554.916 62.056 555.156 62.376C555.404 62.688 555.528 63.108 555.528 63.636C555.528 64.06 555.412 64.46 555.18 64.836C554.956 65.212 554.624 65.516 554.184 65.748C553.752 65.972 553.24 66.084 552.648 66.084ZM563.202 62.532C563.202 62.78 563.186 63.004 563.154 63.204H558.102C558.142 63.732 558.338 64.156 558.69 64.476C559.042 64.796 559.474 64.956 559.986 64.956C560.722 64.956 561.242 64.648 561.546 64.032H563.022C562.822 64.64 562.458 65.14 561.93 65.532C561.41 65.916 560.762 66.108 559.986 66.108C559.354 66.108 558.786 65.968 558.282 65.688C557.786 65.4 557.394 65 557.106 64.488C556.826 63.968 556.686 63.368 556.686 62.688C556.686 62.008 556.822 61.412 557.094 60.9C557.374 60.38 557.762 59.98 558.258 59.7C558.762 59.42 559.338 59.28 559.986 59.28C560.61 59.28 561.166 59.416 561.654 59.688C562.142 59.96 562.522 60.344 562.794 60.84C563.066 61.328 563.202 61.892 563.202 62.532ZM561.774 62.1C561.766 61.596 561.586 61.192 561.234 60.888C560.882 60.584 560.446 60.432 559.926 60.432C559.454 60.432 559.05 60.584 558.714 60.888C558.378 61.184 558.178 61.588 558.114 62.1H561.774ZM564.092 62.688C564.092 62.008 564.228 61.412 564.5 60.9C564.78 60.38 565.164 59.98 565.652 59.7C566.14 59.42 566.7 59.28 567.332 59.28C568.132 59.28 568.792 59.472 569.312 59.856C569.84 60.232 570.196 60.772 570.38 61.476H568.904C568.784 61.148 568.592 60.892 568.328 60.708C568.064 60.524 567.732 60.432 567.332 60.432C566.772 60.432 566.324 60.632 565.988 61.032C565.66 61.424 565.496 61.976 565.496 62.688C565.496 63.4 565.66 63.956 565.988 64.356C566.324 64.756 566.772 64.956 567.332 64.956C568.124 64.956 568.648 64.608 568.904 63.912H570.38C570.188 64.584 569.828 65.12 569.3 65.52C568.772 65.912 568.116 66.108 567.332 66.108C566.7 66.108 566.14 65.968 565.652 65.688C565.164 65.4 564.78 65 564.5 64.488C564.228 63.968 564.092 63.368 564.092 62.688ZM574.612 66.108C573.988 66.108 573.424 65.968 572.92 65.688C572.416 65.4 572.02 65 571.732 64.488C571.444 63.968 571.3 63.368 571.3 62.688C571.3 62.016 571.448 61.42 571.744 60.9C572.04 60.38 572.444 59.98 572.956 59.7C573.468 59.42 574.04 59.28 574.672 59.28C575.304 59.28 575.876 59.42 576.388 59.7C576.9 59.98 577.304 60.38 577.6 60.9C577.896 61.42 578.044 62.016 578.044 62.688C578.044 63.36 577.892 63.956 577.588 64.476C577.284 64.996 576.868 65.4 576.34 65.688C575.82 65.968 575.244 66.108 574.612 66.108ZM574.612 64.92C574.964 64.92 575.292 64.836 575.596 64.668C575.908 64.5 576.16 64.248 576.352 63.912C576.544 63.576 576.64 63.168 576.64 62.688C576.64 62.208 576.548 61.804 576.364 61.476C576.18 61.14 575.936 60.888 575.632 60.72C575.328 60.552 575 60.468 574.648 60.468C574.296 60.468 573.968 60.552 573.664 60.72C573.368 60.888 573.132 61.14 572.956 61.476C572.78 61.804 572.692 62.208 572.692 62.688C572.692 63.4 572.872 63.952 573.232 64.344C573.6 64.728 574.06 64.92 574.612 64.92ZM582.732 59.28C583.252 59.28 583.716 59.388 584.124 59.604C584.54 59.82 584.864 60.14 585.096 60.564C585.328 60.988 585.444 61.5 585.444 62.1V66H584.088V62.304C584.088 61.712 583.94 61.26 583.644 60.948C583.348 60.628 582.944 60.468 582.432 60.468C581.92 60.468 581.512 60.628 581.208 60.948C580.912 61.26 580.764 61.712 580.764 62.304V66H579.396V59.388H580.764V60.144C580.988 59.872 581.272 59.66 581.616 59.508C581.968 59.356 582.34 59.28 582.732 59.28ZM586.733 62.664C586.733 62 586.869 61.412 587.141 60.9C587.421 60.388 587.797 59.992 588.269 59.712C588.749 59.424 589.281 59.28 589.865 59.28C590.297 59.28 590.721 59.376 591.137 59.568C591.561 59.752 591.897 60 592.145 60.312V57.12H593.525V66H592.145V65.004C591.921 65.324 591.609 65.588 591.209 65.796C590.817 66.004 590.365 66.108 589.853 66.108C589.277 66.108 588.749 65.964 588.269 65.676C587.797 65.38 587.421 64.972 587.141 64.452C586.869 63.924 586.733 63.328 586.733 62.664ZM592.145 62.688C592.145 62.232 592.049 61.836 591.857 61.5C591.673 61.164 591.429 60.908 591.125 60.732C590.821 60.556 590.493 60.468 590.141 60.468C589.789 60.468 589.461 60.556 589.157 60.732C588.853 60.9 588.605 61.152 588.413 61.488C588.229 61.816 588.137 62.208 588.137 62.664C588.137 63.12 588.229 63.52 588.413 63.864C588.605 64.208 588.853 64.472 589.157 64.656C589.469 64.832 589.797 64.92 590.141 64.92C590.493 64.92 590.821 64.832 591.125 64.656C591.429 64.48 591.673 64.224 591.857 63.888C592.049 63.544 592.145 63.144 592.145 62.688ZM597.722 66.108C597.202 66.108 596.734 66.016 596.318 65.832C595.91 65.64 595.586 65.384 595.346 65.064C595.106 64.736 594.978 64.372 594.962 63.972H596.378C596.402 64.252 596.534 64.488 596.774 64.68C597.022 64.864 597.33 64.956 597.698 64.956C598.082 64.956 598.378 64.884 598.586 64.74C598.802 64.588 598.91 64.396 598.91 64.164C598.91 63.916 598.79 63.732 598.55 63.612C598.318 63.492 597.946 63.36 597.434 63.216C596.938 63.08 596.534 62.948 596.222 62.82C595.91 62.692 595.638 62.496 595.406 62.232C595.182 61.968 595.07 61.62 595.07 61.188C595.07 60.836 595.174 60.516 595.382 60.228C595.59 59.932 595.886 59.7 596.27 59.532C596.662 59.364 597.11 59.28 597.614 59.28C598.366 59.28 598.97 59.472 599.426 59.856C599.89 60.232 600.138 60.748 600.17 61.404H598.802C598.778 61.108 598.658 60.872 598.442 60.696C598.226 60.52 597.934 60.432 597.566 60.432C597.206 60.432 596.93 60.5 596.738 60.636C596.546 60.772 596.45 60.952 596.45 61.176C596.45 61.352 596.514 61.5 596.642 61.62C596.77 61.74 596.926 61.836 597.11 61.908C597.294 61.972 597.566 62.056 597.926 62.16C598.406 62.288 598.798 62.42 599.102 62.556C599.414 62.684 599.682 62.876 599.906 63.132C600.13 63.388 600.246 63.728 600.254 64.152C600.254 64.528 600.15 64.864 599.942 65.16C599.734 65.456 599.438 65.688 599.054 65.856C598.678 66.024 598.234 66.108 597.722 66.108Z" fill="black"/>
<path d="M559.386 102.318C557.78 102.318 556.348 102.023 555.091 101.432C553.841 100.841 552.848 100.027 552.114 98.9886C551.379 97.9508 550.996 96.7614 550.966 95.4205H555.739C555.792 96.322 556.17 97.053 556.875 97.6136C557.58 98.1742 558.417 98.4545 559.386 98.4545C560.159 98.4545 560.841 98.2841 561.432 97.9432C562.03 97.5947 562.496 97.1136 562.83 96.5C563.17 95.8788 563.341 95.1667 563.341 94.3636C563.341 93.5455 563.167 92.8258 562.818 92.2045C562.477 91.5833 562.004 91.0985 561.398 90.75C560.792 90.4015 560.098 90.2235 559.318 90.2159C558.636 90.2159 557.973 90.3561 557.33 90.6364C556.693 90.9167 556.197 91.2992 555.841 91.7841L551.466 91L552.568 78.7273H566.795V82.75H556.625L556.023 88.5795H556.159C556.568 88.0038 557.186 87.5265 558.011 87.1477C558.837 86.7689 559.761 86.5795 560.784 86.5795C562.186 86.5795 563.436 86.9091 564.534 87.5682C565.633 88.2273 566.5 89.1326 567.136 90.2841C567.773 91.428 568.087 92.7462 568.08 94.2386C568.087 95.8068 567.723 97.2008 566.989 98.4205C566.261 99.6326 565.242 100.587 563.932 101.284C562.629 101.973 561.114 102.318 559.386 102.318ZM581.723 102.318C580.526 102.311 579.371 102.11 578.257 101.716C577.151 101.322 576.159 100.682 575.28 99.7955C574.401 98.9091 573.704 97.7348 573.189 96.2727C572.682 94.8106 572.428 93.0152 572.428 90.8864C572.435 88.9318 572.659 87.1856 573.098 85.6477C573.545 84.1023 574.182 82.7917 575.007 81.7159C575.841 80.6402 576.837 79.822 577.996 79.2614C579.155 78.6932 580.454 78.4091 581.894 78.4091C583.447 78.4091 584.818 78.7121 586.007 79.3182C587.197 79.9167 588.151 80.7311 588.871 81.7614C589.598 82.7917 590.038 83.947 590.189 85.2273H585.337C585.147 84.4167 584.75 83.7803 584.144 83.3182C583.538 82.8561 582.788 82.625 581.894 82.625C580.378 82.625 579.227 83.2841 578.439 84.6023C577.659 85.9205 577.261 87.7121 577.246 89.9773H577.405C577.753 89.2879 578.223 88.7008 578.814 88.2159C579.413 87.7235 580.091 87.3485 580.848 87.0909C581.613 86.8258 582.42 86.6932 583.269 86.6932C584.647 86.6932 585.875 87.0189 586.95 87.6705C588.026 88.3144 588.875 89.2008 589.496 90.3295C590.117 91.4583 590.428 92.75 590.428 94.2045C590.428 95.7803 590.06 97.1818 589.325 98.4091C588.598 99.6364 587.579 100.598 586.269 101.295C584.966 101.985 583.45 102.326 581.723 102.318ZM581.7 98.4545C582.458 98.4545 583.136 98.2727 583.735 97.9091C584.333 97.5455 584.803 97.053 585.144 96.4318C585.485 95.8106 585.655 95.1136 585.655 94.3409C585.655 93.5682 585.485 92.875 585.144 92.2614C584.81 91.6477 584.348 91.1591 583.757 90.7955C583.166 90.4318 582.492 90.25 581.735 90.25C581.166 90.25 580.64 90.3561 580.155 90.5682C579.678 90.7803 579.257 91.0758 578.894 91.4545C578.538 91.8333 578.257 92.2727 578.053 92.7727C577.848 93.2652 577.746 93.7917 577.746 94.3523C577.746 95.1023 577.916 95.7879 578.257 96.4091C578.606 97.0303 579.075 97.5265 579.666 97.8977C580.265 98.2689 580.943 98.4545 581.7 98.4545Z" fill="black"/>
<circle cx="363" cy="81" r="2" fill="#E07575"/>
<circle cx="363" cy="93" r="2" fill="#E07575"/>
<circle cx="443" cy="81" r="2" fill="#E07575"/>
<circle cx="443" cy="93" r="2" fill="#E07575"/>
<circle cx="530" cy="81" r="2" fill="#E07575"/>
<circle cx="530" cy="93" r="2" fill="#E07575"/>
</svg>
