<svg width="399" height="168" viewBox="0 0 399 168" fill="none" xmlns="http://www.w3.org/2000/svg">
<rect x="0.5" y="0.5" width="398" height="167" rx="3.5" stroke="black" stroke-opacity="0.5"/>
<g clip-path="url(#clip0_11_5806)">
<path d="M31.6668 54.6667C33.5078 54.6667 35.0002 53.1743 35.0002 51.3333C35.0002 49.4924 33.5078 48 31.6668 48C29.8259 48 28.3335 49.4924 28.3335 51.3333C28.3335 53.1743 29.8259 54.6667 31.6668 54.6667Z" stroke="black" stroke-width="2" stroke-linecap="round" stroke-linejoin="round"/>
<path d="M48.3333 54.6667C50.1743 54.6667 51.6667 53.1743 51.6667 51.3333C51.6667 49.4924 50.1743 48 48.3333 48C46.4924 48 45 49.4924 45 51.3333C45 53.1743 46.4924 54.6667 48.3333 54.6667Z" stroke="black" stroke-width="2" stroke-linecap="round" stroke-linejoin="round"/>
<path d="M28.3335 51.3335H27.0002C25.8956 51.3335 25.0002 50.4381 25.0002 49.3335V44.6668M23.3335 31.3335H39.6668C40.7714 31.3335 41.6668 32.2289 41.6668 33.3335V51.3335M35.0002 51.3335H45.0002M51.6668 51.3335H53.0002C54.1047 51.3335 55.0002 50.4381 55.0002 49.3335V41.3335M55.0002 41.3335H41.6668M55.0002 41.3335L50.5828 33.9712C50.2213 33.3688 49.5703 33.0002 48.8678 33.0002H41.6668" stroke="black" stroke-width="2" stroke-linecap="round" stroke-linejoin="round"/>
<path d="M28 51H26.6667C25.5621 51 24.6667 50.1046 24.6667 49V44.3333M23 31H39.3333C40.4379 31 41.3333 31.8954 41.3333 33V51M35 51H44.6667M52 51H52.6667C53.7712 51 54.6667 50.1046 54.6667 49V41M54.6667 41H41.3333M54.6667 41L50.2493 33.6377C49.8878 33.0353 49.2368 32.6667 48.5343 32.6667H41.3333" stroke="black" stroke-width="2" stroke-linecap="round" stroke-linejoin="round"/>
<path d="M25 34.8181H31.6667" stroke="black" stroke-width="2" stroke-linecap="round" stroke-linejoin="round"/>
<path d="M21.8184 38.4546H28.485" stroke="black" stroke-width="2" stroke-linecap="round" stroke-linejoin="round"/>
<path d="M25 42.0908H31.6667" stroke="black" stroke-width="2" stroke-linecap="round" stroke-linejoin="round"/>
</g>
<path d="M83.744 26.88V28.368H79.024V31.648H82.704V33.136H79.024V38H77.2V26.88H83.744ZM87.2584 30.464C87.525 30.016 87.877 29.6693 88.3144 29.424C88.7624 29.168 89.2904 29.04 89.8984 29.04V30.928H89.4344C88.7197 30.928 88.1757 31.1093 87.8024 31.472C87.4397 31.8347 87.2584 32.464 87.2584 33.36V38H85.4344V29.184H87.2584V30.464ZM99.655 33.376C99.655 33.7067 99.6337 34.0053 99.591 34.272H92.855C92.9083 34.976 93.1697 35.5413 93.639 35.968C94.1083 36.3947 94.6843 36.608 95.367 36.608C96.3483 36.608 97.0417 36.1973 97.447 35.376H99.415C99.1483 36.1867 98.663 36.8533 97.959 37.376C97.2657 37.888 96.4017 38.144 95.367 38.144C94.5243 38.144 93.767 37.9573 93.095 37.584C92.4337 37.2 91.911 36.6667 91.527 35.984C91.1537 35.2907 90.967 34.4907 90.967 33.584C90.967 32.6773 91.1483 31.8827 91.511 31.2C91.8843 30.5067 92.4017 29.9733 93.063 29.6C93.735 29.2267 94.503 29.04 95.367 29.04C96.199 29.04 96.9403 29.2213 97.591 29.584C98.2417 29.9467 98.7483 30.4587 99.111 31.12C99.4737 31.7707 99.655 32.5227 99.655 33.376ZM97.751 32.8C97.7403 32.128 97.5003 31.5893 97.031 31.184C96.5617 30.7787 95.9803 30.576 95.287 30.576C94.6577 30.576 94.119 30.7787 93.671 31.184C93.223 31.5787 92.9563 32.1173 92.871 32.8H97.751ZM109.53 33.376C109.53 33.7067 109.509 34.0053 109.466 34.272H102.73C102.783 34.976 103.045 35.5413 103.514 35.968C103.983 36.3947 104.559 36.608 105.242 36.608C106.223 36.608 106.917 36.1973 107.322 35.376H109.29C109.023 36.1867 108.538 36.8533 107.834 37.376C107.141 37.888 106.277 38.144 105.242 38.144C104.399 38.144 103.642 37.9573 102.97 37.584C102.309 37.2 101.786 36.6667 101.402 35.984C101.029 35.2907 100.842 34.4907 100.842 33.584C100.842 32.6773 101.023 31.8827 101.386 31.2C101.759 30.5067 102.277 29.9733 102.938 29.6C103.61 29.2267 104.378 29.04 105.242 29.04C106.074 29.04 106.815 29.2213 107.466 29.584C108.117 29.9467 108.623 30.4587 108.986 31.12C109.349 31.7707 109.53 32.5227 109.53 33.376ZM107.626 32.8C107.615 32.128 107.375 31.5893 106.906 31.184C106.437 30.7787 105.855 30.576 105.162 30.576C104.533 30.576 103.994 30.7787 103.546 31.184C103.098 31.5787 102.831 32.1173 102.746 32.8H107.626ZM119.113 26.88C120.297 26.88 121.332 27.1093 122.217 27.568C123.113 28.016 123.801 28.6667 124.281 29.52C124.772 30.3627 125.017 31.3493 125.017 32.48C125.017 33.6107 124.772 34.592 124.281 35.424C123.801 36.256 123.113 36.896 122.217 37.344C121.332 37.7813 120.297 38 119.113 38H115.481V26.88H119.113ZM119.113 36.512C120.415 36.512 121.412 36.16 122.105 35.456C122.799 34.752 123.145 33.76 123.145 32.48C123.145 31.1893 122.799 30.1813 122.105 29.456C121.412 28.7307 120.415 28.368 119.113 28.368H117.305V36.512H119.113ZM134.905 33.376C134.905 33.7067 134.884 34.0053 134.841 34.272H128.105C128.158 34.976 128.42 35.5413 128.889 35.968C129.358 36.3947 129.934 36.608 130.617 36.608C131.598 36.608 132.292 36.1973 132.697 35.376H134.665C134.398 36.1867 133.913 36.8533 133.209 37.376C132.516 37.888 131.652 38.144 130.617 38.144C129.774 38.144 129.017 37.9573 128.345 37.584C127.684 37.2 127.161 36.6667 126.777 35.984C126.404 35.2907 126.217 34.4907 126.217 33.584C126.217 32.6773 126.398 31.8827 126.761 31.2C127.134 30.5067 127.652 29.9733 128.313 29.6C128.985 29.2267 129.753 29.04 130.617 29.04C131.449 29.04 132.19 29.2213 132.841 29.584C133.492 29.9467 133.998 30.4587 134.361 31.12C134.724 31.7707 134.905 32.5227 134.905 33.376ZM133.001 32.8C132.99 32.128 132.75 31.5893 132.281 31.184C131.812 30.7787 131.23 30.576 130.537 30.576C129.908 30.576 129.369 30.7787 128.921 31.184C128.473 31.5787 128.206 32.1173 128.121 32.8H133.001ZM138.524 26.16V38H136.7V26.16H138.524ZM141.847 28.016C141.516 28.016 141.239 27.904 141.015 27.68C140.791 27.456 140.679 27.1787 140.679 26.848C140.679 26.5173 140.791 26.24 141.015 26.016C141.239 25.792 141.516 25.68 141.847 25.68C142.167 25.68 142.439 25.792 142.663 26.016C142.887 26.24 142.999 26.5173 142.999 26.848C142.999 27.1787 142.887 27.456 142.663 27.68C142.439 27.904 142.167 28.016 141.847 28.016ZM142.743 29.184V38H140.919V29.184H142.743ZM148.546 36.368L151.042 29.184H152.977L149.618 38H147.442L144.098 29.184H146.049L148.546 36.368ZM162.436 33.376C162.436 33.7067 162.415 34.0053 162.372 34.272H155.636C155.69 34.976 155.951 35.5413 156.42 35.968C156.89 36.3947 157.466 36.608 158.148 36.608C159.13 36.608 159.823 36.1973 160.228 35.376H162.196C161.93 36.1867 161.444 36.8533 160.74 37.376C160.047 37.888 159.183 38.144 158.148 38.144C157.306 38.144 156.548 37.9573 155.876 37.584C155.215 37.2 154.692 36.6667 154.308 35.984C153.935 35.2907 153.748 34.4907 153.748 33.584C153.748 32.6773 153.93 31.8827 154.292 31.2C154.666 30.5067 155.183 29.9733 155.844 29.6C156.516 29.2267 157.284 29.04 158.148 29.04C158.98 29.04 159.722 29.2213 160.372 29.584C161.023 29.9467 161.53 30.4587 161.892 31.12C162.255 31.7707 162.436 32.5227 162.436 33.376ZM160.532 32.8C160.522 32.128 160.282 31.5893 159.812 31.184C159.343 30.7787 158.762 30.576 158.068 30.576C157.439 30.576 156.9 30.7787 156.452 31.184C156.004 31.5787 155.738 32.1173 155.652 32.8H160.532ZM166.055 30.464C166.322 30.016 166.674 29.6693 167.111 29.424C167.559 29.168 168.087 29.04 168.695 29.04V30.928H168.231C167.517 30.928 166.973 31.1093 166.599 31.472C166.237 31.8347 166.055 32.464 166.055 33.36V38H164.231V29.184H166.055V30.464ZM178.308 29.184L172.9 42.144H171.012L172.804 37.856L169.332 29.184H171.364L173.844 35.904L176.42 29.184H178.308Z" fill="black"/>
<path d="M78.268 53.764V56.212H81.148V57.328H78.268V59.884H81.508V61H76.9V52.648H81.508V53.764H78.268ZM86.529 54.28C87.049 54.28 87.513 54.388 87.921 54.604C88.337 54.82 88.661 55.14 88.893 55.564C89.125 55.988 89.241 56.5 89.241 57.1V61H87.885V57.304C87.885 56.712 87.737 56.26 87.441 55.948C87.145 55.628 86.741 55.468 86.229 55.468C85.717 55.468 85.309 55.628 85.005 55.948C84.709 56.26 84.561 56.712 84.561 57.304V61H83.193V54.388H84.561V55.144C84.785 54.872 85.069 54.66 85.413 54.508C85.765 54.356 86.137 54.28 86.529 54.28ZM92.5819 55.504V59.164C92.5819 59.412 92.6379 59.592 92.7499 59.704C92.8699 59.808 93.0699 59.86 93.3499 59.86H94.1899V61H93.1099C92.4939 61 92.0219 60.856 91.6939 60.568C91.3659 60.28 91.2019 59.812 91.2019 59.164V55.504H90.4219V54.388H91.2019V52.744H92.5819V54.388H94.1899V55.504H92.5819ZM101.511 57.532C101.511 57.78 101.495 58.004 101.463 58.204H96.4108C96.4508 58.732 96.6468 59.156 96.9988 59.476C97.3508 59.796 97.7828 59.956 98.2948 59.956C99.0308 59.956 99.5508 59.648 99.8548 59.032H101.331C101.131 59.64 100.767 60.14 100.239 60.532C99.7188 60.916 99.0708 61.108 98.2948 61.108C97.6628 61.108 97.0948 60.968 96.5908 60.688C96.0948 60.4 95.7028 60 95.4148 59.488C95.1348 58.968 94.9948 58.368 94.9948 57.688C94.9948 57.008 95.1308 56.412 95.4028 55.9C95.6828 55.38 96.0708 54.98 96.5668 54.7C97.0708 54.42 97.6468 54.28 98.2948 54.28C98.9188 54.28 99.4748 54.416 99.9628 54.688C100.451 54.96 100.831 55.344 101.103 55.84C101.375 56.328 101.511 56.892 101.511 57.532ZM100.083 57.1C100.075 56.596 99.8948 56.192 99.5428 55.888C99.1908 55.584 98.7548 55.432 98.2348 55.432C97.7628 55.432 97.3588 55.584 97.0228 55.888C96.6868 56.184 96.4868 56.588 96.4228 57.1H100.083ZM104.225 55.348C104.425 55.012 104.689 54.752 105.017 54.568C105.353 54.376 105.749 54.28 106.205 54.28V55.696H105.857C105.321 55.696 104.913 55.832 104.633 56.104C104.361 56.376 104.225 56.848 104.225 57.52V61H102.857V54.388H104.225V55.348ZM116.532 54.388L112.476 64.108H111.06L112.404 60.892L109.8 54.388H111.324L113.184 59.428L115.116 54.388H116.532ZM120.432 61.108C119.808 61.108 119.244 60.968 118.74 60.688C118.236 60.4 117.84 60 117.552 59.488C117.264 58.968 117.12 58.368 117.12 57.688C117.12 57.016 117.268 56.42 117.564 55.9C117.86 55.38 118.264 54.98 118.776 54.7C119.288 54.42 119.86 54.28 120.492 54.28C121.124 54.28 121.696 54.42 122.208 54.7C122.72 54.98 123.124 55.38 123.42 55.9C123.716 56.42 123.864 57.016 123.864 57.688C123.864 58.36 123.712 58.956 123.408 59.476C123.104 59.996 122.688 60.4 122.16 60.688C121.64 60.968 121.064 61.108 120.432 61.108ZM120.432 59.92C120.784 59.92 121.112 59.836 121.416 59.668C121.728 59.5 121.98 59.248 122.172 58.912C122.364 58.576 122.46 58.168 122.46 57.688C122.46 57.208 122.368 56.804 122.184 56.476C122 56.14 121.756 55.888 121.452 55.72C121.148 55.552 120.82 55.468 120.468 55.468C120.116 55.468 119.788 55.552 119.484 55.72C119.188 55.888 118.952 56.14 118.776 56.476C118.6 56.804 118.512 57.208 118.512 57.688C118.512 58.4 118.692 58.952 119.052 59.344C119.42 59.728 119.88 59.92 120.432 59.92ZM131.204 54.388V61H129.836V60.22C129.62 60.492 129.336 60.708 128.984 60.868C128.64 61.02 128.272 61.096 127.88 61.096C127.36 61.096 126.892 60.988 126.476 60.772C126.068 60.556 125.744 60.236 125.504 59.812C125.272 59.388 125.156 58.876 125.156 58.276V54.388H126.512V58.072C126.512 58.664 126.66 59.12 126.956 59.44C127.252 59.752 127.656 59.908 128.168 59.908C128.68 59.908 129.084 59.752 129.38 59.44C129.684 59.12 129.836 58.664 129.836 58.072V54.388H131.204ZM134.377 55.348C134.577 55.012 134.841 54.752 135.169 54.568C135.505 54.376 135.901 54.28 136.357 54.28V55.696H136.009C135.473 55.696 135.065 55.832 134.785 56.104C134.513 56.376 134.377 56.848 134.377 57.52V61H133.009V54.388H134.377V55.348ZM142.1 55.36C142.332 55.056 142.648 54.8 143.048 54.592C143.448 54.384 143.9 54.28 144.404 54.28C144.98 54.28 145.504 54.424 145.976 54.712C146.456 54.992 146.832 55.388 147.104 55.9C147.376 56.412 147.512 57 147.512 57.664C147.512 58.328 147.376 58.924 147.104 59.452C146.832 59.972 146.456 60.38 145.976 60.676C145.504 60.964 144.98 61.108 144.404 61.108C143.9 61.108 143.452 61.008 143.06 60.808C142.668 60.6 142.348 60.344 142.1 60.04V64.144H140.732V54.388H142.1V55.36ZM146.12 57.664C146.12 57.208 146.024 56.816 145.832 56.488C145.648 56.152 145.4 55.9 145.088 55.732C144.784 55.556 144.456 55.468 144.104 55.468C143.76 55.468 143.432 55.556 143.12 55.732C142.816 55.908 142.568 56.164 142.376 56.5C142.192 56.836 142.1 57.232 142.1 57.688C142.1 58.144 142.192 58.544 142.376 58.888C142.568 59.224 142.816 59.48 143.12 59.656C143.432 59.832 143.76 59.92 144.104 59.92C144.456 59.92 144.784 59.832 145.088 59.656C145.4 59.472 145.648 59.208 145.832 58.864C146.024 58.52 146.12 58.12 146.12 57.664ZM151.733 61.108C151.109 61.108 150.545 60.968 150.041 60.688C149.537 60.4 149.141 60 148.853 59.488C148.565 58.968 148.421 58.368 148.421 57.688C148.421 57.016 148.569 56.42 148.865 55.9C149.161 55.38 149.565 54.98 150.077 54.7C150.589 54.42 151.161 54.28 151.793 54.28C152.425 54.28 152.997 54.42 153.509 54.7C154.021 54.98 154.425 55.38 154.721 55.9C155.017 56.42 155.165 57.016 155.165 57.688C155.165 58.36 155.013 58.956 154.709 59.476C154.405 59.996 153.989 60.4 153.461 60.688C152.941 60.968 152.365 61.108 151.733 61.108ZM151.733 59.92C152.085 59.92 152.413 59.836 152.717 59.668C153.029 59.5 153.281 59.248 153.473 58.912C153.665 58.576 153.761 58.168 153.761 57.688C153.761 57.208 153.669 56.804 153.485 56.476C153.301 56.14 153.057 55.888 152.753 55.72C152.449 55.552 152.121 55.468 151.769 55.468C151.417 55.468 151.089 55.552 150.785 55.72C150.489 55.888 150.253 56.14 150.077 56.476C149.901 56.804 149.813 57.208 149.813 57.688C149.813 58.4 149.993 58.952 150.353 59.344C150.721 59.728 151.181 59.92 151.733 59.92ZM158.917 61.108C158.397 61.108 157.929 61.016 157.513 60.832C157.105 60.64 156.781 60.384 156.541 60.064C156.301 59.736 156.173 59.372 156.157 58.972H157.573C157.597 59.252 157.729 59.488 157.969 59.68C158.217 59.864 158.525 59.956 158.893 59.956C159.277 59.956 159.573 59.884 159.781 59.74C159.997 59.588 160.105 59.396 160.105 59.164C160.105 58.916 159.985 58.732 159.745 58.612C159.513 58.492 159.141 58.36 158.629 58.216C158.133 58.08 157.729 57.948 157.417 57.82C157.105 57.692 156.833 57.496 156.601 57.232C156.377 56.968 156.265 56.62 156.265 56.188C156.265 55.836 156.369 55.516 156.577 55.228C156.785 54.932 157.081 54.7 157.465 54.532C157.857 54.364 158.305 54.28 158.809 54.28C159.561 54.28 160.165 54.472 160.621 54.856C161.085 55.232 161.333 55.748 161.365 56.404H159.997C159.973 56.108 159.853 55.872 159.637 55.696C159.421 55.52 159.129 55.432 158.761 55.432C158.401 55.432 158.125 55.5 157.933 55.636C157.741 55.772 157.645 55.952 157.645 56.176C157.645 56.352 157.709 56.5 157.837 56.62C157.965 56.74 158.121 56.836 158.305 56.908C158.489 56.972 158.761 57.056 159.121 57.16C159.601 57.288 159.993 57.42 160.297 57.556C160.609 57.684 160.877 57.876 161.101 58.132C161.325 58.388 161.441 58.728 161.449 59.152C161.449 59.528 161.345 59.864 161.137 60.16C160.929 60.456 160.633 60.688 160.249 60.856C159.873 61.024 159.429 61.108 158.917 61.108ZM164.523 55.504V59.164C164.523 59.412 164.579 59.592 164.691 59.704C164.811 59.808 165.011 59.86 165.291 59.86H166.131V61H165.051C164.435 61 163.963 60.856 163.635 60.568C163.307 60.28 163.143 59.812 163.143 59.164V55.504H162.363V54.388H163.143V52.744H164.523V54.388H166.131V55.504H164.523ZM166.936 57.664C166.936 57 167.072 56.412 167.344 55.9C167.624 55.388 168 54.992 168.472 54.712C168.952 54.424 169.48 54.28 170.056 54.28C170.576 54.28 171.028 54.384 171.412 54.592C171.804 54.792 172.116 55.044 172.348 55.348V54.388H173.728V61H172.348V60.016C172.116 60.328 171.8 60.588 171.4 60.796C171 61.004 170.544 61.108 170.032 61.108C169.464 61.108 168.944 60.964 168.472 60.676C168 60.38 167.624 59.972 167.344 59.452C167.072 58.924 166.936 58.328 166.936 57.664ZM172.348 57.688C172.348 57.232 172.252 56.836 172.06 56.5C171.876 56.164 171.632 55.908 171.328 55.732C171.024 55.556 170.696 55.468 170.344 55.468C169.992 55.468 169.664 55.556 169.36 55.732C169.056 55.9 168.808 56.152 168.616 56.488C168.432 56.816 168.34 57.208 168.34 57.664C168.34 58.12 168.432 58.52 168.616 58.864C168.808 59.208 169.056 59.472 169.36 59.656C169.672 59.832 170 59.92 170.344 59.92C170.696 59.92 171.024 59.832 171.328 59.656C171.632 59.48 171.876 59.224 172.06 58.888C172.252 58.544 172.348 58.144 172.348 57.688ZM176.893 52.12V61H175.525V52.12H176.893ZM181.35 57.688C181.35 57.008 181.486 56.412 181.758 55.9C182.038 55.38 182.422 54.98 182.91 54.7C183.398 54.42 183.958 54.28 184.59 54.28C185.39 54.28 186.05 54.472 186.57 54.856C187.098 55.232 187.454 55.772 187.638 56.476H186.162C186.042 56.148 185.85 55.892 185.586 55.708C185.322 55.524 184.99 55.432 184.59 55.432C184.03 55.432 183.582 55.632 183.246 56.032C182.918 56.424 182.754 56.976 182.754 57.688C182.754 58.4 182.918 58.956 183.246 59.356C183.582 59.756 184.03 59.956 184.59 59.956C185.382 59.956 185.906 59.608 186.162 58.912H187.638C187.446 59.584 187.086 60.12 186.558 60.52C186.03 60.912 185.374 61.108 184.59 61.108C183.958 61.108 183.398 60.968 182.91 60.688C182.422 60.4 182.038 60 181.758 59.488C181.486 58.968 181.35 58.368 181.35 57.688ZM191.87 61.108C191.246 61.108 190.682 60.968 190.178 60.688C189.674 60.4 189.278 60 188.99 59.488C188.702 58.968 188.558 58.368 188.558 57.688C188.558 57.016 188.706 56.42 189.002 55.9C189.298 55.38 189.702 54.98 190.214 54.7C190.726 54.42 191.298 54.28 191.93 54.28C192.562 54.28 193.134 54.42 193.646 54.7C194.158 54.98 194.562 55.38 194.858 55.9C195.154 56.42 195.302 57.016 195.302 57.688C195.302 58.36 195.15 58.956 194.846 59.476C194.542 59.996 194.126 60.4 193.598 60.688C193.078 60.968 192.502 61.108 191.87 61.108ZM191.87 59.92C192.222 59.92 192.55 59.836 192.854 59.668C193.166 59.5 193.418 59.248 193.61 58.912C193.802 58.576 193.898 58.168 193.898 57.688C193.898 57.208 193.806 56.804 193.622 56.476C193.438 56.14 193.194 55.888 192.89 55.72C192.586 55.552 192.258 55.468 191.906 55.468C191.554 55.468 191.226 55.552 190.922 55.72C190.626 55.888 190.39 56.14 190.214 56.476C190.038 56.804 189.95 57.208 189.95 57.688C189.95 58.4 190.13 58.952 190.49 59.344C190.858 59.728 191.318 59.92 191.87 59.92ZM196.198 57.664C196.198 57 196.334 56.412 196.606 55.9C196.886 55.388 197.262 54.992 197.734 54.712C198.214 54.424 198.746 54.28 199.33 54.28C199.762 54.28 200.186 54.376 200.602 54.568C201.026 54.752 201.362 55 201.61 55.312V52.12H202.99V61H201.61V60.004C201.386 60.324 201.074 60.588 200.674 60.796C200.282 61.004 199.83 61.108 199.318 61.108C198.742 61.108 198.214 60.964 197.734 60.676C197.262 60.38 196.886 59.972 196.606 59.452C196.334 58.924 196.198 58.328 196.198 57.664ZM201.61 57.688C201.61 57.232 201.514 56.836 201.322 56.5C201.138 56.164 200.894 55.908 200.59 55.732C200.286 55.556 199.958 55.468 199.606 55.468C199.254 55.468 198.926 55.556 198.622 55.732C198.318 55.9 198.07 56.152 197.878 56.488C197.694 56.816 197.602 57.208 197.602 57.664C197.602 58.12 197.694 58.52 197.878 58.864C198.07 59.208 198.318 59.472 198.622 59.656C198.934 59.832 199.262 59.92 199.606 59.92C199.958 59.92 200.286 59.832 200.59 59.656C200.894 59.48 201.138 59.224 201.322 58.888C201.514 58.544 201.61 58.144 201.61 57.688ZM210.847 57.532C210.847 57.78 210.831 58.004 210.799 58.204H205.747C205.787 58.732 205.983 59.156 206.335 59.476C206.687 59.796 207.119 59.956 207.631 59.956C208.367 59.956 208.887 59.648 209.191 59.032H210.667C210.467 59.64 210.103 60.14 209.575 60.532C209.055 60.916 208.407 61.108 207.631 61.108C206.999 61.108 206.431 60.968 205.927 60.688C205.431 60.4 205.039 60 204.751 59.488C204.471 58.968 204.331 58.368 204.331 57.688C204.331 57.008 204.467 56.412 204.739 55.9C205.019 55.38 205.407 54.98 205.903 54.7C206.407 54.42 206.983 54.28 207.631 54.28C208.255 54.28 208.811 54.416 209.299 54.688C209.787 54.96 210.167 55.344 210.439 55.84C210.711 56.328 210.847 56.892 210.847 57.532ZM209.419 57.1C209.411 56.596 209.231 56.192 208.879 55.888C208.527 55.584 208.091 55.432 207.571 55.432C207.099 55.432 206.695 55.584 206.359 55.888C206.023 56.184 205.823 56.588 205.759 57.1H209.419ZM218.082 55.504H216.858V61H215.478V55.504H214.698V54.388H215.478V53.92C215.478 53.16 215.678 52.608 216.078 52.264C216.486 51.912 217.122 51.736 217.986 51.736V52.876C217.57 52.876 217.278 52.956 217.11 53.116C216.942 53.268 216.858 53.536 216.858 53.92V54.388H218.082V55.504ZM222.163 61.108C221.539 61.108 220.975 60.968 220.471 60.688C219.967 60.4 219.571 60 219.283 59.488C218.995 58.968 218.851 58.368 218.851 57.688C218.851 57.016 218.999 56.42 219.295 55.9C219.591 55.38 219.995 54.98 220.507 54.7C221.019 54.42 221.591 54.28 222.223 54.28C222.855 54.28 223.427 54.42 223.939 54.7C224.451 54.98 224.855 55.38 225.151 55.9C225.447 56.42 225.595 57.016 225.595 57.688C225.595 58.36 225.443 58.956 225.139 59.476C224.835 59.996 224.419 60.4 223.891 60.688C223.371 60.968 222.795 61.108 222.163 61.108ZM222.163 59.92C222.515 59.92 222.843 59.836 223.147 59.668C223.459 59.5 223.711 59.248 223.903 58.912C224.095 58.576 224.191 58.168 224.191 57.688C224.191 57.208 224.099 56.804 223.915 56.476C223.731 56.14 223.487 55.888 223.183 55.72C222.879 55.552 222.551 55.468 222.199 55.468C221.847 55.468 221.519 55.552 221.215 55.72C220.919 55.888 220.683 56.14 220.507 56.476C220.331 56.804 220.243 57.208 220.243 57.688C220.243 58.4 220.423 58.952 220.783 59.344C221.151 59.728 221.611 59.92 222.163 59.92ZM228.315 55.348C228.515 55.012 228.779 54.752 229.107 54.568C229.443 54.376 229.839 54.28 230.295 54.28V55.696H229.947C229.411 55.696 229.003 55.832 228.723 56.104C228.451 56.376 228.315 56.848 228.315 57.52V61H226.947V54.388H228.315V55.348ZM237.394 52.66C238.282 52.66 239.058 52.832 239.722 53.176C240.394 53.512 240.91 54 241.27 54.64C241.638 55.272 241.822 56.012 241.822 56.86C241.822 57.708 241.638 58.444 241.27 59.068C240.91 59.692 240.394 60.172 239.722 60.508C239.058 60.836 238.282 61 237.394 61H234.67V52.66H237.394ZM237.394 59.884C238.37 59.884 239.118 59.62 239.638 59.092C240.158 58.564 240.418 57.82 240.418 56.86C240.418 55.892 240.158 55.136 239.638 54.592C239.118 54.048 238.37 53.776 237.394 53.776H236.038V59.884H237.394ZM249.237 57.532C249.237 57.78 249.221 58.004 249.189 58.204H244.137C244.177 58.732 244.373 59.156 244.725 59.476C245.077 59.796 245.509 59.956 246.021 59.956C246.757 59.956 247.277 59.648 247.581 59.032H249.057C248.857 59.64 248.493 60.14 247.965 60.532C247.445 60.916 246.797 61.108 246.021 61.108C245.389 61.108 244.821 60.968 244.317 60.688C243.821 60.4 243.429 60 243.141 59.488C242.861 58.968 242.721 58.368 242.721 57.688C242.721 57.008 242.857 56.412 243.129 55.9C243.409 55.38 243.797 54.98 244.293 54.7C244.797 54.42 245.373 54.28 246.021 54.28C246.645 54.28 247.201 54.416 247.689 54.688C248.177 54.96 248.557 55.344 248.829 55.84C249.101 56.328 249.237 56.892 249.237 57.532ZM247.809 57.1C247.801 56.596 247.621 56.192 247.269 55.888C246.917 55.584 246.481 55.432 245.961 55.432C245.489 55.432 245.085 55.584 244.749 55.888C244.413 56.184 244.213 56.588 244.149 57.1H247.809ZM251.952 52.12V61H250.584V52.12H251.952ZM254.444 53.512C254.196 53.512 253.988 53.428 253.82 53.26C253.652 53.092 253.568 52.884 253.568 52.636C253.568 52.388 253.652 52.18 253.82 52.012C253.988 51.844 254.196 51.76 254.444 51.76C254.684 51.76 254.888 51.844 255.056 52.012C255.224 52.18 255.308 52.388 255.308 52.636C255.308 52.884 255.224 53.092 255.056 53.26C254.888 53.428 254.684 53.512 254.444 53.512ZM255.116 54.388V61H253.748V54.388H255.116ZM259.468 59.776L261.34 54.388H262.792L260.272 61H258.64L256.132 54.388H257.596L259.468 59.776ZM269.886 57.532C269.886 57.78 269.87 58.004 269.838 58.204H264.786C264.826 58.732 265.022 59.156 265.374 59.476C265.726 59.796 266.158 59.956 266.67 59.956C267.406 59.956 267.926 59.648 268.23 59.032H269.706C269.506 59.64 269.142 60.14 268.614 60.532C268.094 60.916 267.446 61.108 266.67 61.108C266.038 61.108 265.47 60.968 264.966 60.688C264.47 60.4 264.078 60 263.79 59.488C263.51 58.968 263.37 58.368 263.37 57.688C263.37 57.008 263.506 56.412 263.778 55.9C264.058 55.38 264.446 54.98 264.942 54.7C265.446 54.42 266.022 54.28 266.67 54.28C267.294 54.28 267.85 54.416 268.338 54.688C268.826 54.96 269.206 55.344 269.478 55.84C269.75 56.328 269.886 56.892 269.886 57.532ZM268.458 57.1C268.45 56.596 268.27 56.192 267.918 55.888C267.566 55.584 267.13 55.432 266.61 55.432C266.138 55.432 265.734 55.584 265.398 55.888C265.062 56.184 264.862 56.588 264.798 57.1H268.458ZM272.6 55.348C272.8 55.012 273.064 54.752 273.392 54.568C273.728 54.376 274.124 54.28 274.58 54.28V55.696H274.232C273.696 55.696 273.288 55.832 273.008 56.104C272.736 56.376 272.6 56.848 272.6 57.52V61H271.232V54.388H272.6V55.348ZM281.79 54.388L277.734 64.108H276.318L277.662 60.892L275.058 54.388H276.582L278.442 59.428L280.374 54.388H281.79ZM290.967 59.296H287.475L286.875 61H285.447L288.435 52.648H290.019L293.007 61H291.567L290.967 59.296ZM290.583 58.18L289.227 54.304L287.859 58.18H290.583ZM296.862 59.776L298.734 54.388H300.186L297.666 61H296.034L293.526 54.388H294.99L296.862 59.776ZM300.764 57.664C300.764 57 300.9 56.412 301.172 55.9C301.452 55.388 301.828 54.992 302.3 54.712C302.78 54.424 303.308 54.28 303.884 54.28C304.404 54.28 304.856 54.384 305.24 54.592C305.632 54.792 305.944 55.044 306.176 55.348V54.388H307.556V61H306.176V60.016C305.944 60.328 305.628 60.588 305.228 60.796C304.828 61.004 304.372 61.108 303.86 61.108C303.292 61.108 302.772 60.964 302.3 60.676C301.828 60.38 301.452 59.972 301.172 59.452C300.9 58.924 300.764 58.328 300.764 57.664ZM306.176 57.688C306.176 57.232 306.08 56.836 305.888 56.5C305.704 56.164 305.46 55.908 305.156 55.732C304.852 55.556 304.524 55.468 304.172 55.468C303.82 55.468 303.492 55.556 303.188 55.732C302.884 55.9 302.636 56.152 302.444 56.488C302.26 56.816 302.168 57.208 302.168 57.664C302.168 58.12 302.26 58.52 302.444 58.864C302.636 59.208 302.884 59.472 303.188 59.656C303.5 59.832 303.828 59.92 304.172 59.92C304.524 59.92 304.852 59.832 305.156 59.656C305.46 59.48 305.704 59.224 305.888 58.888C306.08 58.544 306.176 58.144 306.176 57.688ZM310.049 53.512C309.801 53.512 309.593 53.428 309.425 53.26C309.257 53.092 309.173 52.884 309.173 52.636C309.173 52.388 309.257 52.18 309.425 52.012C309.593 51.844 309.801 51.76 310.049 51.76C310.289 51.76 310.493 51.844 310.661 52.012C310.829 52.18 310.913 52.388 310.913 52.636C310.913 52.884 310.829 53.092 310.661 53.26C310.493 53.428 310.289 53.512 310.049 53.512ZM310.721 54.388V61H309.353V54.388H310.721ZM313.885 52.12V61H312.517V52.12H313.885ZM315.225 57.664C315.225 57 315.361 56.412 315.633 55.9C315.913 55.388 316.289 54.992 316.761 54.712C317.241 54.424 317.769 54.28 318.345 54.28C318.865 54.28 319.317 54.384 319.701 54.592C320.093 54.792 320.405 55.044 320.637 55.348V54.388H322.017V61H320.637V60.016C320.405 60.328 320.089 60.588 319.689 60.796C319.289 61.004 318.833 61.108 318.321 61.108C317.753 61.108 317.233 60.964 316.761 60.676C316.289 60.38 315.913 59.972 315.633 59.452C315.361 58.924 315.225 58.328 315.225 57.664ZM320.637 57.688C320.637 57.232 320.541 56.836 320.349 56.5C320.165 56.164 319.921 55.908 319.617 55.732C319.313 55.556 318.985 55.468 318.633 55.468C318.281 55.468 317.953 55.556 317.649 55.732C317.345 55.9 317.097 56.152 316.905 56.488C316.721 56.816 316.629 57.208 316.629 57.664C316.629 58.12 316.721 58.52 316.905 58.864C317.097 59.208 317.345 59.472 317.649 59.656C317.961 59.832 318.289 59.92 318.633 59.92C318.985 59.92 319.313 59.832 319.617 59.656C319.921 59.48 320.165 59.224 320.349 58.888C320.541 58.544 320.637 58.144 320.637 57.688ZM325.182 55.372C325.414 55.052 325.73 54.792 326.13 54.592C326.538 54.384 326.99 54.28 327.486 54.28C328.07 54.28 328.598 54.42 329.07 54.7C329.542 54.98 329.914 55.38 330.186 55.9C330.458 56.412 330.594 57 330.594 57.664C330.594 58.328 330.458 58.924 330.186 59.452C329.914 59.972 329.538 60.38 329.058 60.676C328.586 60.964 328.062 61.108 327.486 61.108C326.974 61.108 326.518 61.008 326.118 60.808C325.726 60.608 325.414 60.352 325.182 60.04V61H323.814V52.12H325.182V55.372ZM329.202 57.664C329.202 57.208 329.106 56.816 328.914 56.488C328.73 56.152 328.482 55.9 328.17 55.732C327.866 55.556 327.538 55.468 327.186 55.468C326.842 55.468 326.514 55.556 326.202 55.732C325.898 55.908 325.65 56.164 325.458 56.5C325.274 56.836 325.182 57.232 325.182 57.688C325.182 58.144 325.274 58.544 325.458 58.888C325.65 59.224 325.898 59.48 326.202 59.656C326.514 59.832 326.842 59.92 327.186 59.92C327.538 59.92 327.866 59.832 328.17 59.656C328.482 59.472 328.73 59.208 328.914 58.864C329.106 58.52 329.202 58.12 329.202 57.664ZM332.643 53.512C332.395 53.512 332.187 53.428 332.019 53.26C331.851 53.092 331.767 52.884 331.767 52.636C331.767 52.388 331.851 52.18 332.019 52.012C332.187 51.844 332.395 51.76 332.643 51.76C332.883 51.76 333.087 51.844 333.255 52.012C333.423 52.18 333.507 52.388 333.507 52.636C333.507 52.884 333.423 53.092 333.255 53.26C333.087 53.428 332.883 53.512 332.643 53.512ZM333.315 54.388V61H331.947V54.388H333.315ZM336.479 52.12V61H335.111V52.12H336.479ZM338.971 53.512C338.723 53.512 338.515 53.428 338.347 53.26C338.179 53.092 338.095 52.884 338.095 52.636C338.095 52.388 338.179 52.18 338.347 52.012C338.515 51.844 338.723 51.76 338.971 51.76C339.211 51.76 339.415 51.844 339.583 52.012C339.751 52.18 339.835 52.388 339.835 52.636C339.835 52.884 339.751 53.092 339.583 53.26C339.415 53.428 339.211 53.512 338.971 53.512ZM339.643 54.388V61H338.275V54.388H339.643ZM343.035 55.504V59.164C343.035 59.412 343.091 59.592 343.203 59.704C343.323 59.808 343.523 59.86 343.803 59.86H344.643V61H343.563C342.947 61 342.475 60.856 342.147 60.568C341.819 60.28 341.655 59.812 341.655 59.164V55.504H340.875V54.388H341.655V52.744H343.035V54.388H344.643V55.504H343.035ZM351.856 54.388L347.8 64.108H346.384L347.728 60.892L345.124 54.388H346.648L348.508 59.428L350.44 54.388H351.856Z" fill="black"/>
<path d="M76 62.2H351.988V62.8H76V62.2Z" fill="black"/>
<g opacity="0.5">
<line y1="83.5" x2="399" y2="83.5" stroke="black"/>
</g>
<g clip-path="url(#clip1_11_5806)">
<path d="M53.3332 123.333C52.9256 120.4 51.565 117.683 49.4609 115.599C47.3569 113.516 44.6261 112.182 41.6893 111.803C38.7525 111.424 35.7725 112.021 33.2085 113.502C30.6445 114.983 28.6386 117.267 27.4998 120M26.6665 113.333V120H33.3332" stroke="black" stroke-width="2" stroke-linecap="round" stroke-linejoin="round"/>
<path d="M26.6665 126.667C27.0741 129.6 28.4347 132.317 30.5388 134.401C32.6428 136.485 35.3736 137.819 38.3104 138.197C41.2472 138.576 44.2271 137.979 46.7912 136.498C49.3552 135.017 51.3611 132.734 52.4998 130M53.3332 136.667V130H46.6665" stroke="black" stroke-width="2" stroke-linecap="round" stroke-linejoin="round"/>
</g>
<path d="M82.976 120L80.416 115.552H79.024V120H77.2V108.88H81.04C81.8933 108.88 82.6133 109.029 83.2 109.328C83.7973 109.627 84.24 110.027 84.528 110.528C84.8267 111.029 84.976 111.589 84.976 112.208C84.976 112.933 84.7627 113.595 84.336 114.192C83.92 114.779 83.2747 115.179 82.4 115.392L85.152 120H82.976ZM79.024 114.096H81.04C81.7227 114.096 82.2347 113.925 82.576 113.584C82.928 113.243 83.104 112.784 83.104 112.208C83.104 111.632 82.9333 111.184 82.592 110.864C82.2507 110.533 81.7333 110.368 81.04 110.368H79.024V114.096ZM95.3894 115.376C95.3894 115.707 95.368 116.005 95.3254 116.272H88.5894C88.6427 116.976 88.904 117.541 89.3734 117.968C89.8427 118.395 90.4187 118.608 91.1014 118.608C92.0827 118.608 92.776 118.197 93.1814 117.376H95.1494C94.8827 118.187 94.3974 118.853 93.6934 119.376C93 119.888 92.136 120.144 91.1014 120.144C90.2587 120.144 89.5014 119.957 88.8294 119.584C88.168 119.2 87.6454 118.667 87.2614 117.984C86.888 117.291 86.7014 116.491 86.7014 115.584C86.7014 114.677 86.8827 113.883 87.2454 113.2C87.6187 112.507 88.136 111.973 88.7974 111.6C89.4694 111.227 90.2374 111.04 91.1014 111.04C91.9334 111.04 92.6747 111.221 93.3254 111.584C93.976 111.947 94.4827 112.459 94.8454 113.12C95.208 113.771 95.3894 114.523 95.3894 115.376ZM93.4854 114.8C93.4747 114.128 93.2347 113.589 92.7654 113.184C92.296 112.779 91.7147 112.576 91.0214 112.576C90.392 112.576 89.8534 112.779 89.4054 113.184C88.9574 113.579 88.6907 114.117 88.6054 114.8H93.4854ZM99.3124 112.672V117.552C99.3124 117.883 99.387 118.123 99.5364 118.272C99.6964 118.411 99.963 118.48 100.336 118.48H101.456V120H100.016C99.195 120 98.5657 119.808 98.1284 119.424C97.691 119.04 97.4724 118.416 97.4724 117.552V112.672H96.4324V111.184H97.4724V108.992H99.3124V111.184H101.456V112.672H99.3124ZM111.122 111.184V120H109.298V118.96C109.01 119.323 108.631 119.611 108.162 119.824C107.703 120.027 107.212 120.128 106.69 120.128C105.996 120.128 105.372 119.984 104.818 119.696C104.274 119.408 103.842 118.981 103.522 118.416C103.212 117.851 103.058 117.168 103.058 116.368V111.184H104.866V116.096C104.866 116.885 105.063 117.493 105.458 117.92C105.852 118.336 106.391 118.544 107.074 118.544C107.756 118.544 108.295 118.336 108.69 117.92C109.095 117.493 109.298 116.885 109.298 116.096V111.184H111.122ZM115.352 112.464C115.619 112.016 115.971 111.669 116.408 111.424C116.856 111.168 117.384 111.04 117.992 111.04V112.928H117.528C116.813 112.928 116.269 113.109 115.896 113.472C115.533 113.835 115.352 114.464 115.352 115.36V120H113.528V111.184H115.352V112.464ZM124.117 111.04C124.81 111.04 125.429 111.184 125.973 111.472C126.527 111.76 126.959 112.187 127.269 112.752C127.578 113.317 127.733 114 127.733 114.8V120H125.925V115.072C125.925 114.283 125.727 113.68 125.333 113.264C124.938 112.837 124.399 112.624 123.717 112.624C123.034 112.624 122.49 112.837 122.085 113.264C121.69 113.68 121.493 114.283 121.493 115.072V120H119.669V111.184H121.493V112.192C121.791 111.829 122.17 111.547 122.629 111.344C123.098 111.141 123.594 111.04 124.117 111.04ZM137.848 108.88C139.032 108.88 140.066 109.109 140.952 109.568C141.848 110.016 142.536 110.667 143.016 111.52C143.506 112.363 143.752 113.349 143.752 114.48C143.752 115.611 143.506 116.592 143.016 117.424C142.536 118.256 141.848 118.896 140.952 119.344C140.066 119.781 139.032 120 137.848 120H134.216V108.88H137.848ZM137.848 118.512C139.149 118.512 140.146 118.16 140.84 117.456C141.533 116.752 141.88 115.76 141.88 114.48C141.88 113.189 141.533 112.181 140.84 111.456C140.146 110.731 139.149 110.368 137.848 110.368H136.04V118.512H137.848ZM153.639 115.376C153.639 115.707 153.618 116.005 153.575 116.272H146.839C146.893 116.976 147.154 117.541 147.623 117.968C148.093 118.395 148.669 118.608 149.351 118.608C150.333 118.608 151.026 118.197 151.431 117.376H153.399C153.133 118.187 152.647 118.853 151.943 119.376C151.25 119.888 150.386 120.144 149.351 120.144C148.509 120.144 147.751 119.957 147.079 119.584C146.418 119.2 145.895 118.667 145.511 117.984C145.138 117.291 144.951 116.491 144.951 115.584C144.951 114.677 145.133 113.883 145.495 113.2C145.869 112.507 146.386 111.973 147.047 111.6C147.719 111.227 148.487 111.04 149.351 111.04C150.183 111.04 150.925 111.221 151.575 111.584C152.226 111.947 152.733 112.459 153.095 113.12C153.458 113.771 153.639 114.523 153.639 115.376ZM151.735 114.8C151.725 114.128 151.485 113.589 151.015 113.184C150.546 112.779 149.965 112.576 149.271 112.576C148.642 112.576 148.103 112.779 147.655 113.184C147.207 113.579 146.941 114.117 146.855 114.8H151.735ZM157.258 108.16V120H155.434V108.16H157.258ZM160.581 110.016C160.25 110.016 159.973 109.904 159.749 109.68C159.525 109.456 159.413 109.179 159.413 108.848C159.413 108.517 159.525 108.24 159.749 108.016C159.973 107.792 160.25 107.68 160.581 107.68C160.901 107.68 161.173 107.792 161.397 108.016C161.621 108.24 161.733 108.517 161.733 108.848C161.733 109.179 161.621 109.456 161.397 109.68C161.173 109.904 160.901 110.016 160.581 110.016ZM161.477 111.184V120H159.653V111.184H161.477ZM167.28 118.368L169.776 111.184H171.712L168.352 120H166.176L162.832 111.184H164.784L167.28 118.368ZM181.171 115.376C181.171 115.707 181.149 116.005 181.107 116.272H174.371C174.424 116.976 174.685 117.541 175.155 117.968C175.624 118.395 176.2 118.608 176.883 118.608C177.864 118.608 178.557 118.197 178.963 117.376H180.931C180.664 118.187 180.179 118.853 179.475 119.376C178.781 119.888 177.917 120.144 176.883 120.144C176.04 120.144 175.283 119.957 174.611 119.584C173.949 119.2 173.427 118.667 173.043 117.984C172.669 117.291 172.483 116.491 172.483 115.584C172.483 114.677 172.664 113.883 173.027 113.2C173.4 112.507 173.917 111.973 174.579 111.6C175.251 111.227 176.019 111.04 176.883 111.04C177.715 111.04 178.456 111.221 179.107 111.584C179.757 111.947 180.264 112.459 180.627 113.12C180.989 113.771 181.171 114.523 181.171 115.376ZM179.267 114.8C179.256 114.128 179.016 113.589 178.547 113.184C178.077 112.779 177.496 112.576 176.803 112.576C176.173 112.576 175.635 112.779 175.187 113.184C174.739 113.579 174.472 114.117 174.387 114.8H179.267ZM184.79 112.464C185.056 112.016 185.408 111.669 185.846 111.424C186.294 111.168 186.822 111.04 187.43 111.04V112.928H186.966C186.251 112.928 185.707 113.109 185.334 113.472C184.971 113.835 184.79 114.464 184.79 115.36V120H182.966V111.184H184.79V112.464ZM197.042 111.184L191.634 124.144H189.746L191.538 119.856L188.066 111.184H190.098L192.578 117.904L195.154 111.184H197.042Z" fill="black"/>
<path d="M81.808 134.66V135.776H78.268V138.236H81.028V139.352H78.268V143H76.9V134.66H81.808ZM84.4438 137.348C84.6438 137.012 84.9078 136.752 85.2358 136.568C85.5718 136.376 85.9678 136.28 86.4238 136.28V137.696H86.0758C85.5398 137.696 85.1318 137.832 84.8518 138.104C84.5798 138.376 84.4438 138.848 84.4438 139.52V143H83.0758V136.388H84.4438V137.348ZM93.7413 139.532C93.7413 139.78 93.7253 140.004 93.6933 140.204H88.6413C88.6813 140.732 88.8773 141.156 89.2293 141.476C89.5813 141.796 90.0133 141.956 90.5253 141.956C91.2613 141.956 91.7813 141.648 92.0853 141.032H93.5612C93.3613 141.64 92.9973 142.14 92.4693 142.532C91.9493 142.916 91.3013 143.108 90.5253 143.108C89.8933 143.108 89.3253 142.968 88.8213 142.688C88.3253 142.4 87.9333 142 87.6453 141.488C87.3653 140.968 87.2253 140.368 87.2253 139.688C87.2253 139.008 87.3613 138.412 87.6333 137.9C87.9133 137.38 88.3013 136.98 88.7973 136.7C89.3013 136.42 89.8773 136.28 90.5253 136.28C91.1493 136.28 91.7053 136.416 92.1933 136.688C92.6813 136.96 93.0613 137.344 93.3333 137.84C93.6053 138.328 93.7413 138.892 93.7413 139.532ZM92.3133 139.1C92.3053 138.596 92.1253 138.192 91.7733 137.888C91.4213 137.584 90.9853 137.432 90.4653 137.432C89.9933 137.432 89.5893 137.584 89.2533 137.888C88.9173 138.184 88.7173 138.588 88.6533 139.1H92.3133ZM101.148 139.532C101.148 139.78 101.132 140.004 101.1 140.204H96.0475C96.0875 140.732 96.2835 141.156 96.6355 141.476C96.9875 141.796 97.4195 141.956 97.9315 141.956C98.6675 141.956 99.1875 141.648 99.4915 141.032H100.967C100.768 141.64 100.404 142.14 99.8755 142.532C99.3555 142.916 98.7075 143.108 97.9315 143.108C97.2995 143.108 96.7315 142.968 96.2275 142.688C95.7315 142.4 95.3395 142 95.0515 141.488C94.7715 140.968 94.6315 140.368 94.6315 139.688C94.6315 139.008 94.7675 138.412 95.0395 137.9C95.3195 137.38 95.7075 136.98 96.2035 136.7C96.7075 136.42 97.2835 136.28 97.9315 136.28C98.5555 136.28 99.1115 136.416 99.5995 136.688C100.088 136.96 100.468 137.344 100.74 137.84C101.012 138.328 101.148 138.892 101.148 139.532ZM99.7195 139.1C99.7115 138.596 99.5315 138.192 99.1795 137.888C98.8275 137.584 98.3915 137.432 97.8715 137.432C97.3995 137.432 96.9955 137.584 96.6595 137.888C96.3235 138.184 96.1235 138.588 96.0595 139.1H99.7195ZM105.407 136.412C105.455 135.668 105.739 135.088 106.259 134.672C106.787 134.256 107.459 134.048 108.275 134.048C108.835 134.048 109.319 134.148 109.727 134.348C110.135 134.548 110.443 134.82 110.651 135.164C110.859 135.508 110.963 135.896 110.963 136.328C110.963 136.824 110.831 137.248 110.567 137.6C110.303 137.952 109.987 138.188 109.619 138.308V138.356C110.091 138.5 110.459 138.764 110.723 139.148C110.987 139.524 111.119 140.008 111.119 140.6C111.119 141.072 111.011 141.492 110.795 141.86C110.579 142.228 110.259 142.52 109.835 142.736C109.411 142.944 108.903 143.048 108.311 143.048C107.447 143.048 106.735 142.828 106.175 142.388C105.623 141.94 105.327 141.3 105.287 140.468H106.607C106.639 140.892 106.803 141.24 107.099 141.512C107.395 141.776 107.795 141.908 108.299 141.908C108.787 141.908 109.163 141.776 109.427 141.512C109.691 141.24 109.823 140.892 109.823 140.468C109.823 139.908 109.643 139.512 109.283 139.28C108.931 139.04 108.387 138.92 107.651 138.92H107.339V137.792H107.663C108.311 137.784 108.803 137.676 109.139 137.468C109.483 137.26 109.655 136.932 109.655 136.484C109.655 136.1 109.531 135.796 109.283 135.572C109.035 135.34 108.683 135.224 108.227 135.224C107.779 135.224 107.431 135.34 107.183 135.572C106.935 135.796 106.787 136.076 106.739 136.412H105.407ZM112.556 138.512C112.556 137.128 112.788 136.048 113.252 135.272C113.724 134.488 114.532 134.096 115.676 134.096C116.82 134.096 117.624 134.488 118.088 135.272C118.56 136.048 118.796 137.128 118.796 138.512C118.796 139.912 118.56 141.008 118.088 141.8C117.624 142.584 116.82 142.976 115.676 142.976C114.532 142.976 113.724 142.584 113.252 141.8C112.788 141.008 112.556 139.912 112.556 138.512ZM117.452 138.512C117.452 137.864 117.408 137.316 117.32 136.868C117.24 136.42 117.072 136.056 116.816 135.776C116.56 135.488 116.18 135.344 115.676 135.344C115.172 135.344 114.792 135.488 114.536 135.776C114.28 136.056 114.108 136.42 114.02 136.868C113.94 137.316 113.9 137.864 113.9 138.512C113.9 139.184 113.94 139.748 114.02 140.204C114.1 140.66 114.268 141.028 114.524 141.308C114.788 141.588 115.172 141.728 115.676 141.728C116.18 141.728 116.56 141.588 116.816 141.308C117.08 141.028 117.252 140.66 117.332 140.204C117.412 139.748 117.452 139.184 117.452 138.512ZM126.265 134.66C127.153 134.66 127.929 134.832 128.593 135.176C129.265 135.512 129.781 136 130.141 136.64C130.509 137.272 130.693 138.012 130.693 138.86C130.693 139.708 130.509 140.444 130.141 141.068C129.781 141.692 129.265 142.172 128.593 142.508C127.929 142.836 127.153 143 126.265 143H123.541V134.66H126.265ZM126.265 141.884C127.241 141.884 127.989 141.62 128.509 141.092C129.029 140.564 129.289 139.82 129.289 138.86C129.289 137.892 129.029 137.136 128.509 136.592C127.989 136.048 127.241 135.776 126.265 135.776H124.909V141.884H126.265ZM131.592 139.664C131.592 139 131.728 138.412 132 137.9C132.28 137.388 132.656 136.992 133.128 136.712C133.608 136.424 134.136 136.28 134.712 136.28C135.232 136.28 135.684 136.384 136.068 136.592C136.46 136.792 136.772 137.044 137.004 137.348V136.388H138.384V143H137.004V142.016C136.772 142.328 136.456 142.588 136.056 142.796C135.656 143.004 135.2 143.108 134.688 143.108C134.12 143.108 133.6 142.964 133.128 142.676C132.656 142.38 132.28 141.972 132 141.452C131.728 140.924 131.592 140.328 131.592 139.664ZM137.004 139.688C137.004 139.232 136.908 138.836 136.716 138.5C136.532 138.164 136.288 137.908 135.984 137.732C135.68 137.556 135.352 137.468 135 137.468C134.648 137.468 134.32 137.556 134.016 137.732C133.712 137.9 133.464 138.152 133.272 138.488C133.088 138.816 132.996 139.208 132.996 139.664C132.996 140.12 133.088 140.52 133.272 140.864C133.464 141.208 133.712 141.472 134.016 141.656C134.328 141.832 134.656 141.92 135 141.92C135.352 141.92 135.68 141.832 135.984 141.656C136.288 141.48 136.532 141.224 136.716 140.888C136.908 140.544 137.004 140.144 137.004 139.688ZM146.133 136.388L142.077 146.108H140.661L142.005 142.892L139.401 136.388H140.925L142.785 141.428L144.717 136.388H146.133ZM149.566 143.108C149.046 143.108 148.578 143.016 148.162 142.832C147.754 142.64 147.43 142.384 147.19 142.064C146.95 141.736 146.822 141.372 146.806 140.972H148.222C148.246 141.252 148.378 141.488 148.618 141.68C148.866 141.864 149.174 141.956 149.542 141.956C149.926 141.956 150.222 141.884 150.43 141.74C150.646 141.588 150.754 141.396 150.754 141.164C150.754 140.916 150.634 140.732 150.394 140.612C150.162 140.492 149.79 140.36 149.278 140.216C148.782 140.08 148.378 139.948 148.066 139.82C147.754 139.692 147.482 139.496 147.25 139.232C147.026 138.968 146.914 138.62 146.914 138.188C146.914 137.836 147.018 137.516 147.226 137.228C147.434 136.932 147.73 136.7 148.114 136.532C148.506 136.364 148.954 136.28 149.458 136.28C150.21 136.28 150.814 136.472 151.27 136.856C151.734 137.232 151.982 137.748 152.014 138.404H150.646C150.622 138.108 150.502 137.872 150.286 137.696C150.07 137.52 149.778 137.432 149.41 137.432C149.05 137.432 148.774 137.5 148.582 137.636C148.39 137.772 148.294 137.952 148.294 138.176C148.294 138.352 148.358 138.5 148.486 138.62C148.614 138.74 148.77 138.836 148.954 138.908C149.138 138.972 149.41 139.056 149.77 139.16C150.25 139.288 150.642 139.42 150.946 139.556C151.258 139.684 151.526 139.876 151.75 140.132C151.974 140.388 152.09 140.728 152.098 141.152C152.098 141.528 151.994 141.864 151.786 142.16C151.578 142.456 151.282 142.688 150.898 142.856C150.522 143.024 150.078 143.108 149.566 143.108ZM159.417 134.66C160.305 134.66 161.081 134.832 161.745 135.176C162.417 135.512 162.933 136 163.293 136.64C163.661 137.272 163.845 138.012 163.845 138.86C163.845 139.708 163.661 140.444 163.293 141.068C162.933 141.692 162.417 142.172 161.745 142.508C161.081 142.836 160.305 143 159.417 143H156.693V134.66H159.417ZM159.417 141.884C160.393 141.884 161.141 141.62 161.661 141.092C162.181 140.564 162.441 139.82 162.441 138.86C162.441 137.892 162.181 137.136 161.661 136.592C161.141 136.048 160.393 135.776 159.417 135.776H158.061V141.884H159.417ZM171.261 139.532C171.261 139.78 171.245 140.004 171.213 140.204H166.161C166.201 140.732 166.397 141.156 166.749 141.476C167.101 141.796 167.533 141.956 168.045 141.956C168.781 141.956 169.301 141.648 169.605 141.032H171.081C170.881 141.64 170.517 142.14 169.989 142.532C169.469 142.916 168.821 143.108 168.045 143.108C167.413 143.108 166.845 142.968 166.341 142.688C165.845 142.4 165.453 142 165.165 141.488C164.885 140.968 164.745 140.368 164.745 139.688C164.745 139.008 164.881 138.412 165.153 137.9C165.433 137.38 165.821 136.98 166.317 136.7C166.821 136.42 167.397 136.28 168.045 136.28C168.669 136.28 169.225 136.416 169.713 136.688C170.201 136.96 170.581 137.344 170.853 137.84C171.125 138.328 171.261 138.892 171.261 139.532ZM169.833 139.1C169.825 138.596 169.645 138.192 169.293 137.888C168.941 137.584 168.505 137.432 167.985 137.432C167.513 137.432 167.109 137.584 166.773 137.888C166.437 138.184 166.237 138.588 166.173 139.1H169.833ZM173.975 134.12V143H172.607V134.12H173.975ZM176.467 135.512C176.219 135.512 176.011 135.428 175.843 135.26C175.675 135.092 175.591 134.884 175.591 134.636C175.591 134.388 175.675 134.18 175.843 134.012C176.011 133.844 176.219 133.76 176.467 133.76C176.707 133.76 176.911 133.844 177.079 134.012C177.247 134.18 177.331 134.388 177.331 134.636C177.331 134.884 177.247 135.092 177.079 135.26C176.911 135.428 176.707 135.512 176.467 135.512ZM177.139 136.388V143H175.771V136.388H177.139ZM181.491 141.776L183.363 136.388H184.815L182.295 143H180.663L178.155 136.388H179.619L181.491 141.776ZM191.909 139.532C191.909 139.78 191.893 140.004 191.861 140.204H186.809C186.849 140.732 187.045 141.156 187.397 141.476C187.749 141.796 188.181 141.956 188.693 141.956C189.429 141.956 189.949 141.648 190.253 141.032H191.729C191.529 141.64 191.165 142.14 190.637 142.532C190.117 142.916 189.469 143.108 188.693 143.108C188.061 143.108 187.493 142.968 186.989 142.688C186.493 142.4 186.101 142 185.813 141.488C185.533 140.968 185.393 140.368 185.393 139.688C185.393 139.008 185.529 138.412 185.801 137.9C186.081 137.38 186.469 136.98 186.965 136.7C187.469 136.42 188.045 136.28 188.693 136.28C189.317 136.28 189.873 136.416 190.361 136.688C190.849 136.96 191.229 137.344 191.501 137.84C191.773 138.328 191.909 138.892 191.909 139.532ZM190.481 139.1C190.473 138.596 190.293 138.192 189.941 137.888C189.589 137.584 189.153 137.432 188.633 137.432C188.161 137.432 187.757 137.584 187.421 137.888C187.085 138.184 186.885 138.588 186.821 139.1H190.481ZM194.623 137.348C194.823 137.012 195.087 136.752 195.415 136.568C195.751 136.376 196.147 136.28 196.603 136.28V137.696H196.255C195.719 137.696 195.311 137.832 195.031 138.104C194.759 138.376 194.623 138.848 194.623 139.52V143H193.255V136.388H194.623V137.348ZM203.813 136.388L199.757 146.108H198.341L199.685 142.892L197.081 136.388H198.605L200.465 141.428L202.397 136.388H203.813ZM212.295 143L210.375 139.664H209.331V143H207.963V134.66H210.843C211.483 134.66 212.023 134.772 212.463 134.996C212.911 135.22 213.243 135.52 213.459 135.896C213.683 136.272 213.795 136.692 213.795 137.156C213.795 137.7 213.635 138.196 213.315 138.644C213.003 139.084 212.519 139.384 211.863 139.544L213.927 143H212.295ZM209.331 138.572H210.843C211.355 138.572 211.739 138.444 211.995 138.188C212.259 137.932 212.391 137.588 212.391 137.156C212.391 136.724 212.263 136.388 212.007 136.148C211.751 135.9 211.363 135.776 210.843 135.776H209.331V138.572ZM221.605 139.532C221.605 139.78 221.589 140.004 221.557 140.204H216.505C216.545 140.732 216.741 141.156 217.093 141.476C217.445 141.796 217.877 141.956 218.389 141.956C219.125 141.956 219.645 141.648 219.949 141.032H221.425C221.225 141.64 220.861 142.14 220.333 142.532C219.813 142.916 219.165 143.108 218.389 143.108C217.757 143.108 217.189 142.968 216.685 142.688C216.189 142.4 215.797 142 215.509 141.488C215.229 140.968 215.089 140.368 215.089 139.688C215.089 139.008 215.225 138.412 215.497 137.9C215.777 137.38 216.165 136.98 216.661 136.7C217.165 136.42 217.741 136.28 218.389 136.28C219.013 136.28 219.569 136.416 220.057 136.688C220.545 136.96 220.925 137.344 221.197 137.84C221.469 138.328 221.605 138.892 221.605 139.532ZM220.177 139.1C220.169 138.596 219.989 138.192 219.637 137.888C219.285 137.584 218.849 137.432 218.329 137.432C217.857 137.432 217.453 137.584 217.117 137.888C216.781 138.184 216.581 138.588 216.517 139.1H220.177ZM224.547 137.504V141.164C224.547 141.412 224.603 141.592 224.715 141.704C224.835 141.808 225.035 141.86 225.315 141.86H226.155V143H225.075C224.459 143 223.987 142.856 223.659 142.568C223.331 142.28 223.167 141.812 223.167 141.164V137.504H222.387V136.388H223.167V134.744H224.547V136.388H226.155V137.504H224.547ZM233.404 136.388V143H232.036V142.22C231.82 142.492 231.536 142.708 231.184 142.868C230.84 143.02 230.472 143.096 230.08 143.096C229.56 143.096 229.092 142.988 228.676 142.772C228.268 142.556 227.944 142.236 227.704 141.812C227.472 141.388 227.356 140.876 227.356 140.276V136.388H228.712V140.072C228.712 140.664 228.86 141.12 229.156 141.44C229.452 141.752 229.856 141.908 230.368 141.908C230.88 141.908 231.284 141.752 231.58 141.44C231.884 141.12 232.036 140.664 232.036 140.072V136.388H233.404ZM236.577 137.348C236.777 137.012 237.041 136.752 237.369 136.568C237.705 136.376 238.101 136.28 238.557 136.28V137.696H238.209C237.673 137.696 237.265 137.832 236.985 138.104C236.713 138.376 236.577 138.848 236.577 139.52V143H235.209V136.388H236.577V137.348ZM243.15 136.28C243.67 136.28 244.134 136.388 244.542 136.604C244.958 136.82 245.282 137.14 245.514 137.564C245.746 137.988 245.862 138.5 245.862 139.1V143H244.506V139.304C244.506 138.712 244.358 138.26 244.062 137.948C243.766 137.628 243.362 137.468 242.85 137.468C242.338 137.468 241.93 137.628 241.626 137.948C241.33 138.26 241.182 138.712 241.182 139.304V143H239.814V136.388H241.182V137.144C241.406 136.872 241.69 136.66 242.034 136.508C242.386 136.356 242.758 136.28 243.15 136.28ZM250.007 143.108C249.487 143.108 249.019 143.016 248.603 142.832C248.195 142.64 247.871 142.384 247.631 142.064C247.391 141.736 247.263 141.372 247.247 140.972H248.663C248.687 141.252 248.819 141.488 249.059 141.68C249.307 141.864 249.615 141.956 249.983 141.956C250.367 141.956 250.663 141.884 250.871 141.74C251.087 141.588 251.195 141.396 251.195 141.164C251.195 140.916 251.075 140.732 250.835 140.612C250.603 140.492 250.231 140.36 249.719 140.216C249.223 140.08 248.819 139.948 248.507 139.82C248.195 139.692 247.923 139.496 247.691 139.232C247.467 138.968 247.355 138.62 247.355 138.188C247.355 137.836 247.459 137.516 247.667 137.228C247.875 136.932 248.171 136.7 248.555 136.532C248.947 136.364 249.395 136.28 249.899 136.28C250.651 136.28 251.255 136.472 251.711 136.856C252.175 137.232 252.423 137.748 252.455 138.404H251.087C251.063 138.108 250.943 137.872 250.727 137.696C250.511 137.52 250.219 137.432 249.851 137.432C249.491 137.432 249.215 137.5 249.023 137.636C248.831 137.772 248.735 137.952 248.735 138.176C248.735 138.352 248.799 138.5 248.927 138.62C249.055 138.74 249.211 138.836 249.395 138.908C249.579 138.972 249.851 139.056 250.211 139.16C250.691 139.288 251.083 139.42 251.387 139.556C251.699 139.684 251.967 139.876 252.191 140.132C252.415 140.388 252.531 140.728 252.539 141.152C252.539 141.528 252.435 141.864 252.227 142.16C252.019 142.456 251.723 142.688 251.339 142.856C250.963 143.024 250.519 143.108 250.007 143.108ZM254.569 143.084C254.321 143.084 254.113 143 253.945 142.832C253.777 142.664 253.693 142.456 253.693 142.208C253.693 141.96 253.777 141.752 253.945 141.584C254.113 141.416 254.321 141.332 254.569 141.332C254.809 141.332 255.013 141.416 255.181 141.584C255.349 141.752 255.433 141.96 255.433 142.208C255.433 142.456 255.349 142.664 255.181 142.832C255.013 143 254.809 143.084 254.569 143.084ZM262.753 134.66C263.641 134.66 264.417 134.832 265.081 135.176C265.753 135.512 266.269 136 266.629 136.64C266.997 137.272 267.181 138.012 267.181 138.86C267.181 139.708 266.997 140.444 266.629 141.068C266.269 141.692 265.753 142.172 265.081 142.508C264.417 142.836 263.641 143 262.753 143H260.029V134.66H262.753ZM262.753 141.884C263.729 141.884 264.477 141.62 264.997 141.092C265.517 140.564 265.777 139.82 265.777 138.86C265.777 137.892 265.517 137.136 264.997 136.592C264.477 136.048 263.729 135.776 262.753 135.776H261.397V141.884H262.753ZM274.597 139.532C274.597 139.78 274.581 140.004 274.549 140.204H269.497C269.537 140.732 269.733 141.156 270.085 141.476C270.437 141.796 270.869 141.956 271.381 141.956C272.117 141.956 272.637 141.648 272.941 141.032H274.417C274.217 141.64 273.853 142.14 273.325 142.532C272.805 142.916 272.157 143.108 271.381 143.108C270.749 143.108 270.181 142.968 269.677 142.688C269.181 142.4 268.789 142 268.501 141.488C268.221 140.968 268.081 140.368 268.081 139.688C268.081 139.008 268.217 138.412 268.489 137.9C268.769 137.38 269.157 136.98 269.653 136.7C270.157 136.42 270.733 136.28 271.381 136.28C272.005 136.28 272.561 136.416 273.049 136.688C273.537 136.96 273.917 137.344 274.189 137.84C274.461 138.328 274.597 138.892 274.597 139.532ZM273.169 139.1C273.161 138.596 272.981 138.192 272.629 137.888C272.277 137.584 271.841 137.432 271.321 137.432C270.849 137.432 270.445 137.584 270.109 137.888C269.773 138.184 269.573 138.588 269.509 139.1H273.169ZM277.539 137.504V141.164C277.539 141.412 277.595 141.592 277.707 141.704C277.827 141.808 278.027 141.86 278.307 141.86H279.147V143H278.067C277.451 143 276.979 142.856 276.651 142.568C276.323 142.28 276.159 141.812 276.159 141.164V137.504H275.379V136.388H276.159V134.744H277.539V136.388H279.147V137.504H277.539ZM279.952 139.664C279.952 139 280.088 138.412 280.36 137.9C280.64 137.388 281.016 136.992 281.488 136.712C281.968 136.424 282.496 136.28 283.072 136.28C283.592 136.28 284.044 136.384 284.428 136.592C284.82 136.792 285.132 137.044 285.364 137.348V136.388H286.744V143H285.364V142.016C285.132 142.328 284.816 142.588 284.416 142.796C284.016 143.004 283.56 143.108 283.048 143.108C282.48 143.108 281.96 142.964 281.488 142.676C281.016 142.38 280.64 141.972 280.36 141.452C280.088 140.924 279.952 140.328 279.952 139.664ZM285.364 139.688C285.364 139.232 285.268 138.836 285.076 138.5C284.892 138.164 284.648 137.908 284.344 137.732C284.04 137.556 283.712 137.468 283.36 137.468C283.008 137.468 282.68 137.556 282.376 137.732C282.072 137.9 281.824 138.152 281.632 138.488C281.448 138.816 281.356 139.208 281.356 139.664C281.356 140.12 281.448 140.52 281.632 140.864C281.824 141.208 282.072 141.472 282.376 141.656C282.688 141.832 283.016 141.92 283.36 141.92C283.712 141.92 284.04 141.832 284.344 141.656C284.648 141.48 284.892 141.224 285.076 140.888C285.268 140.544 285.364 140.144 285.364 139.688ZM289.237 135.512C288.989 135.512 288.781 135.428 288.613 135.26C288.445 135.092 288.361 134.884 288.361 134.636C288.361 134.388 288.445 134.18 288.613 134.012C288.781 133.844 288.989 133.76 289.237 133.76C289.477 133.76 289.681 133.844 289.849 134.012C290.017 134.18 290.101 134.388 290.101 134.636C290.101 134.884 290.017 135.092 289.849 135.26C289.681 135.428 289.477 135.512 289.237 135.512ZM289.909 136.388V143H288.541V136.388H289.909ZM293.073 134.12V143H291.705V134.12H293.073ZM297.269 143.108C296.749 143.108 296.281 143.016 295.865 142.832C295.457 142.64 295.133 142.384 294.893 142.064C294.653 141.736 294.525 141.372 294.509 140.972H295.925C295.949 141.252 296.081 141.488 296.321 141.68C296.569 141.864 296.877 141.956 297.245 141.956C297.629 141.956 297.925 141.884 298.133 141.74C298.349 141.588 298.457 141.396 298.457 141.164C298.457 140.916 298.337 140.732 298.097 140.612C297.865 140.492 297.493 140.36 296.981 140.216C296.485 140.08 296.081 139.948 295.769 139.82C295.457 139.692 295.185 139.496 294.953 139.232C294.729 138.968 294.617 138.62 294.617 138.188C294.617 137.836 294.721 137.516 294.929 137.228C295.137 136.932 295.433 136.7 295.817 136.532C296.209 136.364 296.657 136.28 297.161 136.28C297.913 136.28 298.517 136.472 298.973 136.856C299.437 137.232 299.685 137.748 299.717 138.404H298.349C298.325 138.108 298.205 137.872 297.989 137.696C297.773 137.52 297.481 137.432 297.113 137.432C296.753 137.432 296.477 137.5 296.285 137.636C296.093 137.772 295.997 137.952 295.997 138.176C295.997 138.352 296.061 138.5 296.189 138.62C296.317 138.74 296.473 138.836 296.657 138.908C296.841 138.972 297.113 139.056 297.473 139.16C297.953 139.288 298.345 139.42 298.649 139.556C298.961 139.684 299.229 139.876 299.453 140.132C299.677 140.388 299.793 140.728 299.801 141.152C299.801 141.528 299.697 141.864 299.489 142.16C299.281 142.456 298.985 142.688 298.601 142.856C298.225 143.024 297.781 143.108 297.269 143.108Z" fill="black"/>
<path d="M259.129 144.2H300.377V144.8H259.129V144.2Z" fill="black"/>
<defs>
<clipPath id="clip0_11_5806">
<rect width="40" height="40" fill="white" transform="translate(20 23)"/>
</clipPath>
<clipPath id="clip1_11_5806">
<rect width="40" height="40" fill="white" transform="translate(20 105)"/>
</clipPath>
</defs>
</svg>
