<svg width="398" height="108" viewBox="0 0 398 108" fill="none" xmlns="http://www.w3.org/2000/svg">
<rect width="20" height="40" rx="4" fill="#DB4444"/>
<path d="M42.288 26.112C41.2427 26.112 40.2827 25.8667 39.408 25.376C38.5333 24.8853 37.84 24.208 37.328 23.344C36.816 22.4693 36.56 21.4827 36.56 20.384C36.56 19.296 36.816 18.32 37.328 17.456C37.84 16.5813 38.5333 15.8987 39.408 15.408C40.2827 14.9173 41.2427 14.672 42.288 14.672C43.344 14.672 44.304 14.9173 45.168 15.408C46.0427 15.8987 46.7307 16.5813 47.232 17.456C47.744 18.32 48 19.296 48 20.384C48 21.4827 47.744 22.4693 47.232 23.344C46.7307 24.208 46.0427 24.8853 45.168 25.376C44.2933 25.8667 43.3333 26.112 42.288 26.112ZM42.288 24.112C42.96 24.112 43.552 23.9627 44.064 23.664C44.576 23.3547 44.976 22.9173 45.264 22.352C45.552 21.7867 45.696 21.1307 45.696 20.384C45.696 19.6373 45.552 18.9867 45.264 18.432C44.976 17.8667 44.576 17.4347 44.064 17.136C43.552 16.8373 42.96 16.688 42.288 16.688C41.616 16.688 41.0187 16.8373 40.496 17.136C39.984 17.4347 39.584 17.8667 39.296 18.432C39.008 18.9867 38.864 19.6373 38.864 20.384C38.864 21.1307 39.008 21.7867 39.296 22.352C39.584 22.9173 39.984 23.3547 40.496 23.664C41.0187 23.9627 41.616 24.112 42.288 24.112ZM58.0345 17.136V26H55.7785V24.88C55.4905 25.264 55.1118 25.568 54.6425 25.792C54.1838 26.0053 53.6825 26.112 53.1385 26.112C52.4452 26.112 51.8318 25.968 51.2985 25.68C50.7652 25.3813 50.3438 24.9493 50.0345 24.384C49.7358 23.808 49.5865 23.1253 49.5865 22.336V17.136H51.8265V22.016C51.8265 22.72 52.0025 23.264 52.3545 23.648C52.7065 24.0213 53.1865 24.208 53.7945 24.208C54.4132 24.208 54.8985 24.0213 55.2505 23.648C55.6025 23.264 55.7785 22.72 55.7785 22.016V17.136H58.0345ZM62.4846 18.512C62.7726 18.0427 63.146 17.6747 63.6046 17.408C64.074 17.1413 64.6073 17.008 65.2046 17.008V19.36H64.6126C63.9086 19.36 63.3753 19.5253 63.0126 19.856C62.6606 20.1867 62.4846 20.7627 62.4846 21.584V26H60.2446V17.136H62.4846V18.512ZM78.6699 18.288C78.6699 18.8853 78.5259 19.4453 78.2379 19.968C77.9605 20.4907 77.5179 20.912 76.9099 21.232C76.3125 21.552 75.5552 21.712 74.6379 21.712H72.7659V26H70.5259V14.832H74.6379C75.5019 14.832 76.2379 14.9813 76.8459 15.28C77.4539 15.5787 77.9072 15.9893 78.2059 16.512C78.5152 17.0347 78.6699 17.6267 78.6699 18.288ZM74.5419 19.904C75.1605 19.904 75.6192 19.7653 75.9179 19.488C76.2165 19.2 76.3659 18.8 76.3659 18.288C76.3659 17.2 75.7579 16.656 74.5419 16.656H72.7659V19.904H74.5419ZM82.5003 18.512C82.7883 18.0427 83.1616 17.6747 83.6203 17.408C84.0896 17.1413 84.6229 17.008 85.2203 17.008V19.36H84.6283C83.9243 19.36 83.3909 19.5253 83.0283 19.856C82.6763 20.1867 82.5003 20.7627 82.5003 21.584V26H80.2603V17.136H82.5003V18.512ZM90.665 26.144C89.8117 26.144 89.0437 25.9573 88.361 25.584C87.6783 25.2 87.1397 24.6613 86.745 23.968C86.361 23.2747 86.169 22.4747 86.169 21.568C86.169 20.6613 86.3663 19.8613 86.761 19.168C87.1663 18.4747 87.7157 17.9413 88.409 17.568C89.1023 17.184 89.8757 16.992 90.729 16.992C91.5823 16.992 92.3557 17.184 93.049 17.568C93.7423 17.9413 94.2863 18.4747 94.681 19.168C95.0863 19.8613 95.289 20.6613 95.289 21.568C95.289 22.4747 95.081 23.2747 94.665 23.968C94.2597 24.6613 93.705 25.2 93.001 25.584C92.3077 25.9573 91.529 26.144 90.665 26.144ZM90.665 24.192C91.0703 24.192 91.449 24.096 91.801 23.904C92.1637 23.7013 92.4517 23.4027 92.665 23.008C92.8783 22.6133 92.985 22.1333 92.985 21.568C92.985 20.7253 92.761 20.08 92.313 19.632C91.8757 19.1733 91.337 18.944 90.697 18.944C90.057 18.944 89.5183 19.1733 89.081 19.632C88.6543 20.08 88.441 20.7253 88.441 21.568C88.441 22.4107 88.649 23.0613 89.065 23.52C89.4917 23.968 90.025 24.192 90.665 24.192ZM96.3561 21.536C96.3561 20.64 96.5321 19.8453 96.8841 19.152C97.2468 18.4587 97.7375 17.9253 98.3561 17.552C98.9748 17.1787 99.6628 16.992 100.42 16.992C100.996 16.992 101.545 17.12 102.068 17.376C102.591 17.6213 103.007 17.952 103.316 18.368V14.16H105.588V26H103.316V24.688C103.039 25.1253 102.649 25.4773 102.148 25.744C101.647 26.0107 101.065 26.144 100.404 26.144C99.6575 26.144 98.9748 25.952 98.3561 25.568C97.7375 25.184 97.2468 24.6453 96.8841 23.952C96.5321 23.248 96.3561 22.4427 96.3561 21.536ZM103.332 21.568C103.332 21.024 103.225 20.56 103.012 20.176C102.799 19.7813 102.511 19.4827 102.148 19.28C101.785 19.0667 101.396 18.96 100.98 18.96C100.564 18.96 100.18 19.0613 99.8281 19.264C99.4761 19.4667 99.1881 19.7653 98.9641 20.16C98.7508 20.544 98.6441 21.0027 98.6441 21.536C98.6441 22.0693 98.7508 22.5387 98.9641 22.944C99.1881 23.3387 99.4761 23.6427 99.8281 23.856C100.191 24.0693 100.575 24.176 100.98 24.176C101.396 24.176 101.785 24.0747 102.148 23.872C102.511 23.6587 102.799 23.36 103.012 22.976C103.225 22.5813 103.332 22.112 103.332 21.568ZM116.144 17.136V26H113.888V24.88C113.6 25.264 113.221 25.568 112.752 25.792C112.293 26.0053 111.792 26.112 111.248 26.112C110.555 26.112 109.941 25.968 109.408 25.68C108.875 25.3813 108.453 24.9493 108.144 24.384C107.845 23.808 107.696 23.1253 107.696 22.336V17.136H109.936V22.016C109.936 22.72 110.112 23.264 110.464 23.648C110.816 24.0213 111.296 24.208 111.904 24.208C112.523 24.208 113.008 24.0213 113.36 23.648C113.712 23.264 113.888 22.72 113.888 22.016V17.136H116.144ZM117.778 21.568C117.778 20.6507 117.965 19.8507 118.338 19.168C118.711 18.4747 119.229 17.9413 119.89 17.568C120.551 17.184 121.309 16.992 122.162 16.992C123.261 16.992 124.167 17.2693 124.882 17.824C125.607 18.368 126.093 19.136 126.338 20.128H123.922C123.794 19.744 123.575 19.4453 123.266 19.232C122.967 19.008 122.594 18.896 122.146 18.896C121.506 18.896 120.999 19.1307 120.626 19.6C120.253 20.0587 120.066 20.7147 120.066 21.568C120.066 22.4107 120.253 23.0667 120.626 23.536C120.999 23.9947 121.506 24.224 122.146 24.224C123.053 24.224 123.645 23.8187 123.922 23.008H126.338C126.093 23.968 125.607 24.7307 124.882 25.296C124.157 25.8613 123.25 26.144 122.162 26.144C121.309 26.144 120.551 25.9573 119.89 25.584C119.229 25.2 118.711 24.6667 118.338 23.984C117.965 23.2907 117.778 22.4853 117.778 21.568ZM130.587 18.976V23.264C130.587 23.5627 130.656 23.7813 130.795 23.92C130.944 24.048 131.19 24.112 131.531 24.112H132.571V26H131.163C129.275 26 128.331 25.0827 128.331 23.248V18.976H127.275V17.136H128.331V14.944H130.587V17.136H132.571V18.976H130.587ZM137.574 26.144C136.849 26.144 136.198 26.016 135.622 25.76C135.046 25.4933 134.587 25.136 134.246 24.688C133.915 24.24 133.734 23.744 133.702 23.2H135.958C136.001 23.5413 136.166 23.824 136.454 24.048C136.753 24.272 137.121 24.384 137.558 24.384C137.985 24.384 138.315 24.2987 138.55 24.128C138.795 23.9573 138.918 23.7387 138.918 23.472C138.918 23.184 138.769 22.9707 138.47 22.832C138.182 22.6827 137.718 22.5227 137.078 22.352C136.417 22.192 135.873 22.0267 135.446 21.856C135.03 21.6853 134.667 21.424 134.358 21.072C134.059 20.72 133.91 20.2453 133.91 19.648C133.91 19.1573 134.049 18.7093 134.326 18.304C134.614 17.8987 135.019 17.5787 135.542 17.344C136.075 17.1093 136.699 16.992 137.414 16.992C138.47 16.992 139.313 17.2587 139.942 17.792C140.571 18.3147 140.918 19.024 140.982 19.92H138.838C138.806 19.568 138.657 19.2907 138.39 19.088C138.134 18.8747 137.787 18.768 137.35 18.768C136.945 18.768 136.63 18.8427 136.406 18.992C136.193 19.1413 136.086 19.3493 136.086 19.616C136.086 19.9147 136.235 20.144 136.534 20.304C136.833 20.4533 137.297 20.608 137.926 20.768C138.566 20.928 139.094 21.0933 139.51 21.264C139.926 21.4347 140.283 21.7013 140.582 22.064C140.891 22.416 141.051 22.8853 141.062 23.472C141.062 23.984 140.918 24.4427 140.63 24.848C140.353 25.2533 139.947 25.5733 139.414 25.808C138.891 26.032 138.278 26.144 137.574 26.144Z" fill="#DB4444"/>
<path d="M2.58239 97V70.8182H19.6108V74.794H7.32528V81.902H18.7287V85.8778H7.32528V93.0241H19.7131V97H2.58239ZM29.4691 77.3636L33.4322 84.6122L37.4592 77.3636H42.3555L36.4364 87.1818L42.4578 97H37.587L33.4322 89.9304L29.3157 97H24.4066L30.3896 87.1818L24.56 77.3636H29.4691ZM47.375 104.364V77.3636H51.9262V80.6108H52.1946C52.4333 80.1335 52.7699 79.6264 53.2046 79.0895C53.6392 78.544 54.2273 78.0795 54.9688 77.696C55.7103 77.304 56.6563 77.108 57.8068 77.108C59.3239 77.108 60.6918 77.4957 61.9105 78.2713C63.1378 79.0384 64.1094 80.1761 64.8253 81.6847C65.5497 83.1847 65.912 85.0256 65.912 87.2074C65.912 89.3636 65.5583 91.196 64.8509 92.7045C64.1435 94.2131 63.1804 95.3636 61.9617 96.1562C60.7429 96.9489 59.3622 97.3452 57.8196 97.3452C56.6946 97.3452 55.7614 97.1577 55.0199 96.7827C54.2784 96.4077 53.6818 95.956 53.2301 95.4276C52.787 94.8906 52.4418 94.3835 52.1946 93.9062H52.0029V104.364H47.375ZM51.9134 87.1818C51.9134 88.4517 52.0924 89.5639 52.4503 90.5185C52.8168 91.473 53.3409 92.2187 54.0228 92.7557C54.7131 93.2841 55.5483 93.5483 56.5284 93.5483C57.5512 93.5483 58.4077 93.2756 59.098 92.7301C59.7884 92.1761 60.3083 91.4219 60.6577 90.4673C61.0157 89.5043 61.1946 88.4091 61.1946 87.1818C61.1946 85.9631 61.0199 84.8807 60.6705 83.9347C60.3211 82.9886 59.8012 82.2472 59.1108 81.7102C58.4205 81.1733 57.5597 80.9048 56.5284 80.9048C55.5398 80.9048 54.7003 81.1648 54.01 81.6847C53.3196 82.2045 52.7955 82.9332 52.4375 83.8707C52.0881 84.8082 51.9134 85.9119 51.9134 87.1818ZM75.9429 70.8182V97H71.315V70.8182H75.9429ZM90.7071 97.3835C88.7895 97.3835 87.1275 96.9616 85.7213 96.1179C84.315 95.2741 83.2241 94.0937 82.4486 92.5767C81.6815 91.0597 81.298 89.2869 81.298 87.2585C81.298 85.2301 81.6815 83.4531 82.4486 81.9276C83.2241 80.402 84.315 79.2173 85.7213 78.3736C87.1275 77.5298 88.7895 77.108 90.7071 77.108C92.6247 77.108 94.2866 77.5298 95.6929 78.3736C97.0991 79.2173 98.1858 80.402 98.9528 81.9276C99.7284 83.4531 100.116 85.2301 100.116 87.2585C100.116 89.2869 99.7284 91.0597 98.9528 92.5767C98.1858 94.0937 97.0991 95.2741 95.6929 96.1179C94.2866 96.9616 92.6247 97.3835 90.7071 97.3835ZM90.7327 93.6761C91.7724 93.6761 92.6417 93.3906 93.3406 92.8196C94.0395 92.2401 94.5594 91.4645 94.9003 90.4929C95.2497 89.5213 95.4244 88.4389 95.4244 87.2457C95.4244 86.044 95.2497 84.9574 94.9003 83.9858C94.5594 83.0057 94.0395 82.2259 93.3406 81.6463C92.6417 81.0668 91.7724 80.777 90.7327 80.777C89.6673 80.777 88.781 81.0668 88.0736 81.6463C87.3747 82.2259 86.8506 83.0057 86.5011 83.9858C86.1602 84.9574 85.9898 86.044 85.9898 87.2457C85.9898 88.4389 86.1602 89.5213 86.5011 90.4929C86.8506 91.4645 87.3747 92.2401 88.0736 92.8196C88.781 93.3906 89.6673 93.6761 90.7327 93.6761ZM105.484 97V77.3636H109.971V80.6364H110.176C110.534 79.5028 111.147 78.6293 112.017 78.0156C112.895 77.3935 113.896 77.0824 115.021 77.0824C115.277 77.0824 115.562 77.0952 115.878 77.1207C116.201 77.1378 116.47 77.1676 116.683 77.2102V81.4673C116.487 81.3991 116.176 81.3395 115.75 81.2884C115.332 81.2287 114.927 81.1989 114.535 81.1989C113.691 81.1989 112.933 81.3821 112.26 81.7486C111.595 82.1065 111.071 82.6051 110.687 83.2443C110.304 83.8835 110.112 84.6207 110.112 85.456V97H105.484ZM129.082 97.3835C127.113 97.3835 125.413 96.9744 123.981 96.1562C122.558 95.3295 121.463 94.1619 120.696 92.6534C119.929 91.1364 119.545 89.3509 119.545 87.2969C119.545 85.277 119.929 83.5043 120.696 81.9787C121.471 80.4446 122.554 79.2514 123.943 78.3991C125.332 77.5384 126.964 77.108 128.839 77.108C130.049 77.108 131.191 77.304 132.265 77.696C133.348 78.0795 134.302 78.6761 135.129 79.4858C135.964 80.2955 136.62 81.3267 137.098 82.5795C137.575 83.8239 137.814 85.3068 137.814 87.0284V88.4474H121.718V85.3281H133.378C133.369 84.4418 133.177 83.6534 132.802 82.9631C132.427 82.2642 131.903 81.7145 131.23 81.3139C130.565 80.9134 129.79 80.7131 128.903 80.7131C127.957 80.7131 127.126 80.9432 126.41 81.4034C125.694 81.8551 125.136 82.4517 124.736 83.1932C124.343 83.9261 124.143 84.7315 124.135 85.6094V88.3324C124.135 89.4744 124.343 90.4545 124.761 91.2727C125.179 92.0824 125.763 92.7045 126.513 93.1392C127.263 93.5653 128.14 93.7784 129.146 93.7784C129.819 93.7784 130.429 93.6847 130.974 93.4972C131.52 93.3011 131.993 93.0156 132.393 92.6406C132.794 92.2656 133.096 91.8011 133.301 91.2472L137.622 91.733C137.349 92.875 136.829 93.8722 136.062 94.7244C135.304 95.5682 134.332 96.2244 133.147 96.6932C131.963 97.1534 130.608 97.3835 129.082 97.3835ZM177.138 83.9091C177.138 86.7301 176.609 89.1463 175.553 91.1577C174.504 93.1605 173.073 94.6946 171.257 95.7599C169.45 96.8253 167.401 97.358 165.108 97.358C162.815 97.358 160.761 96.8253 158.946 95.7599C157.139 94.6861 155.708 93.1477 154.651 91.1449C153.602 89.1335 153.078 86.7216 153.078 83.9091C153.078 81.0881 153.602 78.6761 154.651 76.6733C155.708 74.6619 157.139 73.1236 158.946 72.0582C160.761 70.9929 162.815 70.4602 165.108 70.4602C167.401 70.4602 169.45 70.9929 171.257 72.0582C173.073 73.1236 174.504 74.6619 175.553 76.6733C176.609 78.6761 177.138 81.0881 177.138 83.9091ZM172.369 83.9091C172.369 81.9233 172.058 80.2486 171.436 78.8849C170.823 77.5128 169.97 76.4773 168.879 75.7784C167.788 75.071 166.531 74.7173 165.108 74.7173C163.685 74.7173 162.428 75.071 161.337 75.7784C160.246 76.4773 159.389 77.5128 158.767 78.8849C158.154 80.2486 157.847 81.9233 157.847 83.9091C157.847 85.8949 158.154 87.5739 158.767 88.946C159.389 90.3097 160.246 91.3452 161.337 92.0526C162.428 92.7514 163.685 93.1009 165.108 93.1009C166.531 93.1009 167.788 92.7514 168.879 92.0526C169.97 91.3452 170.823 90.3097 171.436 88.946C172.058 87.5739 172.369 85.8949 172.369 83.9091ZM195.373 88.7415V77.3636H200.001V97H195.514V93.5099H195.309C194.866 94.6094 194.137 95.5085 193.123 96.2074C192.117 96.9062 190.877 97.2557 189.403 97.2557C188.116 97.2557 186.978 96.9702 185.989 96.3991C185.009 95.8196 184.242 94.9801 183.688 93.8807C183.134 92.7727 182.857 91.4347 182.857 89.8665V77.3636H187.485V89.1506C187.485 90.3949 187.826 91.3835 188.508 92.1165C189.19 92.8494 190.085 93.2159 191.193 93.2159C191.874 93.2159 192.535 93.0497 193.174 92.7173C193.813 92.3849 194.337 91.8906 194.747 91.2344C195.164 90.5696 195.373 89.7386 195.373 88.7415ZM206.2 97V77.3636H210.687V80.6364H210.891C211.249 79.5028 211.863 78.6293 212.732 78.0156C213.61 77.3935 214.612 77.0824 215.737 77.0824C215.992 77.0824 216.278 77.0952 216.593 77.1207C216.917 77.1378 217.186 77.1676 217.399 77.2102V81.4673C217.203 81.3991 216.891 81.3395 216.465 81.2884C216.048 81.2287 215.643 81.1989 215.251 81.1989C214.407 81.1989 213.649 81.3821 212.975 81.7486C212.311 82.1065 211.786 82.6051 211.403 83.2443C211.019 83.8835 210.828 84.6207 210.828 85.456V97H206.2ZM232.487 97V70.8182H242.306C244.317 70.8182 246.004 71.1932 247.368 71.9432C248.74 72.6932 249.776 73.7244 250.475 75.0369C251.182 76.3409 251.536 77.8239 251.536 79.4858C251.536 81.1648 251.182 82.6562 250.475 83.9602C249.767 85.2642 248.723 86.2912 247.342 87.0412C245.962 87.7827 244.262 88.1534 242.242 88.1534H235.735V84.2543H241.602C242.779 84.2543 243.742 84.0497 244.492 83.6406C245.242 83.2315 245.796 82.669 246.154 81.9531C246.52 81.2372 246.703 80.4148 246.703 79.4858C246.703 78.5568 246.52 77.7386 246.154 77.0312C245.796 76.3239 245.237 75.7741 244.479 75.3821C243.729 74.9815 242.762 74.7812 241.577 74.7812H237.23V97H232.487ZM256.891 97V77.3636H261.378V80.6364H261.583C261.941 79.5028 262.554 78.6293 263.423 78.0156C264.301 77.3935 265.303 77.0824 266.428 77.0824C266.683 77.0824 266.969 77.0952 267.284 77.1207C267.608 77.1378 267.877 77.1676 268.09 77.2102V81.4673C267.894 81.3991 267.583 81.3395 267.156 81.2884C266.739 81.2287 266.334 81.1989 265.942 81.1989C265.098 81.1989 264.34 81.3821 263.666 81.7486C263.002 82.1065 262.477 82.6051 262.094 83.2443C261.71 83.8835 261.519 84.6207 261.519 85.456V97H256.891ZM280.361 97.3835C278.443 97.3835 276.781 96.9616 275.375 96.1179C273.969 95.2741 272.878 94.0937 272.102 92.5767C271.335 91.0597 270.952 89.2869 270.952 87.2585C270.952 85.2301 271.335 83.4531 272.102 81.9276C272.878 80.402 273.969 79.2173 275.375 78.3736C276.781 77.5298 278.443 77.108 280.361 77.108C282.279 77.108 283.941 77.5298 285.347 78.3736C286.753 79.2173 287.84 80.402 288.607 81.9276C289.382 83.4531 289.77 85.2301 289.77 87.2585C289.77 89.2869 289.382 91.0597 288.607 92.5767C287.84 94.0937 286.753 95.2741 285.347 96.1179C283.941 96.9616 282.279 97.3835 280.361 97.3835ZM280.387 93.6761C281.426 93.6761 282.296 93.3906 282.995 92.8196C283.693 92.2401 284.213 91.4645 284.554 90.4929C284.904 89.5213 285.078 88.4389 285.078 87.2457C285.078 86.044 284.904 84.9574 284.554 83.9858C284.213 83.0057 283.693 82.2259 282.995 81.6463C282.296 81.0668 281.426 80.777 280.387 80.777C279.321 80.777 278.435 81.0668 277.727 81.6463C277.029 82.2259 276.504 83.0057 276.155 83.9858C275.814 84.9574 275.644 86.044 275.644 87.2457C275.644 88.4389 275.814 89.5213 276.155 90.4929C276.504 91.4645 277.029 92.2401 277.727 92.8196C278.435 93.3906 279.321 93.6761 280.387 93.6761ZM302.425 97.3452C300.882 97.3452 299.502 96.9489 298.283 96.1562C297.064 95.3636 296.101 94.2131 295.394 92.7045C294.686 91.196 294.333 89.3636 294.333 87.2074C294.333 85.0256 294.691 83.1847 295.406 81.6847C296.131 80.1761 297.107 79.0384 298.334 78.2713C299.561 77.4957 300.929 77.108 302.438 77.108C303.588 77.108 304.534 77.304 305.276 77.696C306.017 78.0795 306.605 78.544 307.04 79.0895C307.475 79.6264 307.811 80.1335 308.05 80.6108H308.242V70.8182H312.882V97H308.331V93.9062H308.05C307.811 94.3835 307.466 94.8906 307.014 95.4276C306.563 95.956 305.966 96.4077 305.225 96.7827C304.483 97.1577 303.55 97.3452 302.425 97.3452ZM303.716 93.5483C304.696 93.5483 305.531 93.2841 306.222 92.7557C306.912 92.2187 307.436 91.473 307.794 90.5185C308.152 89.5639 308.331 88.4517 308.331 87.1818C308.331 85.9119 308.152 84.8082 307.794 83.8707C307.445 82.9332 306.925 82.2045 306.235 81.6847C305.553 81.1648 304.713 80.9048 303.716 80.9048C302.685 80.9048 301.824 81.1733 301.134 81.7102C300.443 82.2472 299.924 82.9886 299.574 83.9347C299.225 84.8807 299.05 85.9631 299.05 87.1818C299.05 88.4091 299.225 89.5043 299.574 90.4673C299.932 91.4219 300.456 92.1761 301.147 92.7301C301.845 93.2756 302.702 93.5483 303.716 93.5483ZM331.769 88.7415V77.3636H336.397V97H331.91V93.5099H331.705C331.262 94.6094 330.534 95.5085 329.519 96.2074C328.514 96.9062 327.274 97.2557 325.799 97.2557C324.512 97.2557 323.375 96.9702 322.386 96.3991C321.406 95.8196 320.639 94.9801 320.085 93.8807C319.531 92.7727 319.254 91.4347 319.254 89.8665V77.3636H323.882V89.1506C323.882 90.3949 324.223 91.3835 324.904 92.1165C325.586 92.8494 326.481 93.2159 327.589 93.2159C328.271 93.2159 328.931 93.0497 329.571 92.7173C330.21 92.3849 330.734 91.8906 331.143 91.2344C331.561 90.5696 331.769 89.7386 331.769 88.7415ZM351.161 97.3835C349.201 97.3835 347.518 96.9531 346.112 96.0923C344.714 95.2315 343.636 94.0426 342.877 92.5256C342.127 91 341.752 89.2443 341.752 87.2585C341.752 85.2642 342.136 83.5043 342.903 81.9787C343.67 80.4446 344.752 79.2514 346.15 78.3991C347.556 77.5384 349.218 77.108 351.136 77.108C352.73 77.108 354.14 77.402 355.367 77.9901C356.603 78.5696 357.588 79.392 358.321 80.4574C359.054 81.5142 359.471 82.75 359.573 84.1648H355.15C354.971 83.2187 354.545 82.4304 353.872 81.7997C353.207 81.1605 352.316 80.8409 351.2 80.8409C350.254 80.8409 349.423 81.0966 348.707 81.608C347.991 82.1108 347.433 82.8352 347.032 83.7812C346.64 84.7273 346.444 85.8608 346.444 87.1818C346.444 88.5199 346.64 89.6705 347.032 90.6335C347.424 91.5881 347.974 92.3253 348.681 92.8452C349.397 93.3565 350.237 93.6122 351.2 93.6122C351.882 93.6122 352.491 93.4844 353.028 93.2287C353.573 92.9645 354.029 92.5852 354.396 92.0909C354.762 91.5966 355.014 90.9957 355.15 90.2884H359.573C359.463 91.6776 359.054 92.9091 358.346 93.983C357.639 95.0483 356.676 95.8835 355.457 96.4886C354.238 97.0852 352.806 97.3835 351.161 97.3835ZM374.619 77.3636V80.9432H363.331V77.3636H374.619ZM366.117 72.6591H370.745V91.0938C370.745 91.7159 370.839 92.1932 371.027 92.5256C371.223 92.8494 371.478 93.071 371.794 93.1903C372.109 93.3097 372.458 93.3693 372.842 93.3693C373.132 93.3693 373.396 93.348 373.635 93.3054C373.882 93.2628 374.069 93.2244 374.197 93.1903L374.977 96.8082C374.73 96.8935 374.376 96.9872 373.916 97.0895C373.464 97.1918 372.91 97.2514 372.254 97.2685C371.095 97.3026 370.051 97.1278 369.122 96.7443C368.193 96.3523 367.456 95.7472 366.91 94.929C366.373 94.1108 366.109 93.0881 366.117 91.8608V72.6591ZM395.168 82.554L390.949 83.0142C390.83 82.5881 390.621 82.1875 390.323 81.8125C390.033 81.4375 389.641 81.1349 389.147 80.9048C388.652 80.6747 388.047 80.5597 387.331 80.5597C386.368 80.5597 385.559 80.7685 384.902 81.1861C384.255 81.6037 383.935 82.1449 383.943 82.8097C383.935 83.3807 384.144 83.8452 384.57 84.2031C385.005 84.5611 385.72 84.8551 386.718 85.0852L390.067 85.8011C391.925 86.2017 393.306 86.8366 394.209 87.706C395.121 88.5753 395.581 89.7131 395.59 91.1193C395.581 92.3551 395.219 93.446 394.503 94.392C393.796 95.3295 392.811 96.0625 391.55 96.5909C390.289 97.1193 388.84 97.3835 387.203 97.3835C384.8 97.3835 382.865 96.8807 381.399 95.875C379.934 94.8608 379.06 93.4503 378.779 91.6435L383.291 91.2088C383.496 92.0952 383.931 92.7642 384.595 93.2159C385.26 93.6676 386.125 93.8935 387.191 93.8935C388.29 93.8935 389.172 93.6676 389.837 93.2159C390.51 92.7642 390.847 92.206 390.847 91.5412C390.847 90.9787 390.63 90.5142 390.195 90.1477C389.769 89.7812 389.104 89.5 388.201 89.304L384.851 88.6009C382.968 88.2088 381.574 87.5483 380.671 86.6193C379.767 85.6818 379.32 84.4972 379.328 83.0653C379.32 81.8551 379.648 80.8068 380.313 79.9205C380.986 79.0256 381.919 78.3352 383.113 77.8494C384.314 77.3551 385.699 77.108 387.267 77.108C389.568 77.108 391.38 77.598 392.701 78.5781C394.03 79.5582 394.853 80.8835 395.168 82.554Z" fill="black"/>
</svg>
