<svg width="400" height="108" viewBox="0 0 400 108" fill="none" xmlns="http://www.w3.org/2000/svg">
<rect width="20" height="40" rx="4" fill="#DB4444"/>
<path d="M44.704 14.832V16.64H41.728V26H39.488V16.64H36.512V14.832H44.704ZM51.3304 17.008C52.0024 17.008 52.5997 17.1573 53.1224 17.456C53.645 17.744 54.0504 18.176 54.3384 18.752C54.637 19.3173 54.7864 20 54.7864 20.8V26H52.5464V21.104C52.5464 20.4 52.3704 19.8613 52.0184 19.488C51.6664 19.104 51.1864 18.912 50.5784 18.912C49.9597 18.912 49.469 19.104 49.1064 19.488C48.7544 19.8613 48.5784 20.4 48.5784 21.104V26H46.3384V14.16H48.5784V18.24C48.8664 17.856 49.2504 17.5573 49.7304 17.344C50.2104 17.12 50.7437 17.008 51.3304 17.008ZM58.0525 16.08C57.6578 16.08 57.3272 15.9573 57.0605 15.712C56.8045 15.456 56.6765 15.1413 56.6765 14.768C56.6765 14.3947 56.8045 14.0853 57.0605 13.84C57.3272 13.584 57.6578 13.456 58.0525 13.456C58.4472 13.456 58.7725 13.584 59.0285 13.84C59.2952 14.0853 59.4285 14.3947 59.4285 14.768C59.4285 15.1413 59.2952 15.456 59.0285 15.712C58.7725 15.9573 58.4472 16.08 58.0525 16.08ZM59.1565 17.136V26H56.9165V17.136H59.1565ZM64.7616 26.144C64.0363 26.144 63.3856 26.016 62.8096 25.76C62.2336 25.4933 61.775 25.136 61.4336 24.688C61.103 24.24 60.9216 23.744 60.8896 23.2H63.1456C63.1883 23.5413 63.3536 23.824 63.6416 24.048C63.9403 24.272 64.3083 24.384 64.7456 24.384C65.1723 24.384 65.503 24.2987 65.7376 24.128C65.983 23.9573 66.1056 23.7387 66.1056 23.472C66.1056 23.184 65.9563 22.9707 65.6576 22.832C65.3696 22.6827 64.9056 22.5227 64.2656 22.352C63.6043 22.192 63.0603 22.0267 62.6336 21.856C62.2176 21.6853 61.855 21.424 61.5456 21.072C61.247 20.72 61.0976 20.2453 61.0976 19.648C61.0976 19.1573 61.2363 18.7093 61.5136 18.304C61.8016 17.8987 62.207 17.5787 62.7296 17.344C63.263 17.1093 63.887 16.992 64.6016 16.992C65.6576 16.992 66.5003 17.2587 67.1296 17.792C67.759 18.3147 68.1056 19.024 68.1696 19.92H66.0256C65.9936 19.568 65.8443 19.2907 65.5776 19.088C65.3216 18.8747 64.975 18.768 64.5376 18.768C64.1323 18.768 63.8176 18.8427 63.5936 18.992C63.3803 19.1413 63.2736 19.3493 63.2736 19.616C63.2736 19.9147 63.423 20.144 63.7216 20.304C64.0203 20.4533 64.4843 20.608 65.1136 20.768C65.7536 20.928 66.2816 21.0933 66.6976 21.264C67.1136 21.4347 67.471 21.7013 67.7696 22.064C68.079 22.416 68.239 22.8853 68.2496 23.472C68.2496 23.984 68.1056 24.4427 67.8176 24.848C67.5403 25.2533 67.135 25.5733 66.6016 25.808C66.079 26.032 65.4656 26.144 64.7616 26.144ZM86.0769 14.832V26H83.8369V18.736L80.8449 26H79.1489L76.1409 18.736V26H73.9009V14.832H76.4449L79.9969 23.136L83.5489 14.832H86.0769ZM92.2275 26.144C91.3742 26.144 90.6062 25.9573 89.9235 25.584C89.2408 25.2 88.7022 24.6613 88.3075 23.968C87.9235 23.2747 87.7315 22.4747 87.7315 21.568C87.7315 20.6613 87.9288 19.8613 88.3235 19.168C88.7288 18.4747 89.2782 17.9413 89.9715 17.568C90.6648 17.184 91.4382 16.992 92.2915 16.992C93.1448 16.992 93.9182 17.184 94.6115 17.568C95.3048 17.9413 95.8488 18.4747 96.2435 19.168C96.6488 19.8613 96.8515 20.6613 96.8515 21.568C96.8515 22.4747 96.6435 23.2747 96.2275 23.968C95.8222 24.6613 95.2675 25.2 94.5635 25.584C93.8702 25.9573 93.0915 26.144 92.2275 26.144ZM92.2275 24.192C92.6328 24.192 93.0115 24.096 93.3635 23.904C93.7262 23.7013 94.0142 23.4027 94.2275 23.008C94.4408 22.6133 94.5475 22.1333 94.5475 21.568C94.5475 20.7253 94.3235 20.08 93.8755 19.632C93.4382 19.1733 92.8995 18.944 92.2595 18.944C91.6195 18.944 91.0808 19.1733 90.6435 19.632C90.2168 20.08 90.0035 20.7253 90.0035 21.568C90.0035 22.4107 90.2115 23.0613 90.6275 23.52C91.0542 23.968 91.5875 24.192 92.2275 24.192ZM103.407 17.008C104.463 17.008 105.316 17.344 105.967 18.016C106.617 18.6773 106.943 19.6053 106.943 20.8V26H104.703V21.104C104.703 20.4 104.527 19.8613 104.175 19.488C103.823 19.104 103.343 18.912 102.735 18.912C102.116 18.912 101.625 19.104 101.263 19.488C100.911 19.8613 100.735 20.4 100.735 21.104V26H98.4946V17.136H100.735V18.24C101.033 17.856 101.412 17.5573 101.871 17.344C102.34 17.12 102.852 17.008 103.407 17.008ZM111.681 18.976V23.264C111.681 23.5627 111.75 23.7813 111.889 23.92C112.038 24.048 112.283 24.112 112.625 24.112H113.665V26H112.257C110.369 26 109.425 25.0827 109.425 23.248V18.976H108.369V17.136H109.425V14.944H111.681V17.136H113.665V18.976H111.681ZM120.268 17.008C120.94 17.008 121.537 17.1573 122.06 17.456C122.583 17.744 122.988 18.176 123.276 18.752C123.575 19.3173 123.724 20 123.724 20.8V26H121.484V21.104C121.484 20.4 121.308 19.8613 120.956 19.488C120.604 19.104 120.124 18.912 119.516 18.912C118.897 18.912 118.407 19.104 118.044 19.488C117.692 19.8613 117.516 20.4 117.516 21.104V26H115.276V14.16H117.516V18.24C117.804 17.856 118.188 17.5573 118.668 17.344C119.148 17.12 119.681 17.008 120.268 17.008Z" fill="#DB4444"/>
<path d="M2.58239 97V70.8182H12.6051C14.4972 70.8182 16.0696 71.1165 17.3224 71.7131C18.5838 72.3011 19.5256 73.1065 20.1477 74.1293C20.7784 75.152 21.0938 76.3111 21.0938 77.6065C21.0938 78.6719 20.8892 79.5838 20.4801 80.3423C20.071 81.0923 19.5213 81.7017 18.831 82.1705C18.1406 82.6392 17.3693 82.9759 16.517 83.1804V83.4361C17.446 83.4872 18.3366 83.7727 19.1889 84.2926C20.0497 84.804 20.7528 85.5284 21.2983 86.4659C21.8438 87.4034 22.1165 88.5369 22.1165 89.8665C22.1165 91.2216 21.7884 92.4403 21.1321 93.5227C20.4759 94.5966 19.4872 95.4446 18.1662 96.0668C16.8452 96.6889 15.1832 97 13.1804 97H2.58239ZM7.32528 93.0369H12.4261C14.1477 93.0369 15.3878 92.7088 16.1463 92.0526C16.9134 91.3878 17.2969 90.5355 17.2969 89.4957C17.2969 88.7202 17.1051 88.0213 16.7216 87.3991C16.3381 86.7685 15.7926 86.2741 15.0852 85.9162C14.3778 85.5497 13.5341 85.3665 12.554 85.3665H7.32528V93.0369ZM7.32528 81.9531H12.017C12.8352 81.9531 13.5724 81.804 14.2287 81.5057C14.8849 81.1989 15.4006 80.7685 15.7756 80.2145C16.1591 79.652 16.3509 78.9872 16.3509 78.2202C16.3509 77.206 15.9929 76.3707 15.277 75.7145C14.5696 75.0582 13.517 74.7301 12.1193 74.7301H7.32528V81.9531ZM36.1712 97.3835C34.2024 97.3835 32.5021 96.9744 31.0703 96.1562C29.647 95.3295 28.5519 94.1619 27.7848 92.6534C27.0178 91.1364 26.6342 89.3509 26.6342 87.2969C26.6342 85.277 27.0178 83.5043 27.7848 81.9787C28.5604 80.4446 29.6428 79.2514 31.032 78.3991C32.4212 77.5384 34.0533 77.108 35.9283 77.108C37.1385 77.108 38.2806 77.304 39.3544 77.696C40.4368 78.0795 41.3914 78.6761 42.2181 79.4858C43.0533 80.2955 43.7095 81.3267 44.1868 82.5795C44.6641 83.8239 44.9027 85.3068 44.9027 87.0284V88.4474H28.8075V85.3281H40.4666C40.4581 84.4418 40.2664 83.6534 39.8914 82.9631C39.5164 82.2642 38.9922 81.7145 38.3189 81.3139C37.6541 80.9134 36.8786 80.7131 35.9922 80.7131C35.0462 80.7131 34.2152 80.9432 33.4993 81.4034C32.7834 81.8551 32.2252 82.4517 31.8246 83.1932C31.4325 83.9261 31.2323 84.7315 31.2237 85.6094V88.3324C31.2237 89.4744 31.4325 90.4545 31.8502 91.2727C32.2678 92.0824 32.8516 92.7045 33.6016 93.1392C34.3516 93.5653 35.2294 93.7784 36.2351 93.7784C36.9084 93.7784 37.5178 93.6847 38.0632 93.4972C38.6087 93.3011 39.0817 93.0156 39.4823 92.6406C39.8828 92.2656 40.1854 91.8011 40.3899 91.2472L44.711 91.733C44.4382 92.875 43.9183 93.8722 43.1513 94.7244C42.3928 95.5682 41.4212 96.2244 40.2365 96.6932C39.0519 97.1534 37.6967 97.3835 36.1712 97.3835ZM65.7777 82.554L61.559 83.0142C61.4397 82.5881 61.2309 82.1875 60.9326 81.8125C60.6428 81.4375 60.2507 81.1349 59.7564 80.9048C59.2621 80.6747 58.657 80.5597 57.9411 80.5597C56.978 80.5597 56.1684 80.7685 55.5121 81.1861C54.8644 81.6037 54.5448 82.1449 54.5533 82.8097C54.5448 83.3807 54.7536 83.8452 55.1797 84.2031C55.6144 84.5611 56.3303 84.8551 57.3274 85.0852L60.6769 85.8011C62.5348 86.2017 63.9155 86.8366 64.8189 87.706C65.7309 88.5753 66.1911 89.7131 66.1996 91.1193C66.1911 92.3551 65.8289 93.446 65.113 94.392C64.4056 95.3295 63.4212 96.0625 62.1598 96.5909C60.8985 97.1193 59.4496 97.3835 57.8132 97.3835C55.4098 97.3835 53.4752 96.8807 52.0093 95.875C50.5434 94.8608 49.6698 93.4503 49.3885 91.6435L53.9013 91.2088C54.1059 92.0952 54.5405 92.7642 55.2053 93.2159C55.8701 93.6676 56.7351 93.8935 57.8005 93.8935C58.8999 93.8935 59.782 93.6676 60.4468 93.2159C61.1201 92.7642 61.4567 92.206 61.4567 91.5412C61.4567 90.9787 61.2394 90.5142 60.8047 90.1477C60.3786 89.7812 59.7138 89.5 58.8104 89.304L55.461 88.6009C53.5774 88.2088 52.184 87.5483 51.2806 86.6193C50.3772 85.6818 49.9297 84.4972 49.9382 83.0653C49.9297 81.8551 50.2578 80.8068 50.9226 79.9205C51.5959 79.0256 52.5291 78.3352 53.7223 77.8494C54.924 77.3551 56.309 77.108 57.8772 77.108C60.1783 77.108 61.9894 77.598 63.3104 78.5781C64.6399 79.5582 65.4624 80.8835 65.7777 82.554ZM81.2611 77.3636V80.9432H69.9727V77.3636H81.2611ZM72.7596 72.6591H77.3875V91.0938C77.3875 91.7159 77.4812 92.1932 77.6687 92.5256C77.8647 92.8494 78.1204 93.071 78.4358 93.1903C78.7511 93.3097 79.1005 93.3693 79.4841 93.3693C79.7738 93.3693 80.038 93.348 80.2767 93.3054C80.5238 93.2628 80.7113 93.2244 80.8392 93.1903L81.619 96.8082C81.3718 96.8935 81.0182 96.9872 80.5579 97.0895C80.1062 97.1918 79.5522 97.2514 78.896 97.2685C77.7369 97.3026 76.6929 97.1278 75.7639 96.7443C74.8349 96.3523 74.0977 95.7472 73.5522 94.929C73.0153 94.1108 72.7511 93.0881 72.7596 91.8608V72.6591ZM111.374 78.0156C111.255 76.8991 110.752 76.0298 109.866 75.4077C108.988 74.7855 107.846 74.4744 106.44 74.4744C105.451 74.4744 104.603 74.6236 103.896 74.9219C103.188 75.2202 102.647 75.625 102.272 76.1364C101.897 76.6477 101.705 77.2315 101.697 77.8878C101.697 78.4332 101.82 78.9062 102.068 79.3068C102.323 79.7074 102.668 80.0483 103.103 80.3295C103.538 80.6023 104.019 80.8324 104.548 81.0199C105.076 81.2074 105.609 81.3651 106.146 81.4929L108.6 82.1065C109.589 82.3366 110.539 82.6477 111.451 83.0398C112.372 83.4318 113.194 83.9261 113.918 84.5227C114.651 85.1193 115.231 85.8395 115.657 86.6832C116.083 87.527 116.296 88.5156 116.296 89.6491C116.296 91.1832 115.904 92.5341 115.12 93.7017C114.336 94.8608 113.202 95.7685 111.72 96.4247C110.245 97.0724 108.46 97.3963 106.363 97.3963C104.326 97.3963 102.558 97.081 101.058 96.4503C99.5661 95.8196 98.3985 94.8991 97.5548 93.6889C96.7195 92.4787 96.2678 91.0043 96.1996 89.2656H100.866C100.934 90.1776 101.215 90.9361 101.71 91.5412C102.204 92.1463 102.847 92.598 103.64 92.8963C104.441 93.1946 105.336 93.3438 106.325 93.3438C107.356 93.3438 108.259 93.1903 109.035 92.8835C109.819 92.5682 110.433 92.1335 110.876 91.5795C111.319 91.017 111.545 90.3608 111.553 89.6108C111.545 88.929 111.345 88.3665 110.952 87.9233C110.56 87.4716 110.011 87.0966 109.303 86.7983C108.604 86.4915 107.786 86.2187 106.849 85.9801L103.87 85.2131C101.714 84.6591 100.009 83.8196 98.7565 82.6946C97.5121 81.5611 96.89 80.0568 96.89 78.1818C96.89 76.6392 97.3076 75.2884 98.1428 74.1293C98.9866 72.9702 100.133 72.071 101.582 71.4318C103.031 70.7841 104.671 70.4602 106.504 70.4602C108.362 70.4602 109.989 70.7841 111.387 71.4318C112.793 72.071 113.897 72.9616 114.698 74.1037C115.499 75.2372 115.913 76.5412 115.938 78.0156H111.374ZM130.453 97.3835C128.484 97.3835 126.784 96.9744 125.352 96.1562C123.929 95.3295 122.834 94.1619 122.067 92.6534C121.3 91.1364 120.916 89.3509 120.916 87.2969C120.916 85.277 121.3 83.5043 122.067 81.9787C122.842 80.4446 123.925 79.2514 125.314 78.3991C126.703 77.5384 128.335 77.108 130.21 77.108C131.421 77.108 132.563 77.304 133.636 77.696C134.719 78.0795 135.673 78.6761 136.5 79.4858C137.335 80.2955 137.992 81.3267 138.469 82.5795C138.946 83.8239 139.185 85.3068 139.185 87.0284V88.4474H123.09V85.3281H134.749C134.74 84.4418 134.548 83.6534 134.173 82.9631C133.798 82.2642 133.274 81.7145 132.601 81.3139C131.936 80.9134 131.161 80.7131 130.274 80.7131C129.328 80.7131 128.497 80.9432 127.781 81.4034C127.065 81.8551 126.507 82.4517 126.107 83.1932C125.715 83.9261 125.514 84.7315 125.506 85.6094V88.3324C125.506 89.4744 125.715 90.4545 126.132 91.2727C126.55 92.0824 127.134 92.7045 127.884 93.1392C128.634 93.5653 129.511 93.7784 130.517 93.7784C131.19 93.7784 131.8 93.6847 132.345 93.4972C132.891 93.3011 133.364 93.0156 133.764 92.6406C134.165 92.2656 134.467 91.8011 134.672 91.2472L138.993 91.733C138.72 92.875 138.2 93.8722 137.433 94.7244C136.675 95.5682 135.703 96.2244 134.519 96.6932C133.334 97.1534 131.979 97.3835 130.453 97.3835ZM149.168 70.8182V97H144.54V70.8182H149.168ZM159.994 70.8182V97H155.367V70.8182H159.994ZM166.193 97V77.3636H170.821V97H166.193ZM168.52 74.5767C167.787 74.5767 167.156 74.3338 166.628 73.848C166.1 73.3537 165.835 72.7614 165.835 72.071C165.835 71.3722 166.1 70.7798 166.628 70.294C167.156 69.7997 167.787 69.5526 168.52 69.5526C169.261 69.5526 169.892 69.7997 170.412 70.294C170.94 70.7798 171.205 71.3722 171.205 72.071C171.205 72.7614 170.94 73.3537 170.412 73.848C169.892 74.3338 169.261 74.5767 168.52 74.5767ZM181.648 85.4943V97H177.02V77.3636H181.443V80.7003H181.673C182.125 79.6009 182.845 78.7273 183.834 78.0795C184.831 77.4318 186.063 77.108 187.529 77.108C188.884 77.108 190.064 77.3977 191.07 77.9773C192.084 78.5568 192.868 79.3963 193.422 80.4957C193.985 81.5952 194.261 82.929 194.253 84.4972V97H189.625V85.2131C189.625 83.9006 189.284 82.8736 188.602 82.1321C187.929 81.3906 186.996 81.0199 185.803 81.0199C184.993 81.0199 184.273 81.1989 183.642 81.5568C183.02 81.9062 182.53 82.4134 182.172 83.0781C181.823 83.7429 181.648 84.5483 181.648 85.4943ZM208.937 104.773C207.275 104.773 205.848 104.547 204.655 104.095C203.461 103.652 202.503 103.055 201.778 102.305C201.054 101.555 200.551 100.724 200.27 99.8125L204.437 98.8026C204.625 99.1861 204.898 99.5653 205.255 99.9403C205.613 100.324 206.095 100.639 206.7 100.886C207.314 101.142 208.085 101.27 209.014 101.27C210.327 101.27 211.413 100.95 212.274 100.311C213.135 99.6804 213.565 98.6406 213.565 97.1918V93.4716H213.335C213.096 93.9489 212.747 94.4389 212.287 94.9418C211.835 95.4446 211.234 95.8665 210.484 96.2074C209.743 96.5483 208.809 96.7188 207.684 96.7188C206.176 96.7188 204.808 96.3651 203.581 95.6577C202.362 94.9418 201.39 93.8764 200.666 92.4616C199.95 91.0384 199.592 89.2571 199.592 87.1179C199.592 84.9616 199.95 83.142 200.666 81.6591C201.39 80.1676 202.366 79.0384 203.594 78.2713C204.821 77.4957 206.189 77.108 207.697 77.108C208.848 77.108 209.794 77.304 210.535 77.696C211.285 78.0795 211.882 78.544 212.325 79.0895C212.768 79.6264 213.105 80.1335 213.335 80.6108H213.591V77.3636H218.155V97.3196C218.155 98.9986 217.754 100.388 216.953 101.487C216.152 102.587 215.057 103.409 213.667 103.955C212.278 104.5 210.702 104.773 208.937 104.773ZM208.976 93.0881C209.956 93.0881 210.791 92.8494 211.481 92.3722C212.172 91.8949 212.696 91.2088 213.054 90.3139C213.412 89.419 213.591 88.3452 213.591 87.0923C213.591 85.8565 213.412 84.7741 213.054 83.8452C212.704 82.9162 212.184 82.196 211.494 81.6847C210.812 81.1648 209.973 80.9048 208.976 80.9048C207.944 80.9048 207.084 81.1733 206.393 81.7102C205.703 82.2472 205.183 82.9844 204.834 83.9219C204.484 84.8509 204.309 85.9077 204.309 87.0923C204.309 88.294 204.484 89.3466 204.834 90.25C205.192 91.1449 205.716 91.8437 206.406 92.3466C207.105 92.8409 207.961 93.0881 208.976 93.0881ZM234.912 97V70.8182H244.73C246.741 70.8182 248.429 71.1932 249.792 71.9432C251.165 72.6932 252.2 73.7244 252.899 75.0369C253.606 76.3409 253.96 77.8239 253.96 79.4858C253.96 81.1648 253.606 82.6562 252.899 83.9602C252.192 85.2642 251.148 86.2912 249.767 87.0412C248.386 87.7827 246.686 88.1534 244.666 88.1534H238.159V84.2543H244.027C245.203 84.2543 246.166 84.0497 246.916 83.6406C247.666 83.2315 248.22 82.669 248.578 81.9531C248.944 81.2372 249.128 80.4148 249.128 79.4858C249.128 78.5568 248.944 77.7386 248.578 77.0312C248.22 76.3239 247.662 75.7741 246.903 75.3821C246.153 74.9815 245.186 74.7812 244.001 74.7812H239.655V97H234.912ZM259.315 97V77.3636H263.802V80.6364H264.007C264.365 79.5028 264.979 78.6293 265.848 78.0156C266.726 77.3935 267.727 77.0824 268.852 77.0824C269.108 77.0824 269.393 77.0952 269.709 77.1207C270.033 77.1378 270.301 77.1676 270.514 77.2102V81.4673C270.318 81.3991 270.007 81.3395 269.581 81.2884C269.163 81.2287 268.758 81.1989 268.366 81.1989C267.523 81.1989 266.764 81.3821 266.091 81.7486C265.426 82.1065 264.902 82.6051 264.518 83.2443C264.135 83.8835 263.943 84.6207 263.943 85.456V97H259.315ZM282.785 97.3835C280.868 97.3835 279.206 96.9616 277.8 96.1179C276.393 95.2741 275.302 94.0937 274.527 92.5767C273.76 91.0597 273.376 89.2869 273.376 87.2585C273.376 85.2301 273.76 83.4531 274.527 81.9276C275.302 80.402 276.393 79.2173 277.8 78.3736C279.206 77.5298 280.868 77.108 282.785 77.108C284.703 77.108 286.365 77.5298 287.771 78.3736C289.177 79.2173 290.264 80.402 291.031 81.9276C291.807 83.4531 292.194 85.2301 292.194 87.2585C292.194 89.2869 291.807 91.0597 291.031 92.5767C290.264 94.0937 289.177 95.2741 287.771 96.1179C286.365 96.9616 284.703 97.3835 282.785 97.3835ZM282.811 93.6761C283.851 93.6761 284.72 93.3906 285.419 92.8196C286.118 92.2401 286.638 91.4645 286.979 90.4929C287.328 89.5213 287.503 88.4389 287.503 87.2457C287.503 86.044 287.328 84.9574 286.979 83.9858C286.638 83.0057 286.118 82.2259 285.419 81.6463C284.72 81.0668 283.851 80.777 282.811 80.777C281.746 80.777 280.859 81.0668 280.152 81.6463C279.453 82.2259 278.929 83.0057 278.579 83.9858C278.239 84.9574 278.068 86.044 278.068 87.2457C278.068 88.4389 278.239 89.5213 278.579 90.4929C278.929 91.4645 279.453 92.2401 280.152 92.8196C280.859 93.3906 281.746 93.6761 282.811 93.6761ZM304.849 97.3452C303.307 97.3452 301.926 96.9489 300.707 96.1562C299.489 95.3636 298.525 94.2131 297.818 92.7045C297.111 91.196 296.757 89.3636 296.757 87.2074C296.757 85.0256 297.115 83.1847 297.831 81.6847C298.555 80.1761 299.531 79.0384 300.758 78.2713C301.986 77.4957 303.354 77.108 304.862 77.108C306.013 77.108 306.959 77.304 307.7 77.696C308.442 78.0795 309.03 78.544 309.464 79.0895C309.899 79.6264 310.236 80.1335 310.474 80.6108H310.666V70.8182H315.307V97H310.756V93.9062H310.474C310.236 94.3835 309.891 94.8906 309.439 95.4276C308.987 95.956 308.391 96.4077 307.649 96.7827C306.908 97.1577 305.974 97.3452 304.849 97.3452ZM306.141 93.5483C307.121 93.5483 307.956 93.2841 308.646 92.7557C309.337 92.2187 309.861 91.473 310.219 90.5185C310.577 89.5639 310.756 88.4517 310.756 87.1818C310.756 85.9119 310.577 84.8082 310.219 83.8707C309.869 82.9332 309.349 82.2045 308.659 81.6847C307.977 81.1648 307.138 80.9048 306.141 80.9048C305.109 80.9048 304.248 81.1733 303.558 81.7102C302.868 82.2472 302.348 82.9886 301.998 83.9347C301.649 84.8807 301.474 85.9631 301.474 87.1818C301.474 88.4091 301.649 89.5043 301.998 90.4673C302.356 91.4219 302.881 92.1761 303.571 92.7301C304.27 93.2756 305.126 93.5483 306.141 93.5483ZM334.194 88.7415V77.3636H338.822V97H334.334V93.5099H334.13C333.687 94.6094 332.958 95.5085 331.944 96.2074C330.938 96.9062 329.698 97.2557 328.224 97.2557C326.937 97.2557 325.799 96.9702 324.81 96.3991C323.83 95.8196 323.063 94.9801 322.509 93.8807C321.955 92.7727 321.678 91.4347 321.678 89.8665V77.3636H326.306V89.1506C326.306 90.3949 326.647 91.3835 327.329 92.1165C328.011 92.8494 328.905 93.2159 330.013 93.2159C330.695 93.2159 331.356 93.0497 331.995 92.7173C332.634 92.3849 333.158 91.8906 333.567 91.2344C333.985 90.5696 334.194 89.7386 334.194 88.7415ZM353.586 97.3835C351.626 97.3835 349.942 96.9531 348.536 96.0923C347.138 95.2315 346.06 94.0426 345.302 92.5256C344.552 91 344.177 89.2443 344.177 87.2585C344.177 85.2642 344.56 83.5043 345.327 81.9787C346.094 80.4446 347.177 79.2514 348.574 78.3991C349.981 77.5384 351.643 77.108 353.56 77.108C355.154 77.108 356.565 77.402 357.792 77.9901C359.028 78.5696 360.012 79.392 360.745 80.4574C361.478 81.5142 361.896 82.75 361.998 84.1648H357.574C357.396 83.2187 356.969 82.4304 356.296 81.7997C355.631 81.1605 354.741 80.8409 353.624 80.8409C352.678 80.8409 351.847 81.0966 351.131 81.608C350.415 82.1108 349.857 82.8352 349.457 83.7812C349.065 84.7273 348.869 85.8608 348.869 87.1818C348.869 88.5199 349.065 89.6705 349.457 90.6335C349.849 91.5881 350.398 92.3253 351.106 92.8452C351.822 93.3565 352.661 93.6122 353.624 93.6122C354.306 93.6122 354.915 93.4844 355.452 93.2287C355.998 92.9645 356.454 92.5852 356.82 92.0909C357.187 91.5966 357.438 90.9957 357.574 90.2884H361.998C361.887 91.6776 361.478 92.9091 360.771 93.983C360.063 95.0483 359.1 95.8835 357.881 96.4886C356.663 97.0852 355.231 97.3835 353.586 97.3835ZM377.043 77.3636V80.9432H365.755V77.3636H377.043ZM368.542 72.6591H373.17V91.0938C373.17 91.7159 373.263 92.1932 373.451 92.5256C373.647 92.8494 373.903 93.071 374.218 93.1903C374.533 93.3097 374.883 93.3693 375.266 93.3693C375.556 93.3693 375.82 93.348 376.059 93.3054C376.306 93.2628 376.494 93.2244 376.621 93.1903L377.401 96.8082C377.154 96.8935 376.8 96.9872 376.34 97.0895C375.888 97.1918 375.334 97.2514 374.678 97.2685C373.519 97.3026 372.475 97.1278 371.546 96.7443C370.617 96.3523 369.88 95.7472 369.334 94.929C368.798 94.1108 368.533 93.0881 368.542 91.8608V72.6591ZM397.592 82.554L393.373 83.0142C393.254 82.5881 393.045 82.1875 392.747 81.8125C392.457 81.4375 392.065 81.1349 391.571 80.9048C391.077 80.6747 390.472 80.5597 389.756 80.5597C388.793 80.5597 387.983 80.7685 387.327 81.1861C386.679 81.6037 386.359 82.1449 386.368 82.8097C386.359 83.3807 386.568 83.8452 386.994 84.2031C387.429 84.5611 388.145 84.8551 389.142 85.0852L392.491 85.8011C394.349 86.2017 395.73 86.8366 396.633 87.706C397.545 88.5753 398.006 89.7131 398.014 91.1193C398.006 92.3551 397.643 93.446 396.927 94.392C396.22 95.3295 395.236 96.0625 393.974 96.5909C392.713 97.1193 391.264 97.3835 389.628 97.3835C387.224 97.3835 385.29 96.8807 383.824 95.875C382.358 94.8608 381.484 93.4503 381.203 91.6435L385.716 91.2088C385.92 92.0952 386.355 92.7642 387.02 93.2159C387.685 93.6676 388.55 93.8935 389.615 93.8935C390.714 93.8935 391.597 93.6676 392.261 93.2159C392.935 92.7642 393.271 92.206 393.271 91.5412C393.271 90.9787 393.054 90.5142 392.619 90.1477C392.193 89.7812 391.528 89.5 390.625 89.304L387.275 88.6009C385.392 88.2088 383.998 87.5483 383.095 86.6193C382.192 85.6818 381.744 84.4972 381.753 83.0653C381.744 81.8551 382.072 80.8068 382.737 79.9205C383.41 79.0256 384.344 78.3352 385.537 77.8494C386.739 77.3551 388.123 77.108 389.692 77.108C391.993 77.108 393.804 77.598 395.125 78.5781C396.454 79.5582 397.277 80.8835 397.592 82.554Z" fill="black"/>
</svg>
