<svg width="250" height="161" viewBox="0 0 250 161" fill="none" xmlns="http://www.w3.org/2000/svg">
<path opacity="0.3" d="M165 40C165 62.0914 147.091 80 125 80C102.909 80 85 62.0914 85 40C85 17.9086 102.909 0 125 0C147.091 0 165 17.9086 165 40ZM95.9071 40C95.9071 56.0675 108.932 69.0929 125 69.0929C141.068 69.0929 154.093 56.0675 154.093 40C154.093 23.9325 141.068 10.9071 125 10.9071C108.932 10.9071 95.9071 23.9325 95.9071 40Z" fill="#2F2E30"/>
<circle cx="125" cy="40" r="29" fill="black"/>
<g clip-path="url(#clip0_542_2332)">
<path d="M116.667 51.6667C118.508 51.6667 120 50.1743 120 48.3333C120 46.4924 118.508 45 116.667 45C114.826 45 113.333 46.4924 113.333 48.3333C113.333 50.1743 114.826 51.6667 116.667 51.6667Z" stroke="#FAFAFA" stroke-width="2" stroke-linecap="round" stroke-linejoin="round"/>
<path d="M133.333 51.6667C135.174 51.6667 136.667 50.1743 136.667 48.3333C136.667 46.4924 135.174 45 133.333 45C131.492 45 130 46.4924 130 48.3333C130 50.1743 131.492 51.6667 133.333 51.6667Z" stroke="#FAFAFA" stroke-width="2" stroke-linecap="round" stroke-linejoin="round"/>
<path d="M113.333 48.3335H112C110.896 48.3335 110 47.4381 110 46.3335V41.6668M108.333 28.3335H124.667C125.771 28.3335 126.667 29.2289 126.667 30.3335V48.3335M120 48.3335H130M136.667 48.3335H138C139.105 48.3335 140 47.4381 140 46.3335V38.3335M140 38.3335H126.667M140 38.3335L135.583 30.9712C135.221 30.3688 134.57 30.0002 133.868 30.0002H126.667" stroke="#FAFAFA" stroke-width="2" stroke-linecap="round" stroke-linejoin="round"/>
<path d="M113 48H111.667C110.562 48 109.667 47.1046 109.667 46V41.3333M108 28H124.333C125.438 28 126.333 28.8954 126.333 30V48M120 48H129.667M137 48H137.667C138.771 48 139.667 47.1046 139.667 46V38M139.667 38H126.333M139.667 38L135.249 30.6377C134.888 30.0353 134.237 29.6667 133.534 29.6667H126.333" stroke="#FAFAFA" stroke-width="2" stroke-linecap="round" stroke-linejoin="round"/>
<path d="M110 31.8182H116.667" stroke="#FAFAFA" stroke-width="2" stroke-linecap="round" stroke-linejoin="round"/>
<path d="M106.818 35.4546H113.485" stroke="#FAFAFA" stroke-width="2" stroke-linecap="round" stroke-linejoin="round"/>
<path d="M110 39.0909H116.667" stroke="#FAFAFA" stroke-width="2" stroke-linecap="round" stroke-linejoin="round"/>
</g>
<path d="M14 111.04V113.3H8.18V116.88H12.64V119.1H8.18V125H5.38V111.04H14ZM23.1855 125L20.1055 119.56H18.7855V125H15.9855V111.04H21.2255C22.3055 111.04 23.2255 111.233 23.9855 111.62C24.7455 111.993 25.3121 112.507 25.6855 113.16C26.0721 113.8 26.2655 114.52 26.2655 115.32C26.2655 116.24 25.9988 117.073 25.4655 117.82C24.9321 118.553 24.1388 119.06 23.0855 119.34L26.4255 125H23.1855ZM18.7855 117.46H21.1255C21.8855 117.46 22.4521 117.28 22.8255 116.92C23.1988 116.547 23.3855 116.033 23.3855 115.38C23.3855 114.74 23.1988 114.247 22.8255 113.9C22.4521 113.54 21.8855 113.36 21.1255 113.36H18.7855V117.46ZM31.598 113.3V116.8H36.298V119.02H31.598V122.72H36.898V125H28.798V111.02H36.898V113.3H31.598ZM42.2425 113.3V116.8H46.9425V119.02H42.2425V122.72H47.5425V125H39.4425V111.02H47.5425V113.3H42.2425ZM63.4127 122.34H57.8527L56.9327 125H53.9927L59.0127 111.02H62.2727L67.2927 125H64.3327L63.4127 122.34ZM62.6527 120.1L60.6327 114.26L58.6127 120.1H62.6527ZM81.1091 125H78.3091L71.9691 115.42V125H69.1691V111.02H71.9691L78.3091 120.62V111.02H81.1091V125ZM88.7561 111.04C90.2228 111.04 91.5094 111.327 92.6161 111.9C93.7361 112.473 94.5961 113.293 95.1961 114.36C95.8094 115.413 96.1161 116.64 96.1161 118.04C96.1161 119.44 95.8094 120.667 95.1961 121.72C94.5961 122.76 93.7361 123.567 92.6161 124.14C91.5094 124.713 90.2228 125 88.7561 125H83.8761V111.04H88.7561ZM88.6561 122.62C90.1228 122.62 91.2561 122.22 92.0561 121.42C92.8561 120.62 93.2561 119.493 93.2561 118.04C93.2561 116.587 92.8561 115.453 92.0561 114.64C91.2561 113.813 90.1228 113.4 88.6561 113.4H86.6761V122.62H88.6561ZM111.598 111.04V113.3H105.778V116.88H110.238V119.1H105.778V125H102.978V111.04H111.598ZM122.143 122.34H116.583L115.663 125H112.723L117.743 111.02H121.003L126.023 125H123.063L122.143 122.34ZM121.383 120.1L119.363 114.26L117.343 120.1H121.383ZM132.72 125.14C131.746 125.14 130.866 124.973 130.08 124.64C129.306 124.307 128.693 123.827 128.24 123.2C127.786 122.573 127.553 121.833 127.54 120.98H130.54C130.58 121.553 130.78 122.007 131.14 122.34C131.513 122.673 132.02 122.84 132.66 122.84C133.313 122.84 133.826 122.687 134.2 122.38C134.573 122.06 134.76 121.647 134.76 121.14C134.76 120.727 134.633 120.387 134.38 120.12C134.126 119.853 133.806 119.647 133.42 119.5C133.046 119.34 132.526 119.167 131.86 118.98C130.953 118.713 130.213 118.453 129.64 118.2C129.08 117.933 128.593 117.54 128.18 117.02C127.78 116.487 127.58 115.78 127.58 114.9C127.58 114.073 127.786 113.353 128.2 112.74C128.613 112.127 129.193 111.66 129.94 111.34C130.686 111.007 131.54 110.84 132.5 110.84C133.94 110.84 135.106 111.193 136 111.9C136.906 112.593 137.406 113.567 137.5 114.82H134.42C134.393 114.34 134.186 113.947 133.8 113.64C133.426 113.32 132.926 113.16 132.3 113.16C131.753 113.16 131.313 113.3 130.98 113.58C130.66 113.86 130.5 114.267 130.5 114.8C130.5 115.173 130.62 115.487 130.86 115.74C131.113 115.98 131.42 116.18 131.78 116.34C132.153 116.487 132.673 116.66 133.34 116.86C134.246 117.127 134.986 117.393 135.56 117.66C136.133 117.927 136.626 118.327 137.04 118.86C137.453 119.393 137.66 120.093 137.66 120.96C137.66 121.707 137.466 122.4 137.08 123.04C136.693 123.68 136.126 124.193 135.38 124.58C134.633 124.953 133.746 125.14 132.72 125.14ZM149.587 111.04V113.3H145.867V125H143.067V113.3H139.347V111.04H149.587ZM161.276 111.04C162.742 111.04 164.029 111.327 165.136 111.9C166.256 112.473 167.116 113.293 167.716 114.36C168.329 115.413 168.636 116.64 168.636 118.04C168.636 119.44 168.329 120.667 167.716 121.72C167.116 122.76 166.256 123.567 165.136 124.14C164.029 124.713 162.742 125 161.276 125H156.396V111.04H161.276ZM161.176 122.62C162.642 122.62 163.776 122.22 164.576 121.42C165.376 120.62 165.776 119.493 165.776 118.04C165.776 116.587 165.376 115.453 164.576 114.64C163.776 113.813 162.642 113.4 161.176 113.4H159.196V122.62H161.176ZM173.532 113.3V116.8H178.232V119.02H173.532V122.72H178.832V125H170.732V111.02H178.832V113.3H173.532ZM184.176 122.78H188.776V125H181.376V111.04H184.176V122.78ZM193.356 111.04V125H190.556V111.04H193.356ZM208.662 111.04L203.542 125H200.142L195.022 111.04H198.022L201.862 122.14L205.682 111.04H208.662ZM213.141 113.3V116.8H217.841V119.02H213.141V122.72H218.441V125H210.341V111.02H218.441V113.3H213.141ZM228.185 125L225.105 119.56H223.785V125H220.985V111.04H226.225C227.305 111.04 228.225 111.233 228.985 111.62C229.745 111.993 230.312 112.507 230.685 113.16C231.072 113.8 231.265 114.52 231.265 115.32C231.265 116.24 230.999 117.073 230.465 117.82C229.932 118.553 229.139 119.06 228.085 119.34L231.425 125H228.185ZM223.785 117.46H226.125C226.885 117.46 227.452 117.28 227.825 116.92C228.199 116.547 228.385 116.033 228.385 115.38C228.385 114.74 228.199 114.247 227.825 113.9C227.452 113.54 226.885 113.36 226.125 113.36H223.785V117.46ZM244.898 111.04L240.178 120.14V125H237.378V120.14L232.638 111.04H235.798L238.798 117.42L241.778 111.04H244.898Z" fill="black"/>
<path d="M7.49439 145.242V146.278H3.25239V149.568H6.69639V150.604H3.25239V155H1.97839V145.242H7.49439ZM10.3071 148.574C10.5311 148.135 10.8484 147.795 11.2591 147.552C11.6791 147.309 12.1877 147.188 12.7851 147.188V148.504H12.4491C11.0211 148.504 10.3071 149.279 10.3071 150.828V155H9.03308V147.328H10.3071V148.574ZM21.2557 150.87C21.2557 151.113 21.2417 151.369 21.2137 151.64H15.0817C15.1284 152.396 15.3851 152.989 15.8517 153.418C16.3277 153.838 16.9017 154.048 17.5737 154.048C18.1244 154.048 18.5817 153.922 18.9457 153.67C19.3191 153.409 19.5804 153.063 19.7297 152.634H21.1017C20.8964 153.371 20.4857 153.973 19.8697 154.44C19.2537 154.897 18.4884 155.126 17.5737 155.126C16.8457 155.126 16.1924 154.963 15.6137 154.636C15.0444 154.309 14.5964 153.847 14.2697 153.25C13.9431 152.643 13.7797 151.943 13.7797 151.15C13.7797 150.357 13.9384 149.661 14.2557 149.064C14.5731 148.467 15.0164 148.009 15.5857 147.692C16.1644 147.365 16.8271 147.202 17.5737 147.202C18.3017 147.202 18.9457 147.361 19.5057 147.678C20.0657 147.995 20.4951 148.434 20.7937 148.994C21.1017 149.545 21.2557 150.17 21.2557 150.87ZM19.9397 150.604C19.9397 150.119 19.8324 149.703 19.6177 149.358C19.4031 149.003 19.1091 148.737 18.7357 148.56C18.3717 148.373 17.9657 148.28 17.5177 148.28C16.8737 148.28 16.3231 148.485 15.8657 148.896C15.4177 149.307 15.1611 149.876 15.0957 150.604H19.9397ZM29.9374 150.87C29.9374 151.113 29.9234 151.369 29.8954 151.64H23.7634C23.81 152.396 24.0667 152.989 24.5334 153.418C25.0094 153.838 25.5834 154.048 26.2554 154.048C26.806 154.048 27.2634 153.922 27.6274 153.67C28.0007 153.409 28.262 153.063 28.4114 152.634H29.7834C29.578 153.371 29.1674 153.973 28.5514 154.44C27.9354 154.897 27.17 155.126 26.2554 155.126C25.5274 155.126 24.874 154.963 24.2954 154.636C23.726 154.309 23.278 153.847 22.9514 153.25C22.6247 152.643 22.4614 151.943 22.4614 151.15C22.4614 150.357 22.62 149.661 22.9374 149.064C23.2547 148.467 23.698 148.009 24.2674 147.692C24.846 147.365 25.5087 147.202 26.2554 147.202C26.9834 147.202 27.6274 147.361 28.1874 147.678C28.7474 147.995 29.1767 148.434 29.4754 148.994C29.7834 149.545 29.9374 150.17 29.9374 150.87ZM28.6214 150.604C28.6214 150.119 28.514 149.703 28.2994 149.358C28.0847 149.003 27.7907 148.737 27.4174 148.56C27.0534 148.373 26.6474 148.28 26.1994 148.28C25.5554 148.28 25.0047 148.485 24.5474 148.896C24.0994 149.307 23.8427 149.876 23.7774 150.604H28.6214ZM34.8754 151.136C34.8754 150.352 35.0341 149.666 35.3514 149.078C35.6688 148.481 36.1028 148.019 36.6534 147.692C37.2134 147.365 37.8388 147.202 38.5294 147.202C39.1268 147.202 39.6821 147.342 40.1954 147.622C40.7088 147.893 41.1008 148.252 41.3714 148.7V144.64H42.6594V155H41.3714V153.558C41.1194 154.015 40.7461 154.393 40.2514 154.692C39.7568 154.981 39.1781 155.126 38.5154 155.126C37.8341 155.126 37.2134 154.958 36.6534 154.622C36.1028 154.286 35.6688 153.815 35.3514 153.208C35.0341 152.601 34.8754 151.911 34.8754 151.136ZM41.3714 151.15C41.3714 150.571 41.2548 150.067 41.0214 149.638C40.7881 149.209 40.4708 148.882 40.0694 148.658C39.6774 148.425 39.2434 148.308 38.7674 148.308C38.2914 148.308 37.8574 148.42 37.4654 148.644C37.0734 148.868 36.7608 149.195 36.5274 149.624C36.2941 150.053 36.1774 150.557 36.1774 151.136C36.1774 151.724 36.2941 152.237 36.5274 152.676C36.7608 153.105 37.0734 153.437 37.4654 153.67C37.8574 153.894 38.2914 154.006 38.7674 154.006C39.2434 154.006 39.6774 153.894 40.0694 153.67C40.4708 153.437 40.7881 153.105 41.0214 152.676C41.2548 152.237 41.3714 151.729 41.3714 151.15ZM51.8124 150.87C51.8124 151.113 51.7984 151.369 51.7704 151.64H45.6384C45.685 152.396 45.9417 152.989 46.4084 153.418C46.8844 153.838 47.4584 154.048 48.1304 154.048C48.681 154.048 49.1384 153.922 49.5024 153.67C49.8757 153.409 50.137 153.063 50.2864 152.634H51.6584C51.453 153.371 51.0424 153.973 50.4264 154.44C49.8104 154.897 49.045 155.126 48.1304 155.126C47.4024 155.126 46.749 154.963 46.1704 154.636C45.601 154.309 45.153 153.847 44.8264 153.25C44.4997 152.643 44.3364 151.943 44.3364 151.15C44.3364 150.357 44.495 149.661 44.8124 149.064C45.1297 148.467 45.573 148.009 46.1424 147.692C46.721 147.365 47.3837 147.202 48.1304 147.202C48.8584 147.202 49.5024 147.361 50.0624 147.678C50.6224 147.995 51.0517 148.434 51.3504 148.994C51.6584 149.545 51.8124 150.17 51.8124 150.87ZM50.4964 150.604C50.4964 150.119 50.389 149.703 50.1744 149.358C49.9597 149.003 49.6657 148.737 49.2924 148.56C48.9284 148.373 48.5224 148.28 48.0744 148.28C47.4304 148.28 46.8797 148.485 46.4224 148.896C45.9744 149.307 45.7177 149.876 45.6524 150.604H50.4964ZM54.768 144.64V155H53.494V144.64H54.768ZM57.5973 146.082C57.3547 146.082 57.1493 145.998 56.9813 145.83C56.8133 145.662 56.7293 145.457 56.7293 145.214C56.7293 144.971 56.8133 144.766 56.9813 144.598C57.1493 144.43 57.3547 144.346 57.5973 144.346C57.8307 144.346 58.0267 144.43 58.1853 144.598C58.3533 144.766 58.4373 144.971 58.4373 145.214C58.4373 145.457 58.3533 145.662 58.1853 145.83C58.0267 145.998 57.8307 146.082 57.5973 146.082ZM58.2133 147.328V155H56.9393V147.328H58.2133ZM63.2406 153.824L65.6206 147.328H66.9786L63.9686 155H62.4846L59.4746 147.328H60.8466L63.2406 153.824ZM75.2323 150.87C75.2323 151.113 75.2183 151.369 75.1903 151.64H69.0583C69.105 152.396 69.3616 152.989 69.8283 153.418C70.3043 153.838 70.8783 154.048 71.5503 154.048C72.101 154.048 72.5583 153.922 72.9223 153.67C73.2956 153.409 73.557 153.063 73.7063 152.634H75.0783C74.873 153.371 74.4623 153.973 73.8463 154.44C73.2303 154.897 72.465 155.126 71.5503 155.126C70.8223 155.126 70.169 154.963 69.5903 154.636C69.021 154.309 68.573 153.847 68.2463 153.25C67.9196 152.643 67.7563 151.943 67.7563 151.15C67.7563 150.357 67.915 149.661 68.2323 149.064C68.5496 148.467 68.993 148.009 69.5623 147.692C70.141 147.365 70.8036 147.202 71.5503 147.202C72.2783 147.202 72.9223 147.361 73.4823 147.678C74.0423 147.995 74.4716 148.434 74.7703 148.994C75.0783 149.545 75.2323 150.17 75.2323 150.87ZM73.9163 150.604C73.9163 150.119 73.809 149.703 73.5943 149.358C73.3796 149.003 73.0856 148.737 72.7123 148.56C72.3483 148.373 71.9423 148.28 71.4943 148.28C70.8503 148.28 70.2996 148.485 69.8423 148.896C69.3943 149.307 69.1376 149.876 69.0723 150.604H73.9163ZM78.1879 148.574C78.4119 148.135 78.7293 147.795 79.1399 147.552C79.5599 147.309 80.0686 147.188 80.6659 147.188V148.504H80.3299C78.9019 148.504 78.1879 149.279 78.1879 150.828V155H76.9139V147.328H78.1879V148.574ZM88.7446 147.328L84.1246 158.612H82.8086L84.3206 154.916L81.2266 147.328H82.6406L85.0486 153.544L87.4286 147.328H88.7446ZM96.8797 148.378H95.2697V155H93.9957V148.378H93.0017V147.328H93.9957V146.782C93.9957 145.923 94.215 145.298 94.6537 144.906C95.1017 144.505 95.8157 144.304 96.7957 144.304V145.368C96.2357 145.368 95.839 145.48 95.6057 145.704C95.3817 145.919 95.2697 146.278 95.2697 146.782V147.328H96.8797V148.378ZM101.711 155.126C100.992 155.126 100.339 154.963 99.7511 154.636C99.1724 154.309 98.7151 153.847 98.3791 153.25C98.0524 152.643 97.8891 151.943 97.8891 151.15C97.8891 150.366 98.0571 149.675 98.3931 149.078C98.7384 148.471 99.2051 148.009 99.7931 147.692C100.381 147.365 101.039 147.202 101.767 147.202C102.495 147.202 103.153 147.365 103.741 147.692C104.329 148.009 104.791 148.467 105.127 149.064C105.472 149.661 105.645 150.357 105.645 151.15C105.645 151.943 105.468 152.643 105.113 153.25C104.768 153.847 104.296 154.309 103.699 154.636C103.102 154.963 102.439 155.126 101.711 155.126ZM101.711 154.006C102.168 154.006 102.598 153.899 102.999 153.684C103.4 153.469 103.722 153.147 103.965 152.718C104.217 152.289 104.343 151.766 104.343 151.15C104.343 150.534 104.222 150.011 103.979 149.582C103.736 149.153 103.419 148.835 103.027 148.63C102.635 148.415 102.21 148.308 101.753 148.308C101.286 148.308 100.857 148.415 100.465 148.63C100.082 148.835 99.7744 149.153 99.5411 149.582C99.3078 150.011 99.1911 150.534 99.1911 151.15C99.1911 151.775 99.3031 152.303 99.5271 152.732C99.7604 153.161 100.068 153.483 100.451 153.698C100.834 153.903 101.254 154.006 101.711 154.006ZM108.594 148.574C108.818 148.135 109.136 147.795 109.546 147.552C109.966 147.309 110.475 147.188 111.072 147.188V148.504H110.736C109.308 148.504 108.594 149.279 108.594 150.828V155H107.32V147.328H108.594V148.574ZM115.799 151.136C115.799 150.352 115.958 149.666 116.275 149.078C116.593 148.481 117.027 148.019 117.577 147.692C118.137 147.365 118.758 147.202 119.439 147.202C120.111 147.202 120.695 147.347 121.189 147.636C121.684 147.925 122.053 148.289 122.295 148.728V147.328H123.583V155H122.295V153.572C122.043 154.02 121.665 154.393 121.161 154.692C120.667 154.981 120.088 155.126 119.425 155.126C118.744 155.126 118.128 154.958 117.577 154.622C117.027 154.286 116.593 153.815 116.275 153.208C115.958 152.601 115.799 151.911 115.799 151.136ZM122.295 151.15C122.295 150.571 122.179 150.067 121.945 149.638C121.712 149.209 121.395 148.882 120.993 148.658C120.601 148.425 120.167 148.308 119.691 148.308C119.215 148.308 118.781 148.42 118.389 148.644C117.997 148.868 117.685 149.195 117.451 149.624C117.218 150.053 117.101 150.557 117.101 151.136C117.101 151.724 117.218 152.237 117.451 152.676C117.685 153.105 117.997 153.437 118.389 153.67C118.781 153.894 119.215 154.006 119.691 154.006C120.167 154.006 120.601 153.894 120.993 153.67C121.395 153.437 121.712 153.105 121.945 152.676C122.179 152.237 122.295 151.729 122.295 151.15ZM127.01 144.64V155H125.736V144.64H127.01ZM130.456 144.64V155H129.182V144.64H130.456ZM139.705 155.126C138.987 155.126 138.333 154.963 137.745 154.636C137.167 154.309 136.709 153.847 136.373 153.25C136.047 152.643 135.883 151.943 135.883 151.15C135.883 150.366 136.051 149.675 136.387 149.078C136.733 148.471 137.199 148.009 137.787 147.692C138.375 147.365 139.033 147.202 139.761 147.202C140.489 147.202 141.147 147.365 141.735 147.692C142.323 148.009 142.785 148.467 143.121 149.064C143.467 149.661 143.639 150.357 143.639 151.15C143.639 151.943 143.462 152.643 143.107 153.25C142.762 153.847 142.291 154.309 141.693 154.636C141.096 154.963 140.433 155.126 139.705 155.126ZM139.705 154.006C140.163 154.006 140.592 153.899 140.993 153.684C141.395 153.469 141.717 153.147 141.959 152.718C142.211 152.289 142.337 151.766 142.337 151.15C142.337 150.534 142.216 150.011 141.973 149.582C141.731 149.153 141.413 148.835 141.021 148.63C140.629 148.415 140.205 148.308 139.747 148.308C139.281 148.308 138.851 148.415 138.459 148.63C138.077 148.835 137.769 149.153 137.535 149.582C137.302 150.011 137.185 150.534 137.185 151.15C137.185 151.775 137.297 152.303 137.521 152.732C137.755 153.161 138.063 153.483 138.445 153.698C138.828 153.903 139.248 154.006 139.705 154.006ZM146.588 148.574C146.812 148.135 147.13 147.795 147.54 147.552C147.96 147.309 148.469 147.188 149.066 147.188V148.504H148.73C147.302 148.504 146.588 149.279 146.588 150.828V155H145.314V147.328H146.588V148.574ZM150.061 151.136C150.061 150.352 150.22 149.666 150.537 149.078C150.854 148.481 151.288 148.019 151.839 147.692C152.399 147.365 153.024 147.202 153.715 147.202C154.312 147.202 154.868 147.342 155.381 147.622C155.894 147.893 156.286 148.252 156.557 148.7V144.64H157.845V155H156.557V153.558C156.305 154.015 155.932 154.393 155.437 154.692C154.942 154.981 154.364 155.126 153.701 155.126C153.02 155.126 152.399 154.958 151.839 154.622C151.288 154.286 150.854 153.815 150.537 153.208C150.22 152.601 150.061 151.911 150.061 151.136ZM156.557 151.15C156.557 150.571 156.44 150.067 156.207 149.638C155.974 149.209 155.656 148.882 155.255 148.658C154.863 148.425 154.429 148.308 153.953 148.308C153.477 148.308 153.043 148.42 152.651 148.644C152.259 148.868 151.946 149.195 151.713 149.624C151.48 150.053 151.363 150.557 151.363 151.136C151.363 151.724 151.48 152.237 151.713 152.676C151.946 153.105 152.259 153.437 152.651 153.67C153.043 153.894 153.477 154.006 153.953 154.006C154.429 154.006 154.863 153.894 155.255 153.67C155.656 153.437 155.974 153.105 156.207 152.676C156.44 152.237 156.557 151.729 156.557 151.15ZM166.998 150.87C166.998 151.113 166.984 151.369 166.956 151.64H160.824C160.871 152.396 161.127 152.989 161.594 153.418C162.07 153.838 162.644 154.048 163.316 154.048C163.867 154.048 164.324 153.922 164.688 153.67C165.061 153.409 165.323 153.063 165.472 152.634H166.844C166.639 153.371 166.228 153.973 165.612 154.44C164.996 154.897 164.231 155.126 163.316 155.126C162.588 155.126 161.935 154.963 161.356 154.636C160.787 154.309 160.339 153.847 160.012 153.25C159.685 152.643 159.522 151.943 159.522 151.15C159.522 150.357 159.681 149.661 159.998 149.064C160.315 148.467 160.759 148.009 161.328 147.692C161.907 147.365 162.569 147.202 163.316 147.202C164.044 147.202 164.688 147.361 165.248 147.678C165.808 147.995 166.237 148.434 166.536 148.994C166.844 149.545 166.998 150.17 166.998 150.87ZM165.682 150.604C165.682 150.119 165.575 149.703 165.36 149.358C165.145 149.003 164.851 148.737 164.478 148.56C164.114 148.373 163.708 148.28 163.26 148.28C162.616 148.28 162.065 148.485 161.608 148.896C161.16 149.307 160.903 149.876 160.838 150.604H165.682ZM169.954 148.574C170.178 148.135 170.495 147.795 170.906 147.552C171.326 147.309 171.834 147.188 172.432 147.188V148.504H172.096C170.668 148.504 169.954 149.279 169.954 150.828V155H168.68V147.328H169.954V148.574ZM176.618 155.126C176.03 155.126 175.503 155.028 175.036 154.832C174.57 154.627 174.201 154.347 173.93 153.992C173.66 153.628 173.51 153.213 173.482 152.746H174.798C174.836 153.129 175.013 153.441 175.33 153.684C175.657 153.927 176.082 154.048 176.604 154.048C177.09 154.048 177.472 153.941 177.752 153.726C178.032 153.511 178.172 153.241 178.172 152.914C178.172 152.578 178.023 152.331 177.724 152.172C177.426 152.004 176.964 151.841 176.338 151.682C175.769 151.533 175.302 151.383 174.938 151.234C174.584 151.075 174.276 150.847 174.014 150.548C173.762 150.24 173.636 149.839 173.636 149.344C173.636 148.952 173.753 148.593 173.986 148.266C174.22 147.939 174.551 147.683 174.98 147.496C175.41 147.3 175.9 147.202 176.45 147.202C177.3 147.202 177.986 147.417 178.508 147.846C179.031 148.275 179.311 148.863 179.348 149.61H178.074C178.046 149.209 177.883 148.887 177.584 148.644C177.295 148.401 176.903 148.28 176.408 148.28C175.951 148.28 175.587 148.378 175.316 148.574C175.046 148.77 174.91 149.027 174.91 149.344C174.91 149.596 174.99 149.806 175.148 149.974C175.316 150.133 175.522 150.263 175.764 150.366C176.016 150.459 176.362 150.567 176.8 150.688C177.351 150.837 177.799 150.987 178.144 151.136C178.49 151.276 178.784 151.491 179.026 151.78C179.278 152.069 179.409 152.447 179.418 152.914C179.418 153.334 179.302 153.712 179.068 154.048C178.835 154.384 178.504 154.65 178.074 154.846C177.654 155.033 177.169 155.126 176.618 155.126ZM188.295 155.126C187.576 155.126 186.923 154.963 186.335 154.636C185.756 154.309 185.299 153.847 184.963 153.25C184.636 152.643 184.473 151.943 184.473 151.15C184.473 150.366 184.641 149.675 184.977 149.078C185.322 148.471 185.789 148.009 186.377 147.692C186.965 147.365 187.623 147.202 188.351 147.202C189.079 147.202 189.737 147.365 190.325 147.692C190.913 148.009 191.375 148.467 191.711 149.064C192.056 149.661 192.229 150.357 192.229 151.15C192.229 151.943 192.052 152.643 191.697 153.25C191.352 153.847 190.88 154.309 190.283 154.636C189.686 154.963 189.023 155.126 188.295 155.126ZM188.295 154.006C188.752 154.006 189.182 153.899 189.583 153.684C189.984 153.469 190.306 153.147 190.549 152.718C190.801 152.289 190.927 151.766 190.927 151.15C190.927 150.534 190.806 150.011 190.563 149.582C190.32 149.153 190.003 148.835 189.611 148.63C189.219 148.415 188.794 148.308 188.337 148.308C187.87 148.308 187.441 148.415 187.049 148.63C186.666 148.835 186.358 149.153 186.125 149.582C185.892 150.011 185.775 150.534 185.775 151.15C185.775 151.775 185.887 152.303 186.111 152.732C186.344 153.161 186.652 153.483 187.035 153.698C187.418 153.903 187.838 154.006 188.295 154.006ZM196.76 153.824L199.14 147.328H200.498L197.488 155H196.004L192.994 147.328H194.366L196.76 153.824ZM208.752 150.87C208.752 151.113 208.738 151.369 208.71 151.64H202.578C202.624 152.396 202.881 152.989 203.348 153.418C203.824 153.838 204.398 154.048 205.07 154.048C205.62 154.048 206.078 153.922 206.442 153.67C206.815 153.409 207.076 153.063 207.226 152.634H208.598C208.392 153.371 207.982 153.973 207.366 154.44C206.75 154.897 205.984 155.126 205.07 155.126C204.342 155.126 203.688 154.963 203.11 154.636C202.54 154.309 202.092 153.847 201.766 153.25C201.439 152.643 201.276 151.943 201.276 151.15C201.276 150.357 201.434 149.661 201.752 149.064C202.069 148.467 202.512 148.009 203.082 147.692C203.66 147.365 204.323 147.202 205.07 147.202C205.798 147.202 206.442 147.361 207.002 147.678C207.562 147.995 207.991 148.434 208.29 148.994C208.598 149.545 208.752 150.17 208.752 150.87ZM207.436 150.604C207.436 150.119 207.328 149.703 207.114 149.358C206.899 149.003 206.605 148.737 206.232 148.56C205.868 148.373 205.462 148.28 205.014 148.28C204.37 148.28 203.819 148.485 203.362 148.896C202.914 149.307 202.657 149.876 202.592 150.604H207.436ZM211.707 148.574C211.931 148.135 212.249 147.795 212.659 147.552C213.079 147.309 213.588 147.188 214.185 147.188V148.504H213.849C212.421 148.504 211.707 149.279 211.707 150.828V155H210.433V147.328H211.707V148.574ZM225.689 152.326C225.689 152.774 225.577 153.203 225.353 153.614C225.129 154.015 224.797 154.351 224.359 154.622C223.929 154.893 223.411 155.047 222.805 155.084V156.218H222.049V155.084C221.199 155.009 220.509 154.739 219.977 154.272C219.445 153.796 219.174 153.194 219.165 152.466H220.523C220.56 152.858 220.705 153.199 220.957 153.488C221.218 153.777 221.582 153.959 222.049 154.034V150.534C221.423 150.375 220.919 150.212 220.537 150.044C220.154 149.876 219.827 149.615 219.557 149.26C219.286 148.905 219.151 148.429 219.151 147.832C219.151 147.076 219.412 146.451 219.935 145.956C220.467 145.461 221.171 145.186 222.049 145.13V143.968H222.805V145.13C223.598 145.195 224.237 145.452 224.723 145.9C225.208 146.339 225.488 146.913 225.563 147.622H224.205C224.158 147.295 224.013 147.001 223.771 146.74C223.528 146.469 223.206 146.292 222.805 146.208V149.624C223.421 149.783 223.92 149.946 224.303 150.114C224.695 150.273 225.021 150.529 225.283 150.884C225.553 151.239 225.689 151.719 225.689 152.326ZM220.453 147.762C220.453 148.219 220.588 148.569 220.859 148.812C221.129 149.055 221.526 149.255 222.049 149.414V146.18C221.563 146.227 221.176 146.385 220.887 146.656C220.597 146.917 220.453 147.286 220.453 147.762ZM222.805 154.048C223.309 153.992 223.701 153.81 223.981 153.502C224.27 153.194 224.415 152.825 224.415 152.396C224.415 151.939 224.275 151.589 223.995 151.346C223.715 151.094 223.318 150.893 222.805 150.744V154.048ZM227.552 146.04V144.878H230.184V155H228.896V146.04H227.552ZM232.064 152.746V151.78L236.978 144.976H238.504V151.64H239.904V152.746H238.504V155H237.244V152.746H232.064ZM237.3 146.306L233.534 151.64H237.3V146.306ZM241.177 149.834C241.177 148.229 241.438 146.978 241.961 146.082C242.483 145.177 243.398 144.724 244.705 144.724C246.002 144.724 246.912 145.177 247.435 146.082C247.957 146.978 248.219 148.229 248.219 149.834C248.219 151.467 247.957 152.737 247.435 153.642C246.912 154.547 246.002 155 244.705 155C243.398 155 242.483 154.547 241.961 153.642C241.438 152.737 241.177 151.467 241.177 149.834ZM246.959 149.834C246.959 149.022 246.903 148.336 246.791 147.776C246.688 147.207 246.469 146.749 246.133 146.404C245.806 146.059 245.33 145.886 244.705 145.886C244.07 145.886 243.585 146.059 243.249 146.404C242.922 146.749 242.703 147.207 242.591 147.776C242.488 148.336 242.437 149.022 242.437 149.834C242.437 150.674 242.488 151.379 242.591 151.948C242.703 152.517 242.922 152.975 243.249 153.32C243.585 153.665 244.07 153.838 244.705 153.838C245.33 153.838 245.806 153.665 246.133 153.32C246.469 152.975 246.688 152.517 246.791 151.948C246.903 151.379 246.959 150.674 246.959 149.834Z" fill="black"/>
<defs>
<clipPath id="clip0_542_2332">
<rect width="40" height="40" fill="white" transform="translate(105 20)"/>
</clipPath>
</defs>
</svg>
